<svg width="665" height="321" viewBox="0 0 665 321" fill="none" xmlns="http://www.w3.org/2000/svg">
<g filter="url(#filter0_d_217_54)">
<path fill-rule="evenodd" clip-rule="evenodd" d="M35.3393 236.438C-21.3729 203.767 5.72928 148.552 86.1594 127.035C127.16 116.059 172.261 112.741 217.3 109.428C278.313 104.939 339.211 100.459 389.642 76.9621C432.004 57.2209 544.381 7.56287 592.137 40.1634C614.186 55.2158 612.585 70.0836 597.15 106.747C583.947 138.092 598.36 153.575 615.831 172.342C625.505 182.734 636.116 194.132 643.494 209.789C664.195 253.718 623.75 284.229 577.966 297.646C517.763 315.28 444.851 302.015 386.327 286.11C343.553 274.485 293.107 273.467 241.776 272.431C168.095 270.944 92.5911 269.42 35.3393 236.438ZM131.186 216.42C90.0723 192.736 109.72 152.709 168.028 137.111C197.751 129.154 230.447 126.749 263.098 124.347C307.33 121.093 351.478 117.845 388.038 100.812C418.748 86.5009 500.216 50.5025 534.837 74.1356C550.821 85.0475 549.661 95.8255 538.471 122.404C528.899 145.127 539.348 156.351 552.013 169.955C559.027 177.489 566.719 185.752 572.068 197.102C587.075 228.948 557.755 251.065 524.564 260.792C480.92 273.575 428.062 263.959 385.635 252.429C354.626 244.002 318.054 243.264 280.842 242.513C227.427 241.435 172.691 240.33 131.186 216.42Z" fill="#DAC4D2"/>
</g>
<path d="M182.548 123.72C178.548 121.64 176.548 118.28 176.548 113.64C176.548 110.6 177.388 107.28 179.068 103.68C180.668 100 182.908 96.4 185.788 92.88C189.788 87.92 194.228 83.8 199.108 80.52C203.988 77.16 208.468 75.48 212.548 75.48C214.628 75.48 216.468 76 218.068 77.04C220.868 78.8 222.268 81.04 222.268 83.76C222.268 85.84 221.468 87.92 219.868 90C216.028 95.2 208.588 97.8 197.548 97.8L196.708 99.84C195.828 102.08 195.388 104.08 195.388 105.84C195.388 107.6 195.908 108.88 196.948 109.68C197.908 110.4 198.988 110.76 200.188 110.76C202.748 110.76 205.708 109.52 209.068 107.04C212.508 104.56 215.828 101.4 219.028 97.56C219.348 97.24 219.628 97.08 219.868 97.08C220.188 97.08 220.348 97.24 220.348 97.56C220.428 97.88 220.388 98.16 220.228 98.4C215.428 106.16 210.028 112.52 204.028 117.48C198.028 122.44 192.588 124.92 187.708 124.92C185.788 124.92 184.068 124.52 182.548 123.72ZM198.988 95.04C201.228 94.4 203.508 93.24 205.828 91.56C208.228 89.88 210.188 88.12 211.708 86.28C213.308 84.36 214.108 82.8 214.108 81.6C214.108 80.96 213.868 80.48 213.388 80.16C212.588 79.52 211.308 79.88 209.548 81.24C207.868 82.52 206.028 84.44 204.028 87C202.108 89.56 200.428 92.24 198.988 95.04ZM235.288 124.08C231.688 122.64 229.888 119.76 229.888 115.44C229.888 112.24 230.888 108.08 232.888 102.96C229.368 104.96 226.648 107.84 224.728 111.6C222.808 115.28 221.848 119.48 221.848 124.2C221.848 124.6 221.688 124.8 221.368 124.8C219.368 124.8 217.528 124.2 215.848 123C214.168 121.72 213.328 120.08 213.328 118.08C213.328 117.28 213.528 116.36 213.928 115.32C215.448 111.64 217.888 108.72 221.248 106.56C224.608 104.4 228.768 102.56 233.728 101.04L235.528 96.6C236.888 93.24 237.848 90.76 238.408 89.16C239.048 87.48 239.368 86.12 239.368 85.08C239.368 84.12 239.048 83.44 238.408 83.04C237.128 82.32 234.768 83.48 231.328 86.52C227.888 89.56 223.968 93.96 219.568 99.72C219.248 100.04 218.968 100.2 218.728 100.2C218.328 100.2 218.008 100.04 217.768 99.72C217.528 99.4 217.528 99.08 217.768 98.76C222.328 92.04 227.248 86.52 232.528 82.2C237.808 77.88 242.528 75.72 246.688 75.72C248.288 75.72 249.848 76.16 251.368 77.04C253.288 78.24 254.248 80.28 254.248 83.16C254.248 85.56 253.448 89.32 251.848 94.44C254.408 92.92 256.768 90.36 258.928 86.76C261.088 83.16 262.168 79.96 262.168 77.16V76.56C262.168 76.08 262.448 75.84 263.008 75.84C268.208 75.84 270.808 77.48 270.808 80.76C270.808 83.08 269.728 85.36 267.568 87.6C265.408 89.76 262.768 91.68 259.648 93.36C256.608 95.04 253.768 96.16 251.128 96.72C250.088 100.16 249.568 102.64 249.568 104.16C249.568 106.16 250.288 107.44 251.728 108C252.608 108.32 253.528 108.48 254.488 108.48C256.728 108.48 258.928 107.56 261.088 105.72C263.328 103.8 265.848 101.04 268.648 97.44C269.048 96.8 269.568 96.48 270.208 96.48C270.608 96.48 270.888 96.64 271.048 96.96C271.208 97.2 271.168 97.48 270.928 97.8C264.608 106.44 259.008 113.12 254.128 117.84C249.328 122.56 244.568 124.92 239.848 124.92C238.248 124.92 236.728 124.64 235.288 124.08ZM246.618 151.92C246.298 152.48 245.418 152.76 243.978 152.76C241.818 152.76 239.738 152.24 237.738 151.2C235.658 150.16 234.938 149.08 235.578 147.96C236.378 146.6 239.138 142.44 243.858 135.48C246.418 131.56 251.778 123.4 259.938 111C268.098 98.52 275.178 87.56 281.178 78.12C281.658 77.4 282.418 76.88 283.458 76.56C284.578 76.16 285.818 75.96 287.178 75.96C289.098 75.96 290.698 76.28 291.978 76.92C293.338 77.56 293.738 78.32 293.178 79.2L287.418 88.32C291.338 84.24 294.738 81.16 297.618 79.08C300.498 76.92 303.058 75.84 305.298 75.84C306.418 75.84 307.458 76.08 308.418 76.56C311.298 78.08 312.738 80.68 312.738 84.36C312.738 89 310.698 94.6 306.618 101.16C304.458 104.52 301.818 108.04 298.698 111.72C301.898 110.6 304.978 108.88 307.938 106.56C310.978 104.24 313.738 101.36 316.218 97.92C316.618 97.44 317.018 97.2 317.418 97.2C317.818 97.2 318.098 97.32 318.258 97.56C318.498 97.8 318.498 98.08 318.258 98.4C312.098 107.04 305.578 113.64 298.698 118.2C291.818 122.76 285.738 125.04 280.458 125.04C277.978 125.04 276.018 124.6 274.578 123.72C272.818 122.76 271.938 121.08 271.938 118.68C271.938 116.52 272.698 114 274.218 111.12C275.738 108.24 277.818 105.36 280.458 102.48C280.698 102.24 280.858 102.2 280.938 102.36C281.098 102.44 281.178 102.6 281.178 102.84C281.178 103.72 281.338 104.68 281.658 105.72C281.978 106.68 282.418 107.24 282.978 107.4C283.458 107.56 283.858 107.64 284.178 107.64C285.858 107.64 287.738 106.72 289.818 104.88C291.898 102.96 293.858 100.6 295.698 97.8C297.218 95.56 298.458 93.32 299.418 91.08C300.378 88.84 300.858 87 300.858 85.56C300.858 84.28 300.498 83.48 299.778 83.16C299.458 83 299.138 82.92 298.818 82.92C296.898 82.92 294.138 84.52 290.538 87.72C287.018 90.92 283.898 94.36 281.178 98.04L246.618 151.92ZM316.61 123.72C312.61 121.64 310.61 118.28 310.61 113.64C310.61 110.6 311.45 107.28 313.13 103.68C314.73 100 316.97 96.4 319.85 92.88C323.85 87.92 328.29 83.8 333.17 80.52C338.05 77.16 342.53 75.48 346.61 75.48C348.69 75.48 350.53 76 352.13 77.04C354.93 78.8 356.33 81.04 356.33 83.76C356.33 85.84 355.53 87.92 353.93 90C350.09 95.2 342.65 97.8 331.61 97.8L330.77 99.84C329.89 102.08 329.45 104.08 329.45 105.84C329.45 107.6 329.97 108.88 331.01 109.68C331.97 110.4 333.05 110.76 334.25 110.76C336.81 110.76 339.77 109.52 343.13 107.04C346.57 104.56 349.89 101.4 353.09 97.56C353.41 97.24 353.69 97.08 353.93 97.08C354.25 97.08 354.41 97.24 354.41 97.56C354.49 97.88 354.45 98.16 354.29 98.4C349.49 106.16 344.09 112.52 338.09 117.48C332.09 122.44 326.65 124.92 321.77 124.92C319.85 124.92 318.13 124.52 316.61 123.72ZM333.05 95.04C335.29 94.4 337.57 93.24 339.89 91.56C342.29 89.88 344.25 88.12 345.77 86.28C347.37 84.36 348.17 82.8 348.17 81.6C348.17 80.96 347.93 80.48 347.45 80.16C346.65 79.52 345.37 79.88 343.61 81.24C341.93 82.52 340.09 84.44 338.09 87C336.17 89.56 334.49 92.24 333.05 95.04ZM357.905 123.36C355.265 121.68 353.945 119.44 353.945 116.64C353.945 113.52 355.145 110.2 357.545 106.68C360.025 103.08 363.265 99 367.265 94.44C370.545 90.92 372.025 88.92 371.705 88.44C371.385 88.04 370.145 88.2 367.985 88.92C367.745 89 366.905 89.28 365.465 89.76C364.025 90.16 362.705 90.28 361.505 90.12C359.265 92.52 357.345 94.8 355.745 96.96C354.145 99.04 353.185 100.28 352.865 100.68C352.465 101.16 352.065 101.4 351.665 101.4C351.105 101.4 350.825 101.12 350.825 100.56C350.825 100.24 350.985 99.88 351.305 99.48C352.345 98.04 354.785 94.36 358.625 88.44C357.985 87.56 357.665 86.44 357.665 85.08C357.665 82.76 358.545 80.12 360.305 77.16C362.145 74.12 364.505 71.48 367.385 69.24C368.345 68.52 369.385 68.16 370.505 68.16C371.785 68.16 372.945 68.56 373.985 69.36C375.025 70.08 375.545 71.04 375.545 72.24C375.545 72.56 375.465 72.96 375.305 73.44C374.825 74.88 373.985 76.24 372.785 77.52C371.665 78.72 370.985 79.44 370.745 79.68C370.105 80.32 369.545 80.92 369.065 81.48C368.585 82.04 368.425 82.48 368.585 82.8L368.705 82.92C368.945 83.16 369.425 83.2 370.145 83.04C370.945 82.88 371.825 82.64 372.785 82.32C375.585 81.44 377.785 81 379.385 81C380.745 81 381.865 81.32 382.745 81.96C384.425 83.16 385.265 84.76 385.265 86.76C385.265 88.44 384.585 90.08 383.225 91.68L380.345 94.92C377.705 97.88 375.745 100.2 374.465 101.88C373.265 103.48 372.665 104.88 372.665 106.08C372.665 106.88 373.065 107.52 373.865 108C374.505 108.32 375.065 108.48 375.545 108.48C378.745 108.48 382.945 104.92 388.145 97.8C388.545 97.32 388.905 97.08 389.225 97.08C389.545 97.08 389.705 97.32 389.705 97.8C389.705 98.2 389.625 98.52 389.465 98.76C385.385 106.36 380.905 112.6 376.025 117.48C371.225 122.28 366.745 124.68 362.585 124.68C360.825 124.68 359.265 124.24 357.905 123.36ZM382.882 124.56C380.482 123.28 379.282 121.12 379.282 118.08C379.282 114 381.322 108.72 385.402 102.24L389.242 95.88C393.242 89.4 396.482 84.4 398.962 80.88C400.882 78.32 403.002 77.04 405.322 77.04C406.682 77.04 407.922 77.4 409.042 78.12C410.242 78.76 411.122 79.52 411.682 80.4C412.242 81.28 412.322 82 411.922 82.56C410.162 85.12 408.842 86.96 407.962 88.08C404.442 93.12 401.922 96.88 400.402 99.36C398.882 101.76 398.122 103.68 398.122 105.12C398.122 106 398.402 106.68 398.962 107.16C399.362 107.48 399.882 107.64 400.522 107.64C403.162 107.64 407.122 104.2 412.402 97.32C412.642 96.92 412.962 96.72 413.362 96.72C413.682 96.72 413.922 96.88 414.082 97.2C414.242 97.44 414.202 97.72 413.962 98.04C409.002 105.72 403.922 112.2 398.722 117.48C393.522 122.68 389.162 125.28 385.642 125.28C384.682 125.28 383.762 125.04 382.882 124.56ZM406.882 62.4C407.602 60.72 408.682 59.44 410.122 58.56C411.562 57.6 413.122 57.12 414.802 57.12C416.082 57.12 417.162 57.32 418.042 57.72C419.562 58.44 420.722 59.52 421.522 60.96C422.402 62.32 422.842 63.84 422.842 65.52C422.842 66.72 422.602 67.92 422.122 69.12C421.322 70.8 420.082 72.2 418.402 73.32C416.722 74.36 414.962 74.88 413.122 74.88C410.802 74.88 409.002 74.12 407.722 72.6C406.522 71.08 405.922 69.24 405.922 67.08C405.922 65.48 406.242 63.92 406.882 62.4ZM412.352 123.72C408.352 121.64 406.352 118.28 406.352 113.64C406.352 110.6 407.192 107.28 408.872 103.68C410.472 100 412.712 96.4 415.592 92.88C419.592 87.92 424.032 83.8 428.912 80.52C433.792 77.16 438.272 75.48 442.352 75.48C444.432 75.48 446.272 76 447.872 77.04C450.672 78.8 452.072 81.04 452.072 83.76C452.072 85.84 451.272 87.92 449.672 90C445.832 95.2 438.392 97.8 427.352 97.8L426.512 99.84C425.632 102.08 425.192 104.08 425.192 105.84C425.192 107.6 425.712 108.88 426.752 109.68C427.712 110.4 428.792 110.76 429.992 110.76C432.552 110.76 435.512 109.52 438.872 107.04C442.312 104.56 445.632 101.4 448.832 97.56C449.152 97.24 449.432 97.08 449.672 97.08C449.992 97.08 450.152 97.24 450.152 97.56C450.232 97.88 450.192 98.16 450.032 98.4C445.232 106.16 439.832 112.52 433.832 117.48C427.832 122.44 422.392 124.92 417.512 124.92C415.592 124.92 413.872 124.52 412.352 123.72ZM428.792 95.04C431.032 94.4 433.312 93.24 435.632 91.56C438.032 89.88 439.992 88.12 441.512 86.28C443.112 84.36 443.912 82.8 443.912 81.6C443.912 80.96 443.672 80.48 443.192 80.16C442.392 79.52 441.112 79.88 439.352 81.24C437.672 82.52 435.832 84.44 433.832 87C431.912 89.56 430.232 92.24 428.792 95.04ZM442.762 123.96C440.122 122.76 438.802 120.84 438.802 118.2C438.802 116.44 439.362 114.4 440.482 112.08C441.522 109.76 443.042 106.92 445.042 103.56C451.042 93.72 456.482 85.56 461.362 79.08C462.882 76.92 465.002 75.84 467.722 75.84C469.162 75.84 470.522 76.12 471.802 76.68C473.082 77.24 474.042 77.92 474.682 78.72C475.322 79.44 475.442 80.08 475.042 80.64C472.562 83.76 469.482 87.6 465.802 92.16C462.202 96.56 459.642 99.8 458.122 101.88C456.682 103.96 455.962 105.48 455.962 106.44C455.962 106.92 456.122 107.2 456.442 107.28C457.162 107.68 458.282 107.04 459.802 105.36C461.402 103.68 463.682 100.96 466.642 97.2C471.762 90.72 476.162 85.68 479.842 82.08C483.522 78.4 486.962 76.56 490.162 76.56C490.802 76.56 491.482 76.68 492.202 76.92C494.202 77.56 495.202 79 495.202 81.24C495.202 83 494.642 85.08 493.522 87.48C492.402 89.88 490.682 93.08 488.362 97.08C486.682 99.88 485.402 102.16 484.522 103.92C483.642 105.68 483.202 107.08 483.202 108.12C483.202 108.76 483.402 109.2 483.802 109.44C484.202 109.76 484.682 109.92 485.242 109.92C486.682 109.92 488.242 108.92 489.922 106.92C491.682 104.92 494.162 101.68 497.362 97.2C497.762 96.72 498.162 96.48 498.562 96.48C498.962 96.48 499.242 96.64 499.402 96.96C499.642 97.28 499.602 97.64 499.282 98.04C494.722 105.16 490.042 111.28 485.242 116.4C480.442 121.44 476.082 123.96 472.162 123.96C470.882 123.96 469.682 123.64 468.562 123C466.242 121.64 465.082 119.72 465.082 117.24C465.082 114.76 466.002 111.96 467.842 108.84C469.762 105.64 472.362 101.92 475.642 97.68C477.642 95.12 479.082 93.12 479.962 91.68C480.922 90.24 481.402 89.12 481.402 88.32C481.402 87.84 481.202 87.52 480.802 87.36C479.922 86.96 478.642 87.8 476.962 89.88C475.362 91.88 473.042 95.2 470.002 99.84C464.722 107.6 460.162 113.68 456.322 118.08C452.562 122.4 448.922 124.56 445.402 124.56C444.602 124.56 443.722 124.36 442.762 123.96ZM497.241 123.72C493.241 121.64 491.241 118.28 491.241 113.64C491.241 110.6 492.081 107.28 493.761 103.68C495.361 100 497.601 96.4 500.481 92.88C504.481 87.92 508.921 83.8 513.801 80.52C518.681 77.16 523.161 75.48 527.241 75.48C529.321 75.48 531.161 76 532.761 77.04C535.481 78.72 536.841 81 536.841 83.88C536.841 86.04 536.081 88.08 534.561 90C533.361 91.6 531.761 92.88 529.761 93.84C527.841 94.8 525.761 95.28 523.521 95.28C521.841 95.28 520.361 95.08 519.081 94.68C518.921 94.6 518.801 94.44 518.721 94.2C518.721 93.96 518.801 93.8 518.961 93.72C521.601 92.04 523.921 90 525.921 87.6C527.921 85.12 528.921 83.16 528.921 81.72C528.921 81 528.641 80.48 528.081 80.16C527.761 79.92 527.361 79.8 526.881 79.8C524.961 79.8 522.561 81.2 519.681 84C516.801 86.8 514.321 90.04 512.241 93.72C510.161 97.48 509.121 100.84 509.121 103.8C509.121 106.36 510.041 108.32 511.881 109.68C512.761 110.32 513.841 110.64 515.121 110.64C517.601 110.64 520.521 109.44 523.881 107.04C527.241 104.56 530.521 101.4 533.721 97.56C534.041 97.24 534.321 97.08 534.561 97.08C534.881 97.08 535.041 97.24 535.041 97.56C535.121 97.88 535.081 98.16 534.921 98.4C530.121 106.16 524.721 112.52 518.721 117.48C512.721 122.44 507.281 124.92 502.401 124.92C500.481 124.92 498.761 124.52 497.241 123.72ZM533.759 123.72C529.759 121.64 527.759 118.28 527.759 113.64C527.759 110.6 528.599 107.28 530.279 103.68C531.879 100 534.119 96.4 536.999 92.88C540.999 87.92 545.439 83.8 550.319 80.52C555.199 77.16 559.679 75.48 563.759 75.48C565.839 75.48 567.679 76 569.279 77.04C572.079 78.8 573.479 81.04 573.479 83.76C573.479 85.84 572.679 87.92 571.079 90C567.239 95.2 559.799 97.8 548.759 97.8L547.919 99.84C547.039 102.08 546.599 104.08 546.599 105.84C546.599 107.6 547.119 108.88 548.159 109.68C549.119 110.4 550.199 110.76 551.399 110.76C553.959 110.76 556.919 109.52 560.279 107.04C563.719 104.56 567.039 101.4 570.239 97.56C570.559 97.24 570.839 97.08 571.079 97.08C571.399 97.08 571.559 97.24 571.559 97.56C571.639 97.88 571.599 98.16 571.439 98.4C566.639 106.16 561.239 112.52 555.239 117.48C549.239 122.44 543.799 124.92 538.919 124.92C536.999 124.92 535.279 124.52 533.759 123.72ZM550.199 95.04C552.439 94.4 554.719 93.24 557.039 91.56C559.439 89.88 561.399 88.12 562.919 86.28C564.519 84.36 565.319 82.8 565.319 81.6C565.319 80.96 565.079 80.48 564.599 80.16C563.799 79.52 562.519 79.88 560.759 81.24C559.079 82.52 557.239 84.44 555.239 87C553.319 89.56 551.639 92.24 550.199 95.04Z" fill="#80536F"/>
<path d="M134.685 179.089V178.613C134.685 177.848 134.925 177.217 135.405 176.721C135.885 176.224 136.544 175.976 137.382 175.976C138.221 175.976 138.88 176.224 139.36 176.721C139.848 177.217 140.092 177.848 140.092 178.613V179.089C140.092 179.846 139.852 180.468 139.372 180.957C138.892 181.445 138.229 181.689 137.382 181.689C136.552 181.689 135.893 181.445 135.405 180.957C134.925 180.468 134.685 179.846 134.685 179.089ZM159.013 185.607V188H148.784V185.937L153.63 179.65C154.159 178.942 154.566 178.332 154.851 177.819C155.144 177.299 155.347 176.831 155.461 176.416C155.575 176 155.632 175.594 155.632 175.195C155.632 174.641 155.555 174.153 155.4 173.73C155.253 173.307 155.034 172.977 154.741 172.741C154.448 172.497 154.09 172.375 153.667 172.375C153.138 172.375 152.702 172.517 152.36 172.802C152.019 173.079 151.766 173.465 151.604 173.962C151.441 174.45 151.359 175.012 151.359 175.646H148.515C148.515 174.613 148.715 173.665 149.113 172.802C149.52 171.94 150.11 171.256 150.883 170.751C151.656 170.239 152.596 169.982 153.703 169.982C154.729 169.982 155.595 170.182 156.303 170.581C157.019 170.979 157.561 171.545 157.927 172.277C158.301 173.01 158.488 173.881 158.488 174.89C158.488 175.443 158.411 175.996 158.256 176.55C158.11 177.095 157.902 177.636 157.634 178.173C157.365 178.71 157.04 179.252 156.657 179.797C156.283 180.342 155.868 180.896 155.412 181.457L152.348 185.607H159.013ZM171.22 177.624V180.529C171.22 181.921 171.098 183.109 170.854 184.094C170.618 185.07 170.28 185.864 169.841 186.474C169.41 187.084 168.889 187.532 168.278 187.817C167.676 188.102 167.005 188.244 166.264 188.244C165.678 188.244 165.129 188.155 164.616 187.976C164.104 187.797 163.64 187.516 163.225 187.133C162.818 186.751 162.468 186.258 162.175 185.656C161.89 185.046 161.666 184.318 161.503 183.471C161.349 182.625 161.271 181.644 161.271 180.529V177.624C161.271 176.224 161.394 175.044 161.638 174.084C161.882 173.116 162.224 172.33 162.663 171.728C163.103 171.118 163.623 170.674 164.226 170.397C164.836 170.121 165.511 169.982 166.252 169.982C166.838 169.982 167.387 170.072 167.9 170.251C168.413 170.422 168.872 170.694 169.279 171.069C169.686 171.443 170.036 171.931 170.329 172.534C170.622 173.128 170.842 173.848 170.988 174.694C171.143 175.533 171.22 176.509 171.22 177.624ZM168.388 180.957V177.172C168.388 176.472 168.356 175.854 168.291 175.317C168.225 174.78 168.136 174.324 168.022 173.95C167.908 173.575 167.762 173.274 167.583 173.046C167.412 172.81 167.212 172.639 166.984 172.534C166.765 172.42 166.521 172.363 166.252 172.363C165.918 172.363 165.617 172.448 165.349 172.619C165.088 172.79 164.864 173.067 164.677 173.449C164.498 173.824 164.36 174.32 164.262 174.938C164.165 175.549 164.116 176.293 164.116 177.172V180.957C164.116 181.665 164.148 182.287 164.213 182.824C164.278 183.361 164.372 183.825 164.494 184.216C164.616 184.598 164.763 184.912 164.934 185.156C165.104 185.392 165.3 185.567 165.52 185.681C165.747 185.795 165.996 185.852 166.264 185.852C166.606 185.852 166.907 185.762 167.167 185.583C167.436 185.404 167.66 185.123 167.839 184.741C168.018 184.35 168.152 183.841 168.242 183.215C168.339 182.588 168.388 181.835 168.388 180.957ZM184.013 185.607V188H173.784V185.937L178.63 179.65C179.159 178.942 179.566 178.332 179.851 177.819C180.144 177.299 180.347 176.831 180.461 176.416C180.575 176 180.632 175.594 180.632 175.195C180.632 174.641 180.555 174.153 180.4 173.73C180.253 173.307 180.034 172.977 179.741 172.741C179.448 172.497 179.09 172.375 178.667 172.375C178.138 172.375 177.702 172.517 177.36 172.802C177.019 173.079 176.766 173.465 176.604 173.962C176.441 174.45 176.359 175.012 176.359 175.646H173.515C173.515 174.613 173.715 173.665 174.113 172.802C174.52 171.94 175.11 171.256 175.883 170.751C176.656 170.239 177.596 169.982 178.703 169.982C179.729 169.982 180.595 170.182 181.303 170.581C182.019 170.979 182.561 171.545 182.927 172.277C183.301 173.01 183.488 173.881 183.488 174.89C183.488 175.443 183.411 175.996 183.256 176.55C183.11 177.095 182.902 177.636 182.634 178.173C182.365 178.71 182.04 179.252 181.657 179.797C181.283 180.342 180.868 180.896 180.412 181.457L177.348 185.607H184.013ZM196.513 185.607V188H186.284V185.937L191.13 179.65C191.659 178.942 192.066 178.332 192.351 177.819C192.644 177.299 192.847 176.831 192.961 176.416C193.075 176 193.132 175.594 193.132 175.195C193.132 174.641 193.055 174.153 192.9 173.73C192.753 173.307 192.534 172.977 192.241 172.741C191.948 172.497 191.59 172.375 191.167 172.375C190.638 172.375 190.202 172.517 189.86 172.802C189.519 173.079 189.266 173.465 189.104 173.962C188.941 174.45 188.859 175.012 188.859 175.646H186.015C186.015 174.613 186.215 173.665 186.613 172.802C187.02 171.94 187.61 171.256 188.383 170.751C189.156 170.239 190.096 169.982 191.203 169.982C192.229 169.982 193.095 170.182 193.803 170.581C194.519 170.979 195.061 171.545 195.427 172.277C195.801 173.01 195.988 173.881 195.988 174.89C195.988 175.443 195.911 175.996 195.756 176.55C195.61 177.095 195.402 177.636 195.134 178.173C194.865 178.71 194.54 179.252 194.157 179.797C193.783 180.342 193.368 180.896 192.912 181.457L189.848 185.607H196.513ZM204.106 179.211V181.604H198.576V179.211H204.106ZM216.752 185.607V188H206.523V185.937L211.369 179.65C211.898 178.942 212.305 178.332 212.59 177.819C212.883 177.299 213.086 176.831 213.2 176.416C213.314 176 213.371 175.594 213.371 175.195C213.371 174.641 213.294 174.153 213.139 173.73C212.993 173.307 212.773 172.977 212.48 172.741C212.187 172.497 211.829 172.375 211.406 172.375C210.877 172.375 210.441 172.517 210.1 172.802C209.758 173.079 209.506 173.465 209.343 173.962C209.18 174.45 209.099 175.012 209.099 175.646H206.254C206.254 174.613 206.454 173.665 206.853 172.802C207.259 171.94 207.849 171.256 208.623 170.751C209.396 170.239 210.336 169.982 211.442 169.982C212.468 169.982 213.334 170.182 214.042 170.581C214.759 170.979 215.3 171.545 215.666 172.277C216.04 173.01 216.228 173.881 216.228 174.89C216.228 175.443 216.15 175.996 215.996 176.55C215.849 177.095 215.642 177.636 215.373 178.173C215.104 178.71 214.779 179.252 214.396 179.797C214.022 180.342 213.607 180.896 213.151 181.457L210.087 185.607H216.752ZM228.959 177.624V180.529C228.959 181.921 228.837 183.109 228.593 184.094C228.357 185.07 228.02 185.864 227.58 186.474C227.149 187.084 226.628 187.532 226.018 187.817C225.415 188.102 224.744 188.244 224.003 188.244C223.417 188.244 222.868 188.155 222.355 187.976C221.843 187.797 221.379 187.516 220.964 187.133C220.557 186.751 220.207 186.258 219.914 185.656C219.629 185.046 219.405 184.318 219.243 183.471C219.088 182.625 219.011 181.644 219.011 180.529V177.624C219.011 176.224 219.133 175.044 219.377 174.084C219.621 173.116 219.963 172.33 220.402 171.728C220.842 171.118 221.363 170.674 221.965 170.397C222.575 170.121 223.251 169.982 223.991 169.982C224.577 169.982 225.126 170.072 225.639 170.251C226.152 170.422 226.612 170.694 227.019 171.069C227.425 171.443 227.775 171.931 228.068 172.534C228.361 173.128 228.581 173.848 228.728 174.694C228.882 175.533 228.959 176.509 228.959 177.624ZM226.127 180.957V177.172C226.127 176.472 226.095 175.854 226.03 175.317C225.965 174.78 225.875 174.324 225.761 173.95C225.647 173.575 225.501 173.274 225.322 173.046C225.151 172.81 224.951 172.639 224.724 172.534C224.504 172.42 224.26 172.363 223.991 172.363C223.658 172.363 223.356 172.448 223.088 172.619C222.827 172.79 222.604 173.067 222.417 173.449C222.237 173.824 222.099 174.32 222.001 174.938C221.904 175.549 221.855 176.293 221.855 177.172V180.957C221.855 181.665 221.888 182.287 221.953 182.824C222.018 183.361 222.111 183.825 222.233 184.216C222.355 184.598 222.502 184.912 222.673 185.156C222.844 185.392 223.039 185.567 223.259 185.681C223.487 185.795 223.735 185.852 224.003 185.852C224.345 185.852 224.646 185.762 224.907 185.583C225.175 185.404 225.399 185.123 225.578 184.741C225.757 184.35 225.891 183.841 225.981 183.215C226.079 182.588 226.127 181.835 226.127 180.957ZM241.752 185.607V188H231.523V185.937L236.369 179.65C236.898 178.942 237.305 178.332 237.59 177.819C237.883 177.299 238.086 176.831 238.2 176.416C238.314 176 238.371 175.594 238.371 175.195C238.371 174.641 238.294 174.153 238.139 173.73C237.993 173.307 237.773 172.977 237.48 172.741C237.187 172.497 236.829 172.375 236.406 172.375C235.877 172.375 235.441 172.517 235.1 172.802C234.758 173.079 234.506 173.465 234.343 173.962C234.18 174.45 234.099 175.012 234.099 175.646H231.254C231.254 174.613 231.454 173.665 231.853 172.802C232.259 171.94 232.849 171.256 233.623 170.751C234.396 170.239 235.336 169.982 236.442 169.982C237.468 169.982 238.334 170.182 239.042 170.581C239.759 170.979 240.3 171.545 240.666 172.277C241.04 173.01 241.228 173.881 241.228 174.89C241.228 175.443 241.15 175.996 240.996 176.55C240.849 177.095 240.642 177.636 240.373 178.173C240.104 178.71 239.779 179.252 239.396 179.797C239.022 180.342 238.607 180.896 238.151 181.457L235.087 185.607H241.752ZM246.965 177.758H248.503C249.016 177.758 249.439 177.644 249.772 177.417C250.114 177.181 250.367 176.859 250.529 176.452C250.692 176.037 250.773 175.565 250.773 175.036C250.773 174.483 250.696 174.007 250.542 173.608C250.395 173.209 250.171 172.904 249.87 172.692C249.577 172.481 249.203 172.375 248.747 172.375C248.356 172.375 248.007 172.477 247.697 172.68C247.388 172.875 247.144 173.16 246.965 173.535C246.794 173.901 246.708 174.336 246.708 174.841H243.864C243.864 173.897 244.072 173.059 244.487 172.326C244.902 171.594 245.472 171.02 246.196 170.605C246.928 170.19 247.762 169.982 248.698 169.982C249.667 169.982 250.517 170.174 251.25 170.556C251.99 170.931 252.568 171.492 252.983 172.241C253.406 172.989 253.618 173.917 253.618 175.024C253.618 175.537 253.52 176.053 253.325 176.574C253.138 177.095 252.849 177.571 252.458 178.002C252.067 178.426 251.579 178.767 250.993 179.028C250.415 179.288 249.732 179.418 248.942 179.418H246.965V177.758ZM246.965 180.102V178.466H248.942C249.854 178.466 250.619 178.588 251.237 178.833C251.864 179.069 252.364 179.402 252.739 179.833C253.121 180.257 253.398 180.741 253.569 181.286C253.74 181.831 253.825 182.409 253.825 183.02C253.825 183.85 253.695 184.59 253.435 185.241C253.174 185.892 252.812 186.442 252.348 186.889C251.884 187.337 251.339 187.674 250.712 187.902C250.094 188.13 249.418 188.244 248.686 188.244C248.027 188.244 247.4 188.138 246.806 187.927C246.212 187.715 245.683 187.402 245.219 186.987C244.764 186.564 244.401 186.039 244.133 185.412C243.872 184.777 243.742 184.041 243.742 183.203H246.574C246.574 183.723 246.664 184.183 246.843 184.582C247.03 184.981 247.282 185.294 247.6 185.522C247.917 185.742 248.291 185.852 248.723 185.852C249.187 185.852 249.585 185.742 249.919 185.522C250.261 185.302 250.521 184.981 250.7 184.558C250.887 184.134 250.981 183.622 250.981 183.02C250.981 182.344 250.879 181.791 250.676 181.359C250.48 180.928 250.2 180.611 249.833 180.407C249.467 180.204 249.024 180.102 248.503 180.102H246.965ZM269.951 174.792V177.197H265.361V188H262.517V174.792H269.951ZM279.228 174.792V177.197H274.638V188H271.794V174.792H279.228ZM281.206 186.511C281.206 186.039 281.356 185.644 281.657 185.327C281.966 185.009 282.39 184.851 282.927 184.851C283.464 184.851 283.883 185.009 284.184 185.327C284.493 185.644 284.648 186.039 284.648 186.511C284.648 186.966 284.493 187.353 284.184 187.67C283.883 187.988 283.464 188.146 282.927 188.146C282.39 188.146 281.966 187.988 281.657 187.67C281.356 187.353 281.206 186.966 281.206 186.511ZM302.604 182.202H305.559C305.502 183.487 305.241 184.582 304.777 185.485C304.313 186.381 303.646 187.064 302.775 187.536C301.913 188.008 300.859 188.244 299.614 188.244C298.67 188.244 297.823 188.073 297.075 187.731C296.334 187.39 295.703 186.897 295.183 186.254C294.662 185.603 294.263 184.81 293.986 183.874C293.718 182.938 293.583 181.876 293.583 180.688V177.539C293.583 176.35 293.722 175.288 293.999 174.353C294.283 173.417 294.69 172.623 295.219 171.972C295.748 171.321 296.391 170.829 297.148 170.495C297.913 170.153 298.776 169.982 299.736 169.982C300.965 169.982 301.998 170.218 302.836 170.69C303.675 171.162 304.322 171.854 304.777 172.766C305.233 173.677 305.498 174.788 305.571 176.098H302.617C302.576 175.211 302.454 174.503 302.25 173.974C302.055 173.437 301.754 173.05 301.347 172.814C300.948 172.578 300.411 172.46 299.736 172.46C299.174 172.46 298.69 172.566 298.283 172.778C297.884 172.989 297.555 173.307 297.294 173.73C297.042 174.145 296.851 174.67 296.721 175.305C296.599 175.931 296.538 176.668 296.538 177.514V180.688C296.538 181.502 296.59 182.222 296.696 182.849C296.802 183.475 296.973 184.008 297.209 184.448C297.445 184.879 297.758 185.209 298.149 185.437C298.54 185.656 299.028 185.766 299.614 185.766C300.314 185.766 300.871 185.656 301.286 185.437C301.709 185.217 302.023 184.847 302.226 184.326C302.43 183.805 302.556 183.097 302.604 182.202ZM309.184 170.227H311.882L315.971 183.447L320.048 170.227H322.551L317.082 188H314.848L309.184 170.227ZM308.171 170.227H310.661L311.064 181.542V188H308.171V170.227ZM321.257 170.227H323.759V188H320.866V181.542L321.257 170.227ZM328.105 170.227H330.803L334.892 183.447L338.969 170.227H341.472L336.003 188H333.769L328.105 170.227ZM327.092 170.227H329.582L329.985 181.542V188H327.092V170.227ZM340.178 170.227H342.68V188H339.787V181.542L340.178 170.227ZM352.788 170.227H355.485L359.575 183.447L363.652 170.227H366.154L360.686 188H358.452L352.788 170.227ZM351.774 170.227H354.265L354.667 181.542V188H351.774V170.227ZM364.86 170.227H367.363V188H364.47V181.542L364.86 170.227ZM375.517 188.244C374.663 188.244 373.902 188.118 373.234 187.866C372.567 187.605 372.001 187.223 371.538 186.718C371.074 186.206 370.72 185.579 370.476 184.838C370.231 184.09 370.109 183.223 370.109 182.238V180.969C370.109 179.854 370.236 178.894 370.488 178.088C370.748 177.274 371.106 176.607 371.562 176.086C372.018 175.565 372.555 175.179 373.173 174.926C373.8 174.674 374.479 174.548 375.212 174.548C376.042 174.548 376.762 174.682 377.373 174.951C377.983 175.219 378.483 175.622 378.874 176.159C379.273 176.696 379.566 177.36 379.753 178.149C379.948 178.938 380.046 179.846 380.046 180.871V182.299H371.477V180.151H377.238V179.846C377.222 179.243 377.149 178.727 377.019 178.295C376.888 177.856 376.677 177.522 376.384 177.294C376.099 177.058 375.704 176.94 375.2 176.94C374.833 176.94 374.508 177.01 374.223 177.148C373.938 177.286 373.702 177.51 373.515 177.819C373.336 178.129 373.198 178.544 373.1 179.064C373.002 179.577 372.954 180.212 372.954 180.969V182.238C372.954 182.897 373.011 183.455 373.125 183.911C373.247 184.366 373.426 184.741 373.662 185.034C373.898 185.319 374.182 185.53 374.516 185.668C374.858 185.799 375.253 185.864 375.7 185.864C376.359 185.864 376.925 185.742 377.397 185.498C377.877 185.245 378.292 184.92 378.642 184.521L379.899 186.267C379.663 186.584 379.346 186.897 378.947 187.207C378.549 187.508 378.064 187.756 377.495 187.951C376.933 188.146 376.274 188.244 375.517 188.244ZM389.897 180.285V182.653H384.465V180.285H389.897ZM385.271 174.792V188H382.426V174.792H385.271ZM391.96 174.792V188H389.116V174.792H391.96ZM399.98 188.244C399.125 188.244 398.365 188.118 397.697 187.866C397.03 187.605 396.464 187.223 396 186.718C395.537 186.206 395.183 185.579 394.938 184.838C394.694 184.09 394.572 183.223 394.572 182.238V180.969C394.572 179.854 394.698 178.894 394.951 178.088C395.211 177.274 395.569 176.607 396.025 176.086C396.481 175.565 397.018 175.179 397.636 174.926C398.263 174.674 398.942 174.548 399.675 174.548C400.505 174.548 401.225 174.682 401.835 174.951C402.446 175.219 402.946 175.622 403.337 176.159C403.736 176.696 404.029 177.36 404.216 178.149C404.411 178.938 404.509 179.846 404.509 180.871V182.299H395.939V180.151H401.701V179.846C401.685 179.243 401.612 178.727 401.481 178.295C401.351 177.856 401.14 177.522 400.847 177.294C400.562 177.058 400.167 176.94 399.663 176.94C399.296 176.94 398.971 177.01 398.686 177.148C398.401 177.286 398.165 177.51 397.978 177.819C397.799 178.129 397.661 178.544 397.563 179.064C397.465 179.577 397.417 180.212 397.417 180.969V182.238C397.417 182.897 397.473 183.455 397.587 183.911C397.709 184.366 397.889 184.741 398.125 185.034C398.361 185.319 398.645 185.53 398.979 185.668C399.321 185.799 399.715 185.864 400.163 185.864C400.822 185.864 401.388 185.742 401.86 185.498C402.34 185.245 402.755 184.92 403.105 184.521L404.362 186.267C404.126 186.584 403.809 186.897 403.41 187.207C403.011 187.508 402.527 187.756 401.958 187.951C401.396 188.146 400.737 188.244 399.98 188.244ZM408.806 174.792H411.65L411.552 179.431C411.52 180.782 411.385 181.945 411.149 182.922C410.913 183.89 410.604 184.708 410.222 185.375C409.839 186.043 409.404 186.588 408.916 187.011C408.427 187.426 407.906 187.756 407.353 188H406.547V185.632L406.926 185.607C407.243 185.225 407.508 184.847 407.719 184.472C407.939 184.09 408.118 183.671 408.256 183.215C408.395 182.751 408.496 182.214 408.562 181.604C408.635 180.993 408.684 180.269 408.708 179.431L408.806 174.792ZM409.526 174.792H416.838V188H414.006V177.319H409.526V174.792ZM405.986 185.607H418.474V191.943H415.642V188H408.867V191.943H405.974L405.986 185.607ZM424.174 182.702L419.841 174.792H423.332L425.542 179.968H427.775L427.385 182.702H424.174ZM425.59 182.263L423.21 188H419.731L423.454 180.578L425.59 182.263ZM429.472 174.792V188H426.628V174.792H429.472ZM436.284 174.792L431.95 182.702H428.74L428.349 179.968H430.571L432.792 174.792H436.284ZM432.902 188L430.51 182.263L432.707 180.578L436.43 188H432.902ZM443.168 188.244C442.314 188.244 441.553 188.118 440.886 187.866C440.218 187.605 439.653 187.223 439.189 186.718C438.725 186.206 438.371 185.579 438.127 184.838C437.883 184.09 437.761 183.223 437.761 182.238V180.969C437.761 179.854 437.887 178.894 438.139 178.088C438.4 177.274 438.758 176.607 439.213 176.086C439.669 175.565 440.206 175.179 440.825 174.926C441.451 174.674 442.131 174.548 442.863 174.548C443.693 174.548 444.414 174.682 445.024 174.951C445.634 175.219 446.135 175.622 446.525 176.159C446.924 176.696 447.217 177.36 447.404 178.149C447.6 178.938 447.697 179.846 447.697 180.871V182.299H439.128V180.151H444.89V179.846C444.873 179.243 444.8 178.727 444.67 178.295C444.54 177.856 444.328 177.522 444.035 177.294C443.75 177.058 443.356 176.94 442.851 176.94C442.485 176.94 442.159 177.01 441.875 177.148C441.59 177.286 441.354 177.51 441.167 177.819C440.987 178.129 440.849 178.544 440.751 179.064C440.654 179.577 440.605 180.212 440.605 180.969V182.238C440.605 182.897 440.662 183.455 440.776 183.911C440.898 184.366 441.077 184.741 441.313 185.034C441.549 185.319 441.834 185.53 442.167 185.668C442.509 185.799 442.904 185.864 443.352 185.864C444.011 185.864 444.576 185.742 445.048 185.498C445.528 185.245 445.944 184.92 446.293 184.521L447.551 186.267C447.315 186.584 446.997 186.897 446.599 187.207C446.2 187.508 445.716 187.756 445.146 187.951C444.584 188.146 443.925 188.244 443.168 188.244ZM452.824 177.331V193.078H449.992V174.792H452.592L452.824 177.331ZM459.929 180.871V181.921C459.929 182.954 459.835 183.866 459.648 184.655C459.461 185.445 459.184 186.108 458.818 186.645C458.46 187.174 458.016 187.573 457.487 187.841C456.958 188.11 456.34 188.244 455.632 188.244C454.965 188.244 454.383 188.098 453.886 187.805C453.398 187.512 452.987 187.101 452.653 186.572C452.32 186.043 452.051 185.416 451.848 184.692C451.652 183.959 451.51 183.162 451.42 182.299V180.688C451.51 179.777 451.648 178.946 451.835 178.198C452.031 177.441 452.295 176.79 452.629 176.245C452.971 175.699 453.386 175.28 453.874 174.987C454.362 174.694 454.944 174.548 455.62 174.548C456.328 174.548 456.95 174.674 457.487 174.926C458.024 175.179 458.472 175.565 458.83 176.086C459.196 176.607 459.469 177.266 459.648 178.063C459.835 178.853 459.929 179.789 459.929 180.871ZM457.084 181.921V180.871C457.084 180.196 457.04 179.614 456.95 179.125C456.869 178.629 456.73 178.222 456.535 177.905C456.348 177.587 456.108 177.351 455.815 177.197C455.53 177.042 455.176 176.965 454.753 176.965C454.379 176.965 454.049 177.042 453.764 177.197C453.479 177.351 453.239 177.567 453.044 177.844C452.849 178.112 452.694 178.434 452.58 178.808C452.466 179.174 452.393 179.573 452.36 180.004V182.995C452.434 183.516 452.556 183.996 452.727 184.436C452.897 184.867 453.146 185.213 453.471 185.473C453.805 185.734 454.24 185.864 454.777 185.864C455.192 185.864 455.546 185.782 455.839 185.62C456.132 185.457 456.368 185.213 456.547 184.887C456.735 184.562 456.869 184.155 456.95 183.667C457.04 183.17 457.084 182.588 457.084 181.921ZM469.035 170.227L463.273 189.526H461.076L466.85 170.227H469.035ZM473.088 174.792H475.932L475.834 179.431C475.802 180.782 475.668 181.945 475.432 182.922C475.196 183.89 474.886 184.708 474.504 185.375C474.121 186.043 473.686 186.588 473.198 187.011C472.709 187.426 472.189 187.756 471.635 188H470.83V185.632L471.208 185.607C471.525 185.225 471.79 184.847 472.001 184.472C472.221 184.09 472.4 183.671 472.539 183.215C472.677 182.751 472.779 182.214 472.844 181.604C472.917 180.993 472.966 180.269 472.99 179.431L473.088 174.792ZM473.808 174.792H481.12V188H478.288V177.319H473.808V174.792ZM470.268 185.607H482.756V191.943H479.924V188H473.149V191.943H470.256L470.268 185.607ZM487.663 183.129L491.63 174.792H494.401V188H491.582V179.675L487.614 188H484.843V174.792H487.663V183.129ZM502.116 181.689H499.87V180.188H501.652C502.019 180.188 502.307 180.122 502.519 179.992C502.731 179.854 502.881 179.663 502.971 179.418C503.068 179.166 503.117 178.877 503.117 178.552C503.117 178.267 503.068 177.994 502.971 177.734C502.881 177.465 502.727 177.25 502.507 177.087C502.287 176.924 501.982 176.843 501.591 176.843C501.266 176.843 500.973 176.916 500.712 177.062C500.46 177.201 500.261 177.396 500.114 177.648C499.976 177.901 499.907 178.194 499.907 178.527H497.062C497.062 177.705 497.262 176.997 497.661 176.403C498.059 175.809 498.597 175.354 499.272 175.036C499.947 174.719 500.688 174.56 501.494 174.56C502.185 174.56 502.804 174.646 503.349 174.816C503.894 174.979 504.362 175.223 504.753 175.549C505.144 175.866 505.441 176.265 505.644 176.745C505.847 177.217 505.949 177.766 505.949 178.393C505.949 178.841 505.86 179.264 505.681 179.663C505.502 180.061 505.245 180.415 504.912 180.725C504.578 181.026 504.175 181.262 503.703 181.433C503.231 181.604 502.702 181.689 502.116 181.689ZM499.87 180.834H502.116C502.767 180.834 503.345 180.912 503.85 181.066C504.354 181.213 504.777 181.433 505.119 181.726C505.461 182.019 505.721 182.381 505.9 182.812C506.079 183.235 506.169 183.723 506.169 184.277C506.169 184.895 506.055 185.453 505.827 185.949C505.599 186.438 505.274 186.853 504.851 187.194C504.436 187.536 503.943 187.797 503.374 187.976C502.812 188.155 502.185 188.244 501.494 188.244C500.737 188.244 500.008 188.098 499.309 187.805C498.609 187.512 498.031 187.06 497.575 186.45C497.119 185.831 496.892 185.042 496.892 184.082H499.736C499.736 184.407 499.805 184.716 499.943 185.009C500.09 185.294 500.301 185.526 500.578 185.705C500.855 185.884 501.197 185.974 501.604 185.974C502.002 185.974 502.324 185.888 502.568 185.717C502.82 185.538 503.007 185.31 503.129 185.034C503.251 184.749 503.312 184.448 503.312 184.13C503.312 183.699 503.251 183.349 503.129 183.081C503.007 182.812 502.824 182.617 502.58 182.495C502.336 182.373 502.027 182.312 501.652 182.312H499.87V180.834ZM514.726 185.314V178.735C514.726 178.279 514.661 177.913 514.531 177.636C514.409 177.36 514.226 177.16 513.981 177.038C513.745 176.908 513.448 176.843 513.09 176.843C512.716 176.843 512.399 176.92 512.138 177.075C511.886 177.229 511.695 177.441 511.564 177.709C511.434 177.97 511.369 178.271 511.369 178.613H508.525C508.525 178.084 508.631 177.575 508.842 177.087C509.062 176.599 509.375 176.163 509.782 175.781C510.189 175.398 510.681 175.097 511.259 174.877C511.837 174.658 512.48 174.548 513.188 174.548C514.034 174.548 514.787 174.69 515.446 174.975C516.105 175.252 516.622 175.703 516.997 176.33C517.379 176.949 517.57 177.762 517.57 178.771V184.936C517.57 185.546 517.607 186.092 517.68 186.572C517.762 187.044 517.871 187.455 518.01 187.805V188H515.117C514.986 187.683 514.889 187.276 514.824 186.779C514.759 186.283 514.726 185.795 514.726 185.314ZM515.104 179.956L515.117 181.799H513.75C513.343 181.799 512.976 181.856 512.651 181.97C512.325 182.076 512.049 182.23 511.821 182.434C511.601 182.629 511.43 182.869 511.308 183.154C511.194 183.439 511.137 183.752 511.137 184.094C511.137 184.509 511.194 184.847 511.308 185.107C511.43 185.367 511.605 185.563 511.833 185.693C512.069 185.815 512.354 185.876 512.688 185.876C513.143 185.876 513.538 185.778 513.872 185.583C514.213 185.38 514.474 185.135 514.653 184.851C514.84 184.566 514.913 184.305 514.873 184.069L515.52 185.253C515.454 185.563 515.332 185.888 515.153 186.23C514.982 186.572 514.759 186.897 514.482 187.207C514.205 187.516 513.872 187.768 513.481 187.963C513.09 188.151 512.639 188.244 512.126 188.244C511.385 188.244 510.726 188.09 510.148 187.78C509.571 187.471 509.115 187.028 508.781 186.45C508.456 185.864 508.293 185.164 508.293 184.35C508.293 183.691 508.403 183.093 508.623 182.556C508.842 182.019 509.168 181.559 509.599 181.176C510.03 180.786 510.572 180.485 511.223 180.273C511.882 180.061 512.651 179.956 513.53 179.956H515.104ZM523.405 183.129L527.373 174.792H530.144V188H527.324V179.675L523.356 188H520.585V174.792H523.405V183.129ZM527.165 169.702H529.362C529.362 170.377 529.2 170.975 528.874 171.496C528.557 172.017 528.101 172.424 527.507 172.717C526.921 173.01 526.221 173.156 525.407 173.156C524.187 173.156 523.218 172.835 522.502 172.192C521.794 171.549 521.44 170.719 521.44 169.702H523.637C523.637 170.149 523.771 170.544 524.04 170.886C524.309 171.228 524.764 171.398 525.407 171.398C526.05 171.398 526.502 171.228 526.762 170.886C527.031 170.544 527.165 170.149 527.165 169.702ZM540.654 180.285V182.653H535.222V180.285H540.654ZM536.027 174.792V188H533.183V174.792H536.027ZM542.717 174.792V188H539.873V174.792H542.717ZM550.737 188.244C549.882 188.244 549.121 188.118 548.454 187.866C547.787 187.605 547.221 187.223 546.757 186.718C546.293 186.206 545.939 185.579 545.695 184.838C545.451 184.09 545.329 183.223 545.329 182.238V180.969C545.329 179.854 545.455 178.894 545.708 178.088C545.968 177.274 546.326 176.607 546.782 176.086C547.237 175.565 547.775 175.179 548.393 174.926C549.02 174.674 549.699 174.548 550.432 174.548C551.262 174.548 551.982 174.682 552.592 174.951C553.203 175.219 553.703 175.622 554.094 176.159C554.493 176.696 554.785 177.36 554.973 178.149C555.168 178.938 555.266 179.846 555.266 180.871V182.299H546.696V180.151H552.458V179.846C552.442 179.243 552.368 178.727 552.238 178.295C552.108 177.856 551.896 177.522 551.604 177.294C551.319 177.058 550.924 176.94 550.419 176.94C550.053 176.94 549.728 177.01 549.443 177.148C549.158 177.286 548.922 177.51 548.735 177.819C548.556 178.129 548.417 178.544 548.32 179.064C548.222 179.577 548.173 180.212 548.173 180.969V182.238C548.173 182.897 548.23 183.455 548.344 183.911C548.466 184.366 548.645 184.741 548.881 185.034C549.117 185.319 549.402 185.53 549.736 185.668C550.078 185.799 550.472 185.864 550.92 185.864C551.579 185.864 552.145 185.742 552.617 185.498C553.097 185.245 553.512 184.92 553.862 184.521L555.119 186.267C554.883 186.584 554.566 186.897 554.167 187.207C553.768 187.508 553.284 187.756 552.714 187.951C552.153 188.146 551.494 188.244 550.737 188.244ZM560.393 177.331V193.078H557.561V174.792H560.161L560.393 177.331ZM567.497 180.871V181.921C567.497 182.954 567.403 183.866 567.216 184.655C567.029 185.445 566.752 186.108 566.386 186.645C566.028 187.174 565.585 187.573 565.056 187.841C564.527 188.11 563.908 188.244 563.2 188.244C562.533 188.244 561.951 188.098 561.455 187.805C560.966 187.512 560.555 187.101 560.222 186.572C559.888 186.043 559.619 185.416 559.416 184.692C559.221 183.959 559.078 183.162 558.989 182.299V180.688C559.078 179.777 559.217 178.946 559.404 178.198C559.599 177.441 559.864 176.79 560.197 176.245C560.539 175.699 560.954 175.28 561.442 174.987C561.931 174.694 562.513 174.548 563.188 174.548C563.896 174.548 564.519 174.674 565.056 174.926C565.593 175.179 566.04 175.565 566.398 176.086C566.765 176.607 567.037 177.266 567.216 178.063C567.403 178.853 567.497 179.789 567.497 180.871ZM564.653 181.921V180.871C564.653 180.196 564.608 179.614 564.519 179.125C564.437 178.629 564.299 178.222 564.104 177.905C563.916 177.587 563.676 177.351 563.383 177.197C563.098 177.042 562.744 176.965 562.321 176.965C561.947 176.965 561.617 177.042 561.333 177.197C561.048 177.351 560.808 177.567 560.612 177.844C560.417 178.112 560.262 178.434 560.148 178.808C560.035 179.174 559.961 179.573 559.929 180.004V182.995C560.002 183.516 560.124 183.996 560.295 184.436C560.466 184.867 560.714 185.213 561.04 185.473C561.373 185.734 561.809 185.864 562.346 185.864C562.761 185.864 563.115 185.782 563.408 185.62C563.701 185.457 563.937 185.213 564.116 184.887C564.303 184.562 564.437 184.155 564.519 183.667C564.608 183.17 564.653 182.588 564.653 181.921ZM134.685 214.089V213.613C134.685 212.848 134.925 212.217 135.405 211.721C135.885 211.224 136.544 210.976 137.382 210.976C138.221 210.976 138.88 211.224 139.36 211.721C139.848 212.217 140.092 212.848 140.092 213.613V214.089C140.092 214.846 139.852 215.468 139.372 215.957C138.892 216.445 138.229 216.689 137.382 216.689C136.552 216.689 135.893 216.445 135.405 215.957C134.925 215.468 134.685 214.846 134.685 214.089ZM159.013 220.607V223H148.784V220.937L153.63 214.65C154.159 213.942 154.566 213.332 154.851 212.819C155.144 212.299 155.347 211.831 155.461 211.416C155.575 211 155.632 210.594 155.632 210.195C155.632 209.641 155.555 209.153 155.4 208.73C155.253 208.307 155.034 207.977 154.741 207.741C154.448 207.497 154.09 207.375 153.667 207.375C153.138 207.375 152.702 207.517 152.36 207.802C152.019 208.079 151.766 208.465 151.604 208.962C151.441 209.45 151.359 210.012 151.359 210.646H148.515C148.515 209.613 148.715 208.665 149.113 207.802C149.52 206.94 150.11 206.256 150.883 205.751C151.656 205.239 152.596 204.982 153.703 204.982C154.729 204.982 155.595 205.182 156.303 205.581C157.019 205.979 157.561 206.545 157.927 207.277C158.301 208.01 158.488 208.881 158.488 209.89C158.488 210.443 158.411 210.996 158.256 211.55C158.11 212.095 157.902 212.636 157.634 213.173C157.365 213.71 157.04 214.252 156.657 214.797C156.283 215.342 155.868 215.896 155.412 216.457L152.348 220.607H159.013ZM171.845 212.624V215.529C171.845 216.921 171.723 218.109 171.479 219.094C171.243 220.07 170.905 220.864 170.466 221.474C170.035 222.084 169.514 222.532 168.903 222.817C168.301 223.102 167.63 223.244 166.889 223.244C166.303 223.244 165.754 223.155 165.241 222.976C164.729 222.797 164.265 222.516 163.85 222.133C163.443 221.751 163.093 221.258 162.8 220.656C162.515 220.046 162.291 219.318 162.128 218.471C161.974 217.625 161.896 216.644 161.896 215.529V212.624C161.896 211.224 162.019 210.044 162.263 209.084C162.507 208.116 162.849 207.33 163.288 206.728C163.728 206.118 164.248 205.674 164.851 205.397C165.461 205.121 166.136 204.982 166.877 204.982C167.463 204.982 168.012 205.072 168.525 205.251C169.038 205.422 169.497 205.694 169.904 206.069C170.311 206.443 170.661 206.931 170.954 207.534C171.247 208.128 171.467 208.848 171.613 209.694C171.768 210.533 171.845 211.509 171.845 212.624ZM169.013 215.957V212.172C169.013 211.472 168.981 210.854 168.916 210.317C168.85 209.78 168.761 209.324 168.647 208.95C168.533 208.575 168.387 208.274 168.208 208.046C168.037 207.81 167.837 207.639 167.609 207.534C167.39 207.42 167.146 207.363 166.877 207.363C166.543 207.363 166.242 207.448 165.974 207.619C165.713 207.79 165.489 208.067 165.302 208.449C165.123 208.824 164.985 209.32 164.887 209.938C164.79 210.549 164.741 211.293 164.741 212.172V215.957C164.741 216.665 164.773 217.287 164.838 217.824C164.903 218.361 164.997 218.825 165.119 219.216C165.241 219.598 165.388 219.912 165.559 220.156C165.729 220.392 165.925 220.567 166.145 220.681C166.372 220.795 166.621 220.852 166.889 220.852C167.231 220.852 167.532 220.762 167.792 220.583C168.061 220.404 168.285 220.123 168.464 219.741C168.643 219.35 168.777 218.841 168.867 218.215C168.964 217.588 169.013 216.835 169.013 215.957ZM185.263 220.607V223H175.034V220.937L179.88 214.65C180.409 213.942 180.816 213.332 181.101 212.819C181.394 212.299 181.597 211.831 181.711 211.416C181.825 211 181.882 210.594 181.882 210.195C181.882 209.641 181.805 209.153 181.65 208.73C181.503 208.307 181.284 207.977 180.991 207.741C180.698 207.497 180.34 207.375 179.917 207.375C179.388 207.375 178.952 207.517 178.61 207.802C178.269 208.079 178.016 208.465 177.854 208.962C177.691 209.45 177.609 210.012 177.609 210.646H174.765C174.765 209.613 174.965 208.665 175.363 207.802C175.77 206.94 176.36 206.256 177.133 205.751C177.906 205.239 178.846 204.982 179.953 204.982C180.979 204.982 181.845 205.182 182.553 205.581C183.269 205.979 183.811 206.545 184.177 207.277C184.551 208.01 184.738 208.881 184.738 209.89C184.738 210.443 184.661 210.996 184.506 211.55C184.36 212.095 184.152 212.636 183.884 213.173C183.615 213.71 183.29 214.252 182.907 214.797C182.533 215.342 182.118 215.896 181.662 216.457L178.598 220.607H185.263ZM198.095 212.624V215.529C198.095 216.921 197.973 218.109 197.729 219.094C197.493 220.07 197.155 220.864 196.716 221.474C196.285 222.084 195.764 222.532 195.153 222.817C194.551 223.102 193.88 223.244 193.139 223.244C192.553 223.244 192.004 223.155 191.491 222.976C190.979 222.797 190.515 222.516 190.1 222.133C189.693 221.751 189.343 221.258 189.05 220.656C188.765 220.046 188.541 219.318 188.378 218.471C188.224 217.625 188.146 216.644 188.146 215.529V212.624C188.146 211.224 188.269 210.044 188.513 209.084C188.757 208.116 189.099 207.33 189.538 206.728C189.978 206.118 190.498 205.674 191.101 205.397C191.711 205.121 192.386 204.982 193.127 204.982C193.713 204.982 194.262 205.072 194.775 205.251C195.288 205.422 195.747 205.694 196.154 206.069C196.561 206.443 196.911 206.931 197.204 207.534C197.497 208.128 197.717 208.848 197.863 209.694C198.018 210.533 198.095 211.509 198.095 212.624ZM195.263 215.957V212.172C195.263 211.472 195.231 210.854 195.166 210.317C195.1 209.78 195.011 209.324 194.897 208.95C194.783 208.575 194.637 208.274 194.458 208.046C194.287 207.81 194.087 207.639 193.859 207.534C193.64 207.42 193.396 207.363 193.127 207.363C192.793 207.363 192.492 207.448 192.224 207.619C191.963 207.79 191.739 208.067 191.552 208.449C191.373 208.824 191.235 209.32 191.137 209.938C191.04 210.549 190.991 211.293 190.991 212.172V215.957C190.991 216.665 191.023 217.287 191.088 217.824C191.153 218.361 191.247 218.825 191.369 219.216C191.491 219.598 191.638 219.912 191.809 220.156C191.979 220.392 192.175 220.567 192.395 220.681C192.622 220.795 192.871 220.852 193.139 220.852C193.481 220.852 193.782 220.762 194.042 220.583C194.311 220.404 194.535 220.123 194.714 219.741C194.893 219.35 195.027 218.841 195.117 218.215C195.214 217.588 195.263 216.835 195.263 215.957ZM206.606 214.211V216.604H201.076V214.211H206.606ZM210.014 221.511C210.014 221.039 210.165 220.644 210.466 220.327C210.775 220.009 211.198 219.851 211.735 219.851C212.272 219.851 212.692 220.009 212.993 220.327C213.302 220.644 213.457 221.039 213.457 221.511C213.457 221.966 213.302 222.353 212.993 222.67C212.692 222.988 212.272 223.146 211.735 223.146C211.198 223.146 210.775 222.988 210.466 222.67C210.165 222.353 210.014 221.966 210.014 221.511ZM217.597 221.511C217.597 221.039 217.748 220.644 218.049 220.327C218.358 220.009 218.781 219.851 219.318 219.851C219.855 219.851 220.275 220.009 220.576 220.327C220.885 220.644 221.04 221.039 221.04 221.511C221.04 221.966 220.885 222.353 220.576 222.67C220.275 222.988 219.855 223.146 219.318 223.146C218.781 223.146 218.358 222.988 218.049 222.67C217.748 222.353 217.597 221.966 217.597 221.511ZM225.18 221.511C225.18 221.039 225.331 220.644 225.632 220.327C225.941 220.009 226.364 219.851 226.901 219.851C227.438 219.851 227.858 220.009 228.159 220.327C228.468 220.644 228.623 221.039 228.623 221.511C228.623 221.966 228.468 222.353 228.159 222.67C227.858 222.988 227.438 223.146 226.901 223.146C226.364 223.146 225.941 222.988 225.632 222.67C225.331 222.353 225.18 221.966 225.18 221.511ZM240.063 209.792V212.197H235.473V223H232.629V209.792H240.063ZM249.965 209.792V212.197H245.375V223H242.531V209.792H249.965ZM252.568 221.511C252.568 221.039 252.718 220.644 253.02 220.327C253.329 220.009 253.752 219.851 254.289 219.851C254.826 219.851 255.245 220.009 255.546 220.327C255.856 220.644 256.01 221.039 256.01 221.511C256.01 221.966 255.856 222.353 255.546 222.67C255.245 222.988 254.826 223.146 254.289 223.146C253.752 223.146 253.329 222.988 253.02 222.67C252.718 222.353 252.568 221.966 252.568 221.511ZM272.067 206.899H275.351C276.206 206.899 277.003 207.074 277.744 207.424C278.484 207.766 279.131 208.258 279.685 208.901C280.246 209.544 280.681 210.313 280.991 211.208C281.3 212.095 281.455 213.088 281.455 214.187C281.455 215.261 281.3 216.241 280.991 217.128C280.681 218.007 280.246 218.768 279.685 219.411C279.131 220.046 278.484 220.534 277.744 220.876C277.003 221.218 276.206 221.389 275.351 221.389H272.067C271.213 221.389 270.411 221.222 269.663 220.888C268.922 220.546 268.271 220.058 267.709 219.423C267.156 218.78 266.725 218.02 266.416 217.141C266.106 216.262 265.952 215.285 265.952 214.211C265.952 213.112 266.106 212.115 266.416 211.22C266.725 210.325 267.16 209.556 267.722 208.913C268.283 208.27 268.934 207.774 269.675 207.424C270.415 207.074 271.213 206.899 272.067 206.899ZM272.067 209.389C271.376 209.389 270.782 209.58 270.285 209.963C269.789 210.345 269.406 210.899 269.138 211.623C268.877 212.339 268.747 213.202 268.747 214.211C268.747 214.951 268.82 215.611 268.967 216.188C269.121 216.766 269.341 217.259 269.626 217.666C269.919 218.064 270.269 218.369 270.676 218.581C271.091 218.793 271.555 218.898 272.067 218.898H275.375C276.059 218.898 276.645 218.711 277.133 218.337C277.622 217.954 277.996 217.413 278.256 216.713C278.525 216.005 278.659 215.163 278.659 214.187C278.659 213.43 278.582 212.754 278.427 212.16C278.281 211.566 278.061 211.066 277.768 210.659C277.483 210.252 277.137 209.938 276.73 209.719C276.332 209.499 275.88 209.389 275.375 209.389H272.067ZM275.144 204.494V223.732H272.299V204.494H275.144ZM287.341 212.331V228.078H284.509V209.792H287.109L287.341 212.331ZM294.445 215.871V216.921C294.445 217.954 294.352 218.866 294.165 219.655C293.977 220.445 293.701 221.108 293.334 221.645C292.976 222.174 292.533 222.573 292.004 222.841C291.475 223.11 290.856 223.244 290.148 223.244C289.481 223.244 288.899 223.098 288.403 222.805C287.915 222.512 287.504 222.101 287.17 221.572C286.836 221.043 286.568 220.416 286.364 219.692C286.169 218.959 286.027 218.162 285.937 217.299V215.688C286.027 214.777 286.165 213.946 286.352 213.198C286.547 212.441 286.812 211.79 287.146 211.245C287.487 210.699 287.902 210.28 288.391 209.987C288.879 209.694 289.461 209.548 290.136 209.548C290.844 209.548 291.467 209.674 292.004 209.926C292.541 210.179 292.989 210.565 293.347 211.086C293.713 211.607 293.986 212.266 294.165 213.063C294.352 213.853 294.445 214.789 294.445 215.871ZM291.601 216.921V215.871C291.601 215.196 291.556 214.614 291.467 214.125C291.385 213.629 291.247 213.222 291.052 212.905C290.865 212.587 290.625 212.351 290.332 212.197C290.047 212.042 289.693 211.965 289.27 211.965C288.895 211.965 288.566 212.042 288.281 212.197C287.996 212.351 287.756 212.567 287.561 212.844C287.365 213.112 287.211 213.434 287.097 213.808C286.983 214.174 286.91 214.573 286.877 215.004V217.995C286.95 218.516 287.072 218.996 287.243 219.436C287.414 219.867 287.662 220.213 287.988 220.473C288.321 220.734 288.757 220.864 289.294 220.864C289.709 220.864 290.063 220.782 290.356 220.62C290.649 220.457 290.885 220.213 291.064 219.887C291.251 219.562 291.385 219.155 291.467 218.667C291.556 218.17 291.601 217.588 291.601 216.921ZM300.393 218.129L304.36 209.792H307.131V223H304.311V214.675L300.344 223H297.573V209.792H300.393V218.129ZM318.107 209.792V212.197H312.797V209.792H318.107ZM320.366 209.792V223H317.534V209.792H320.366ZM312.102 209.792H314.921L314.604 216.335C314.555 217.303 314.466 218.158 314.335 218.898C314.213 219.631 314.047 220.257 313.835 220.778C313.623 221.299 313.367 221.722 313.066 222.048C312.765 222.373 312.415 222.613 312.016 222.768C311.625 222.923 311.182 223 310.686 223H309.831L309.819 220.534L310.222 220.485C310.466 220.461 310.677 220.384 310.856 220.253C311.035 220.123 311.186 219.932 311.308 219.68C311.43 219.427 311.528 219.106 311.601 218.715C311.682 218.317 311.743 217.849 311.784 217.312C311.833 216.766 311.87 216.14 311.894 215.432L312.102 209.792ZM330.073 220.314V213.735C330.073 213.279 330.008 212.913 329.877 212.636C329.755 212.36 329.572 212.16 329.328 212.038C329.092 211.908 328.795 211.843 328.437 211.843C328.063 211.843 327.745 211.92 327.485 212.075C327.233 212.229 327.041 212.441 326.911 212.709C326.781 212.97 326.716 213.271 326.716 213.613H323.872C323.872 213.084 323.977 212.575 324.189 212.087C324.409 211.599 324.722 211.163 325.129 210.781C325.536 210.398 326.028 210.097 326.606 209.877C327.184 209.658 327.827 209.548 328.535 209.548C329.381 209.548 330.134 209.69 330.793 209.975C331.452 210.252 331.969 210.703 332.343 211.33C332.726 211.949 332.917 212.762 332.917 213.771V219.936C332.917 220.546 332.954 221.092 333.027 221.572C333.108 222.044 333.218 222.455 333.356 222.805V223H330.463C330.333 222.683 330.236 222.276 330.17 221.779C330.105 221.283 330.073 220.795 330.073 220.314ZM330.451 214.956L330.463 216.799H329.096C328.689 216.799 328.323 216.856 327.998 216.97C327.672 217.076 327.395 217.23 327.167 217.434C326.948 217.629 326.777 217.869 326.655 218.154C326.541 218.439 326.484 218.752 326.484 219.094C326.484 219.509 326.541 219.847 326.655 220.107C326.777 220.367 326.952 220.563 327.18 220.693C327.416 220.815 327.701 220.876 328.034 220.876C328.49 220.876 328.885 220.778 329.218 220.583C329.56 220.38 329.82 220.135 330 219.851C330.187 219.566 330.26 219.305 330.219 219.069L330.866 220.253C330.801 220.563 330.679 220.888 330.5 221.23C330.329 221.572 330.105 221.897 329.829 222.207C329.552 222.516 329.218 222.768 328.828 222.963C328.437 223.151 327.985 223.244 327.473 223.244C326.732 223.244 326.073 223.09 325.495 222.78C324.917 222.471 324.462 222.028 324.128 221.45C323.802 220.864 323.64 220.164 323.64 219.35C323.64 218.691 323.75 218.093 323.969 217.556C324.189 217.019 324.514 216.559 324.946 216.176C325.377 215.786 325.918 215.485 326.569 215.273C327.229 215.061 327.998 214.956 328.876 214.956H330.451ZM344.028 215.285V217.653H338.596V215.285H344.028ZM339.401 209.792V223H336.557V209.792H339.401ZM346.091 209.792V223H343.247V209.792H346.091ZM354.37 220.864C354.736 220.864 355.061 220.786 355.346 220.632C355.639 220.477 355.871 220.237 356.042 219.912C356.213 219.578 356.306 219.147 356.323 218.618H358.996C358.98 219.554 358.764 220.371 358.349 221.071C357.934 221.763 357.381 222.3 356.689 222.683C356.005 223.057 355.244 223.244 354.406 223.244C353.535 223.244 352.775 223.106 352.124 222.829C351.481 222.544 350.948 222.133 350.524 221.596C350.101 221.059 349.784 220.408 349.572 219.643C349.369 218.87 349.267 217.987 349.267 216.994V215.798C349.267 214.813 349.369 213.934 349.572 213.161C349.784 212.388 350.101 211.733 350.524 211.196C350.948 210.659 351.481 210.252 352.124 209.975C352.766 209.69 353.523 209.548 354.394 209.548C355.322 209.548 356.123 209.743 356.799 210.134C357.482 210.516 358.015 211.078 358.398 211.818C358.78 212.559 358.98 213.466 358.996 214.541H356.323C356.306 213.971 356.221 213.495 356.066 213.112C355.912 212.722 355.692 212.429 355.407 212.233C355.131 212.038 354.781 211.94 354.357 211.94C353.894 211.94 353.511 212.03 353.21 212.209C352.917 212.38 352.689 212.632 352.526 212.966C352.372 213.299 352.262 213.706 352.197 214.187C352.14 214.659 352.111 215.196 352.111 215.798V216.994C352.111 217.613 352.14 218.162 352.197 218.642C352.254 219.114 352.36 219.517 352.514 219.851C352.677 220.184 352.909 220.437 353.21 220.607C353.511 220.778 353.898 220.864 354.37 220.864ZM368.532 205.227L362.771 224.526H360.573L366.347 205.227H368.532ZM371.391 205.227H374.345V210.732C374.345 211.57 374.439 212.225 374.626 212.697C374.821 213.169 375.114 213.503 375.505 213.698C375.896 213.885 376.384 213.979 376.97 213.979C377.279 213.979 377.604 213.963 377.946 213.93C378.296 213.898 378.646 213.853 378.996 213.796C379.346 213.731 379.684 213.658 380.009 213.576C380.335 213.487 380.624 213.393 380.876 213.295V215.773C380.624 215.871 380.343 215.965 380.034 216.054C379.724 216.144 379.399 216.221 379.057 216.286C378.723 216.343 378.378 216.388 378.02 216.42C377.67 216.445 377.32 216.457 376.97 216.457C375.83 216.457 374.842 216.262 374.003 215.871C373.173 215.48 372.53 214.866 372.075 214.028C371.619 213.181 371.391 212.083 371.391 210.732V205.227ZM380.241 205.227H383.195V223H380.241V205.227ZM393.11 220.314V213.735C393.11 213.279 393.045 212.913 392.915 212.636C392.792 212.36 392.609 212.16 392.365 212.038C392.129 211.908 391.832 211.843 391.474 211.843C391.1 211.843 390.782 211.92 390.522 212.075C390.27 212.229 390.078 212.441 389.948 212.709C389.818 212.97 389.753 213.271 389.753 213.613H386.909C386.909 213.084 387.014 212.575 387.226 212.087C387.446 211.599 387.759 211.163 388.166 210.781C388.573 210.398 389.065 210.097 389.643 209.877C390.221 209.658 390.864 209.548 391.572 209.548C392.418 209.548 393.171 209.69 393.83 209.975C394.489 210.252 395.006 210.703 395.38 211.33C395.763 211.949 395.954 212.762 395.954 213.771V219.936C395.954 220.546 395.991 221.092 396.064 221.572C396.145 222.044 396.255 222.455 396.394 222.805V223H393.5C393.37 222.683 393.273 222.276 393.208 221.779C393.142 221.283 393.11 220.795 393.11 220.314ZM393.488 214.956L393.5 216.799H392.133C391.726 216.799 391.36 216.856 391.035 216.97C390.709 217.076 390.432 217.23 390.205 217.434C389.985 217.629 389.814 217.869 389.692 218.154C389.578 218.439 389.521 218.752 389.521 219.094C389.521 219.509 389.578 219.847 389.692 220.107C389.814 220.367 389.989 220.563 390.217 220.693C390.453 220.815 390.738 220.876 391.071 220.876C391.527 220.876 391.922 220.778 392.255 220.583C392.597 220.38 392.858 220.135 393.037 219.851C393.224 219.566 393.297 219.305 393.256 219.069L393.903 220.253C393.838 220.563 393.716 220.888 393.537 221.23C393.366 221.572 393.142 221.897 392.866 222.207C392.589 222.516 392.255 222.768 391.865 222.963C391.474 223.151 391.022 223.244 390.51 223.244C389.769 223.244 389.11 223.09 388.532 222.78C387.954 222.471 387.499 222.028 387.165 221.45C386.84 220.864 386.677 220.164 386.677 219.35C386.677 218.691 386.787 218.093 387.006 217.556C387.226 217.019 387.552 216.559 387.983 216.176C388.414 215.786 388.955 215.485 389.606 215.273C390.266 215.061 391.035 214.956 391.914 214.956H393.488ZM404.184 220.864C404.55 220.864 404.876 220.786 405.161 220.632C405.454 220.477 405.686 220.237 405.856 219.912C406.027 219.578 406.121 219.147 406.137 218.618H408.811C408.794 219.554 408.579 220.371 408.164 221.071C407.749 221.763 407.195 222.3 406.503 222.683C405.82 223.057 405.059 223.244 404.221 223.244C403.35 223.244 402.589 223.106 401.938 222.829C401.295 222.544 400.762 222.133 400.339 221.596C399.916 221.059 399.598 220.408 399.387 219.643C399.183 218.87 399.082 217.987 399.082 216.994V215.798C399.082 214.813 399.183 213.934 399.387 213.161C399.598 212.388 399.916 211.733 400.339 211.196C400.762 210.659 401.295 210.252 401.938 209.975C402.581 209.69 403.338 209.548 404.208 209.548C405.136 209.548 405.938 209.743 406.613 210.134C407.297 210.516 407.83 211.078 408.212 211.818C408.595 212.559 408.794 213.466 408.811 214.541H406.137C406.121 213.971 406.035 213.495 405.881 213.112C405.726 212.722 405.507 212.429 405.222 212.233C404.945 212.038 404.595 211.94 404.172 211.94C403.708 211.94 403.326 212.03 403.024 212.209C402.731 212.38 402.504 212.632 402.341 212.966C402.186 213.299 402.076 213.706 402.011 214.187C401.954 214.659 401.926 215.196 401.926 215.798V216.994C401.926 217.613 401.954 218.162 402.011 218.642C402.068 219.114 402.174 219.517 402.329 219.851C402.491 220.184 402.723 220.437 403.024 220.607C403.326 220.778 403.712 220.864 404.184 220.864ZM417.126 209.792V223H414.27V209.792H417.126ZM420.617 209.792V212.16H410.815V209.792H420.617ZM430.874 215.285V217.653H425.441V215.285H430.874ZM426.247 209.792V223H423.403V209.792H426.247ZM432.937 209.792V223H430.092V209.792H432.937ZM438.664 213.967H441.801C442.786 213.967 443.62 214.158 444.304 214.541C444.987 214.923 445.504 215.456 445.854 216.14C446.212 216.815 446.391 217.592 446.391 218.471C446.391 219.114 446.289 219.712 446.086 220.266C445.882 220.819 445.585 221.299 445.195 221.706C444.804 222.113 444.324 222.43 443.754 222.658C443.193 222.886 442.542 223 441.801 223H436.735V209.792H439.592V220.62H441.801C442.233 220.62 442.574 220.518 442.827 220.314C443.087 220.111 443.27 219.851 443.376 219.533C443.49 219.216 443.547 218.874 443.547 218.508C443.547 218.142 443.49 217.796 443.376 217.47C443.27 217.137 443.087 216.868 442.827 216.665C442.574 216.453 442.233 216.347 441.801 216.347H438.664V213.967ZM450.92 209.792V223H448.076V209.792H450.92ZM459.907 223.244C459.052 223.244 458.291 223.118 457.624 222.866C456.957 222.605 456.391 222.223 455.927 221.718C455.463 221.206 455.109 220.579 454.865 219.838C454.621 219.09 454.499 218.223 454.499 217.238V215.969C454.499 214.854 454.625 213.894 454.877 213.088C455.138 212.274 455.496 211.607 455.952 211.086C456.407 210.565 456.944 210.179 457.563 209.926C458.19 209.674 458.869 209.548 459.602 209.548C460.432 209.548 461.152 209.682 461.762 209.951C462.373 210.219 462.873 210.622 463.264 211.159C463.662 211.696 463.955 212.36 464.143 213.149C464.338 213.938 464.436 214.846 464.436 215.871V217.299H455.866V215.151H461.628V214.846C461.612 214.243 461.538 213.727 461.408 213.295C461.278 212.856 461.066 212.522 460.773 212.294C460.489 212.058 460.094 211.94 459.589 211.94C459.223 211.94 458.898 212.01 458.613 212.148C458.328 212.286 458.092 212.51 457.905 212.819C457.726 213.129 457.587 213.544 457.49 214.064C457.392 214.577 457.343 215.212 457.343 215.969V217.238C457.343 217.897 457.4 218.455 457.514 218.911C457.636 219.366 457.815 219.741 458.051 220.034C458.287 220.319 458.572 220.53 458.906 220.668C459.248 220.799 459.642 220.864 460.09 220.864C460.749 220.864 461.315 220.742 461.787 220.498C462.267 220.245 462.682 219.92 463.032 219.521L464.289 221.267C464.053 221.584 463.736 221.897 463.337 222.207C462.938 222.508 462.454 222.756 461.884 222.951C461.323 223.146 460.664 223.244 459.907 223.244ZM481.115 209.792V212.197H476.037V209.792H481.115ZM476.672 209.792V223H473.828V209.792H476.672ZM483.386 209.792V223H480.529V209.792H483.386ZM489.797 212.331V228.078H486.965V209.792H489.565L489.797 212.331ZM496.901 215.871V216.921C496.901 217.954 496.808 218.866 496.621 219.655C496.433 220.445 496.157 221.108 495.791 221.645C495.432 222.174 494.989 222.573 494.46 222.841C493.931 223.11 493.312 223.244 492.604 223.244C491.937 223.244 491.355 223.098 490.859 222.805C490.371 222.512 489.96 222.101 489.626 221.572C489.292 221.043 489.024 220.416 488.82 219.692C488.625 218.959 488.483 218.162 488.393 217.299V215.688C488.483 214.777 488.621 213.946 488.808 213.198C489.003 212.441 489.268 211.79 489.602 211.245C489.943 210.699 490.358 210.28 490.847 209.987C491.335 209.694 491.917 209.548 492.592 209.548C493.3 209.548 493.923 209.674 494.46 209.926C494.997 210.179 495.445 210.565 495.803 211.086C496.169 211.607 496.442 212.266 496.621 213.063C496.808 213.853 496.901 214.789 496.901 215.871ZM494.057 216.921V215.871C494.057 215.196 494.012 214.614 493.923 214.125C493.841 213.629 493.703 213.222 493.508 212.905C493.321 212.587 493.081 212.351 492.788 212.197C492.503 212.042 492.149 211.965 491.726 211.965C491.351 211.965 491.022 212.042 490.737 212.197C490.452 212.351 490.212 212.567 490.017 212.844C489.821 213.112 489.667 213.434 489.553 213.808C489.439 214.174 489.366 214.573 489.333 215.004V217.995C489.406 218.516 489.528 218.996 489.699 219.436C489.87 219.867 490.118 220.213 490.444 220.473C490.778 220.734 491.213 220.864 491.75 220.864C492.165 220.864 492.519 220.782 492.812 220.62C493.105 220.457 493.341 220.213 493.52 219.887C493.707 219.562 493.841 219.155 493.923 218.667C494.012 218.17 494.057 217.588 494.057 216.921ZM499.516 216.933V215.871C499.516 214.846 499.642 213.938 499.895 213.149C500.147 212.36 500.505 211.7 500.969 211.171C501.441 210.634 501.994 210.231 502.629 209.963C503.264 209.686 503.964 209.548 504.729 209.548C505.51 209.548 506.218 209.686 506.853 209.963C507.495 210.231 508.049 210.634 508.513 211.171C508.985 211.7 509.347 212.36 509.599 213.149C509.851 213.938 509.978 214.846 509.978 215.871V216.933C509.978 217.958 509.851 218.866 509.599 219.655C509.347 220.445 508.985 221.108 508.513 221.645C508.049 222.174 507.5 222.573 506.865 222.841C506.23 223.11 505.526 223.244 504.753 223.244C503.988 223.244 503.284 223.11 502.641 222.841C502.006 222.573 501.453 222.174 500.981 221.645C500.509 221.108 500.147 220.445 499.895 219.655C499.642 218.866 499.516 217.958 499.516 216.933ZM502.36 215.871V216.933C502.36 217.592 502.417 218.17 502.531 218.667C502.645 219.155 502.808 219.562 503.02 219.887C503.231 220.213 503.483 220.457 503.776 220.62C504.069 220.782 504.395 220.864 504.753 220.864C505.152 220.864 505.498 220.782 505.791 220.62C506.092 220.457 506.34 220.213 506.535 219.887C506.739 219.562 506.889 219.155 506.987 218.667C507.084 218.17 507.133 217.592 507.133 216.933V215.871C507.133 215.22 507.076 214.65 506.962 214.162C506.848 213.666 506.686 213.255 506.474 212.929C506.263 212.596 506.006 212.347 505.705 212.185C505.412 212.022 505.087 211.94 504.729 211.94C504.379 211.94 504.057 212.022 503.764 212.185C503.479 212.347 503.231 212.596 503.02 212.929C502.808 213.255 502.645 213.666 502.531 214.162C502.417 214.65 502.36 215.22 502.36 215.871ZM518.11 223.244C517.255 223.244 516.494 223.118 515.827 222.866C515.16 222.605 514.594 222.223 514.13 221.718C513.667 221.206 513.312 220.579 513.068 219.838C512.824 219.09 512.702 218.223 512.702 217.238V215.969C512.702 214.854 512.828 213.894 513.081 213.088C513.341 212.274 513.699 211.607 514.155 211.086C514.611 210.565 515.148 210.179 515.766 209.926C516.393 209.674 517.072 209.548 517.805 209.548C518.635 209.548 519.355 209.682 519.965 209.951C520.576 210.219 521.076 210.622 521.467 211.159C521.866 211.696 522.159 212.36 522.346 213.149C522.541 213.938 522.639 214.846 522.639 215.871V217.299H514.069V215.151H519.831V214.846C519.815 214.243 519.742 213.727 519.611 213.295C519.481 212.856 519.27 212.522 518.977 212.294C518.692 212.058 518.297 211.94 517.792 211.94C517.426 211.94 517.101 212.01 516.816 212.148C516.531 212.286 516.295 212.51 516.108 212.819C515.929 213.129 515.791 213.544 515.693 214.064C515.595 214.577 515.546 215.212 515.546 215.969V217.238C515.546 217.897 515.603 218.455 515.717 218.911C515.839 219.366 516.018 219.741 516.254 220.034C516.49 220.319 516.775 220.53 517.109 220.668C517.451 220.799 517.845 220.864 518.293 220.864C518.952 220.864 519.518 220.742 519.99 220.498C520.47 220.245 520.885 219.92 521.235 219.521L522.492 221.267C522.256 221.584 521.939 221.897 521.54 222.207C521.141 222.508 520.657 222.756 520.087 222.951C519.526 223.146 518.867 223.244 518.11 223.244ZM528.623 209.792V223H525.766V209.792H528.623ZM535.837 209.792L530.808 217.775H527.951L527.561 215.041H529.562L532.321 209.792H535.837ZM532.431 223L529.416 217.263L531.662 215.578L536.13 223H532.431ZM543.981 209.792V223H541.125V209.792H543.981ZM547.473 209.792V212.16H537.67V209.792H547.473ZM552.297 213.967H555.434C556.419 213.967 557.253 214.158 557.937 214.541C558.62 214.923 559.137 215.456 559.487 216.14C559.845 216.815 560.024 217.592 560.024 218.471C560.024 219.114 559.922 219.712 559.719 220.266C559.515 220.819 559.218 221.299 558.828 221.706C558.437 222.113 557.957 222.43 557.387 222.658C556.826 222.886 556.175 223 555.434 223H550.368V209.792H553.225V220.62H555.434C555.865 220.62 556.207 220.518 556.459 220.314C556.72 220.111 556.903 219.851 557.009 219.533C557.123 219.216 557.18 218.874 557.18 218.508C557.18 218.142 557.123 217.796 557.009 217.47C556.903 217.137 556.72 216.868 556.459 216.665C556.207 216.453 555.865 216.347 555.434 216.347H552.297V213.967ZM564.553 209.792V223H561.708V209.792H564.553Z" fill="black"/>
<defs>
<filter id="filter0_d_217_54" x="0.253662" y="23.3522" width="663.805" height="296.676" filterUnits="userSpaceOnUse" color-interpolation-filters="sRGB">
<feFlood flood-opacity="0" result="BackgroundImageFix"/>
<feColorMatrix in="SourceAlpha" type="matrix" values="0 0 0 0 0 0 0 0 0 0 0 0 0 0 0 0 0 0 127 0" result="hardAlpha"/>
<feOffset dx="5" dy="4"/>
<feGaussianBlur stdDeviation="5"/>
<feComposite in2="hardAlpha" operator="out"/>
<feColorMatrix type="matrix" values="0 0 0 0 0.500244 0 0 0 0 0.327072 0 0 0 0 0.436444 0 0 0 0.56 0"/>
<feBlend mode="normal" in2="BackgroundImageFix" result="effect1_dropShadow_217_54"/>
<feBlend mode="normal" in="SourceGraphic" in2="effect1_dropShadow_217_54" result="shape"/>
</filter>
</defs>
</svg>
