<svg width="1227" height="1258" viewBox="0 0 1227 1258" fill="none" xmlns="http://www.w3.org/2000/svg">
<path d="M898.162 121.77C899.692 119.472 899.069 116.368 896.771 114.838C894.472 113.307 891.368 113.93 889.838 116.229L898.162 121.77ZM492 615L489.843 610.489L492 615ZM889.838 116.229C828.719 208.035 824.722 294.074 830.577 370.506C832.038 389.574 834.114 408.076 836.066 425.863C838.021 443.686 839.85 460.777 840.845 477.193C842.838 510.06 841.449 539.711 831.329 566.216L840.671 569.783C851.551 541.287 852.849 509.938 850.827 476.587C849.814 459.894 847.959 442.571 846.006 424.772C844.05 406.938 841.993 388.613 840.548 369.742C834.778 294.425 838.781 210.964 898.162 121.77L889.838 116.229ZM831.329 566.216C821.562 591.796 802.458 604.7 777.006 610.385C751.218 616.145 719.317 614.369 684.983 610.488C651.003 606.648 614.48 600.714 580.838 598.679C547.163 596.642 515.156 598.387 489.843 610.489L494.157 619.511C517.073 608.555 546.929 606.646 580.235 608.661C613.573 610.678 649.147 616.501 683.86 620.425C718.218 624.309 751.607 626.304 779.185 620.145C807.099 613.91 829.438 599.204 840.671 569.783L831.329 566.216ZM489.843 610.489C457.201 626.095 442.389 656.172 437.321 693.369C432.275 730.41 436.732 775.432 443.345 822.501C449.997 869.847 458.828 919.256 462.938 966.1C467.048 1012.93 466.332 1056.33 454.272 1091.37L463.728 1094.63C476.493 1057.54 477.041 1012.41 472.9 965.226C468.76 918.047 459.826 867.927 453.248 821.109C446.631 774.014 442.391 730.238 447.23 694.719C452.048 659.358 465.703 633.114 494.157 619.511L489.843 610.489ZM454.272 1091.37C448.512 1108.11 438.049 1119.05 424.002 1125.8C409.774 1132.64 391.624 1135.29 370.558 1134.78C328.365 1133.76 276.284 1120.12 224.855 1104.99C173.79 1089.97 123.241 1073.42 85.1579 1067.22C66.1808 1064.13 49.4598 1063.44 37.021 1067.3C30.6901 1069.26 25.2483 1072.47 21.2617 1077.32C17.2613 1082.2 15.0415 1088.35 14.5131 1095.64L24.4869 1096.36C24.896 1090.72 26.5422 1086.65 28.9909 1083.67C31.4534 1080.67 35.0436 1078.38 39.9823 1076.85C50.0828 1073.72 64.8512 1074.04 83.5499 1077.09C120.818 1083.16 170.366 1099.39 222.033 1114.59C273.334 1129.68 326.62 1143.72 370.315 1144.78C392.193 1145.31 412.119 1142.61 428.334 1134.81C444.729 1126.93 457.076 1113.96 463.728 1094.63L454.272 1091.37Z" fill="#80536F"/>
<path fill-rule="evenodd" clip-rule="evenodd" d="M905.57 88.9974C911.302 65.6379 937.184 82.6994 918.255 97.2328C941.23 90.6478 939.542 121.531 917.45 112.335C934.863 129.024 907.291 142.846 904.129 119.116C898.397 142.476 872.6 125.584 891.444 110.881C868.386 117.721 870.075 86.8372 892.249 95.7785C874.754 79.345 902.408 65.2677 905.57 88.9974ZM903.215 101.056C904.902 100.197 907.108 100.778 907.969 102.469C908.83 104.16 908.087 106.455 906.401 107.313C904.715 108.171 902.591 107.336 901.73 105.645C900.869 103.954 901.529 101.914 903.215 101.056Z" fill="#80536F"/>
<path fill-rule="evenodd" clip-rule="evenodd" d="M1201.98 592.542C1205.69 577.413 1222.45 588.463 1210.19 597.875C1225.07 593.611 1223.98 613.612 1209.67 607.656C1220.95 618.464 1203.09 627.416 1201.05 612.048C1197.33 627.176 1180.63 616.236 1192.83 606.714C1177.9 611.144 1178.99 591.143 1193.35 596.933C1182.02 586.29 1199.93 577.173 1201.98 592.542ZM1200.45 600.351C1201.55 599.795 1202.98 600.171 1203.53 601.266C1204.09 602.362 1203.61 603.848 1202.52 604.404C1201.43 604.96 1200.05 604.418 1199.49 603.323C1198.93 602.228 1199.36 600.907 1200.45 600.351Z" fill="#80536F"/>
<path fill-rule="evenodd" clip-rule="evenodd" d="M1172.33 60.0448C1180.7 25.9315 1218.49 50.8475 1190.85 72.0715C1224.4 62.455 1221.94 107.556 1189.68 94.1262C1215.1 118.498 1174.84 138.683 1170.22 104.029C1161.85 138.143 1124.18 113.474 1151.7 92.0027C1118.02 101.992 1120.49 56.8902 1152.87 69.9477C1127.32 45.9488 1167.71 25.3908 1172.33 60.0448ZM1168.89 77.6544C1171.35 76.4008 1174.57 77.2485 1175.83 79.7181C1177.09 82.1877 1176 85.5387 1173.54 86.7923C1171.08 88.0458 1167.98 86.8258 1166.72 84.3562C1165.46 81.8866 1166.43 78.9079 1168.89 77.6544Z" fill="#80536F"/>
<path fill-rule="evenodd" clip-rule="evenodd" d="M486.003 135.066C473.899 132.543 470.707 147.014 484.386 142.132C472.426 150.391 486.072 156.2 491.051 144.981C491.091 155.817 507.93 147.154 499.229 140.818C511.334 143.341 514.563 128.942 500.847 133.752C512.947 125.512 499.301 119.703 494.182 130.903C494.282 120.086 477.303 128.729 486.003 135.066ZM492.01 136.622C490.974 137.149 490.335 138.198 490.701 138.917C491.067 139.635 492.328 139.808 493.363 139.281C494.398 138.754 494.898 137.685 494.532 136.967C494.166 136.248 493.045 136.095 492.01 136.622Z" fill="#80536F"/>
<path fill-rule="evenodd" clip-rule="evenodd" d="M471.939 579.353C479.327 536.88 527.565 564.619 495.565 592.722C535.747 578.416 536.484 633.928 495.962 619.864C529.047 647.86 481.544 675.633 473.023 633.467C465.635 675.941 417.571 648.495 449.397 620.099C409.098 634.87 408.362 579.358 449 592.955C415.799 565.425 463.418 537.187 471.939 579.353ZM469.202 601.212C472.106 599.49 476.112 600.289 477.853 603.225C479.593 606.16 478.547 610.352 475.643 612.074C472.74 613.796 468.85 612.531 467.109 609.596C465.368 606.66 466.299 602.934 469.202 601.212Z" fill="#80536F"/>
<path fill-rule="evenodd" clip-rule="evenodd" d="M852.639 1105.7C856.829 1040.43 928.54 1090.77 887.729 1130.02C942.024 1113.51 951.128 1200.33 892.233 1172.47C942.72 1221.01 880.113 1257.48 862.028 1190.38C857.838 1255.65 786.415 1205.79 826.938 1166.06C772.548 1183.28 763.444 1096.47 822.435 1123.61C771.852 1075.78 834.554 1038.6 852.639 1105.7ZM851.978 1139.44C855.802 1137.18 861.538 1139.01 864.407 1143.85C867.276 1148.68 866.417 1155.08 862.594 1157.35C858.771 1159.61 853.129 1157.07 850.26 1152.23C847.391 1147.4 848.155 1141.71 851.978 1139.44Z" fill="#80536F"/>
<path fill-rule="evenodd" clip-rule="evenodd" d="M102.548 51.7822C105.775 1.52001 161 40.2875 129.572 70.5081C171.385 57.8 178.396 124.655 133.04 103.202C171.921 140.581 123.706 168.669 109.779 116.995C106.552 167.258 51.5482 128.863 82.7558 98.2699C40.8688 111.525 33.8582 44.6704 79.2875 65.5758C40.3329 28.7438 88.621 0.10893 102.548 51.7822ZM102.039 77.7695C104.984 76.0233 109.401 77.4328 111.611 81.1588C113.82 84.8848 113.159 89.8098 110.215 91.5559C107.27 93.3019 102.926 91.3452 100.716 87.6192C98.5069 83.8932 99.095 79.5154 102.039 77.7695Z" fill="#80536F"/>
<path fill-rule="evenodd" clip-rule="evenodd" d="M61.9978 1034.55C63.2857 995.364 110.235 1014.25 84.9647 1043.6C119.347 1025.64 127.023 1075.55 88.7516 1068C122.085 1089.03 82.8124 1120.05 69.8114 1083.15C68.5237 1122.33 21.7684 1103.69 46.8445 1074.09C12.4168 1092.49 4.74069 1042.59 43.0576 1049.7C9.67784 1029.1 48.9968 997.651 61.9978 1034.55ZM62.295 1054.58C64.6927 1052.66 68.4013 1052.88 70.34 1055.3C72.2786 1057.73 71.8659 1061.63 69.4682 1063.55C67.0709 1065.47 63.4078 1064.82 61.4691 1062.4C59.5305 1059.97 59.8977 1056.5 62.295 1054.58Z" fill="#80536F"/>
</svg>
