<svg width="309" height="239" viewBox="0 0 309 239" fill="none" xmlns="http://www.w3.org/2000/svg">
<path fill-rule="evenodd" clip-rule="evenodd" d="M169.174 56.4371C214.71 -44.564 336.389 8.60674 228.894 81.971C351.792 38.8658 321.932 168.365 214.4 145.282C292.689 202.706 141.15 279.036 141.113 182.589C95.5768 283.591 -25.7752 231.064 81.3921 157.056C-42.1061 201.278 -12.2457 71.7772 95.8865 93.7435C16.9962 37.4364 169.136 -40.0097 169.174 56.4371ZM148.78 108.161C158.057 103.438 169.028 104.339 172.305 110.777C175.582 117.215 170.183 127.26 160.906 131.982C151.629 136.704 141.257 134.688 137.98 128.25C134.703 121.812 139.503 112.883 148.78 108.161Z" fill="#80536F"/>
</svg>
