<svg width="555" height="242" viewBox="0 0 555 242" fill="none" xmlns="http://www.w3.org/2000/svg">
<g filter="url(#filter0_d_193_274)">
<rect x="5" y="37" width="545" height="196" rx="98" fill="#DBB0CB" fill-opacity="0.08" shape-rendering="crispEdges"/>
<rect x="3.5" y="35.5" width="548" height="199" rx="99.5" stroke="black" stroke-width="3" shape-rendering="crispEdges"/>
</g>
<path d="M87.1923 124.56C84.6323 123.36 83.3523 121.24 83.3523 118.2C83.3523 114.44 85.4723 109.12 89.7123 102.24C95.9523 91.92 101.912 82.76 107.592 74.76C113.272 66.68 116.432 62.16 117.072 61.2L119.232 58.2C121.312 55.24 123.832 53.76 126.792 53.76C128.152 53.76 129.432 54.08 130.632 54.72C131.832 55.36 132.712 56.12 133.272 57C133.832 57.8 133.912 58.44 133.512 58.92L128.232 65.64C119.272 76.92 112.672 85.56 108.432 91.56C104.272 97.56 102.192 102 102.192 104.88C102.192 105.92 102.552 106.68 103.272 107.16C103.912 107.48 104.392 107.64 104.712 107.64C106.232 107.64 108.072 106.64 110.232 104.64C112.472 102.56 114.632 100.12 116.712 97.32C116.952 96.92 117.272 96.72 117.672 96.72C117.992 96.72 118.232 96.88 118.392 97.2C118.552 97.44 118.512 97.72 118.272 98.04C113.232 105.8 108.152 112.28 103.032 117.48C97.9123 122.6 93.5123 125.16 89.8323 125.16C88.7923 125.16 87.9123 124.96 87.1923 124.56ZM137.582 124.56C135.582 124.56 133.822 123.84 132.302 122.4C130.782 120.96 130.022 119.04 130.022 116.64C130.022 115.28 130.222 114.04 130.622 112.92C124.862 119.88 119.902 123.36 115.742 123.36C114.622 123.36 113.702 123.16 112.982 122.76C110.182 121.32 108.782 118.88 108.782 115.44C108.782 112.08 110.062 108.08 112.622 103.44C115.102 98.8 118.262 94.4 122.102 90.24C126.502 85.44 130.942 81.84 135.422 79.44C139.902 77.04 144.022 75.84 147.782 75.84C149.862 75.84 151.742 76.2 153.422 76.92C156.622 78.36 158.222 80.6 158.222 83.64C158.222 86.44 156.622 90.44 153.422 95.64L151.502 98.76C149.902 101.24 148.702 103.24 147.902 104.76C147.182 106.2 146.822 107.44 146.822 108.48C146.822 109.28 147.142 109.92 147.782 110.4C148.182 110.72 148.702 110.88 149.342 110.88C150.942 110.88 152.702 109.8 154.622 107.64C156.622 105.48 159.182 102.32 162.302 98.16C162.942 97.44 163.462 97.08 163.862 97.08C164.262 97.08 164.462 97.32 164.462 97.8C164.462 98.12 164.262 98.6 163.862 99.24C159.302 106.6 154.742 112.68 150.182 117.48C145.702 122.2 141.502 124.56 137.582 124.56ZM126.902 107.28C127.382 107.6 127.822 107.76 128.222 107.76C130.462 107.76 134.222 104.36 139.502 97.56L145.022 89.04C145.982 87.44 146.702 86.16 147.182 85.2C147.742 84.16 148.022 83.28 148.022 82.56C148.022 82 147.782 81.56 147.302 81.24C146.102 80.6 143.782 81.92 140.342 85.2C136.982 88.48 133.822 92.32 130.862 96.72C127.902 101.04 126.422 104.16 126.422 106.08C126.422 106.64 126.582 107.04 126.902 107.28ZM156.559 123.96C153.919 122.76 152.599 120.84 152.599 118.2C152.599 116.44 153.159 114.4 154.279 112.08C155.319 109.76 156.839 106.92 158.839 103.56C164.839 93.72 170.279 85.56 175.159 79.08C176.679 76.92 178.799 75.84 181.519 75.84C182.959 75.84 184.319 76.12 185.599 76.68C186.879 77.24 187.839 77.92 188.479 78.72C189.119 79.44 189.239 80.08 188.839 80.64C186.359 83.76 183.279 87.6 179.599 92.16C175.999 96.56 173.439 99.8 171.919 101.88C170.479 103.96 169.759 105.48 169.759 106.44C169.759 106.92 169.919 107.2 170.239 107.28C170.959 107.68 172.079 107.04 173.599 105.36C175.199 103.68 177.479 100.96 180.439 97.2C185.559 90.72 189.959 85.68 193.639 82.08C197.319 78.4 200.759 76.56 203.959 76.56C204.599 76.56 205.279 76.68 205.999 76.92C207.999 77.56 208.999 79 208.999 81.24C208.999 83 208.439 85.08 207.319 87.48C206.199 89.88 204.479 93.08 202.159 97.08C200.479 99.88 199.199 102.16 198.319 103.92C197.439 105.68 196.999 107.08 196.999 108.12C196.999 108.76 197.199 109.2 197.599 109.44C197.999 109.76 198.479 109.92 199.039 109.92C200.479 109.92 202.039 108.92 203.719 106.92C205.479 104.92 207.959 101.68 211.159 97.2C211.559 96.72 211.959 96.48 212.359 96.48C212.759 96.48 213.039 96.64 213.199 96.96C213.439 97.28 213.399 97.64 213.079 98.04C208.519 105.16 203.839 111.28 199.039 116.4C194.239 121.44 189.879 123.96 185.959 123.96C184.679 123.96 183.479 123.64 182.359 123C180.039 121.64 178.879 119.72 178.879 117.24C178.879 114.76 179.799 111.96 181.639 108.84C183.559 105.64 186.159 101.92 189.439 97.68C191.439 95.12 192.879 93.12 193.759 91.68C194.719 90.24 195.199 89.12 195.199 88.32C195.199 87.84 194.999 87.52 194.599 87.36C193.719 86.96 192.439 87.8 190.759 89.88C189.159 91.88 186.839 95.2 183.799 99.84C178.519 107.6 173.959 113.68 170.119 118.08C166.359 122.4 162.719 124.56 159.199 124.56C158.399 124.56 157.519 124.36 156.559 123.96ZM194.406 151.68C192.646 150.72 191.326 149.36 190.446 147.6C189.486 145.84 189.006 143.88 189.006 141.72C189.006 138.12 190.126 134.6 192.366 131.16C194.606 127.72 197.446 125.32 200.886 123.96C201.046 123.88 201.206 123.92 201.366 124.08C201.446 124.32 201.446 124.56 201.366 124.8C200.806 126.48 200.526 128.12 200.526 129.72C200.526 132.84 201.566 134.84 203.646 135.72C204.526 136.12 205.606 136.32 206.886 136.32C209.446 136.32 212.126 135 214.926 132.36C217.726 129.8 220.766 125.88 224.046 120.6L229.086 112.44C225.566 116.2 222.126 119.16 218.766 121.32C215.486 123.4 212.566 124.44 210.006 124.44C208.886 124.44 207.846 124.2 206.886 123.72C204.406 122.44 203.166 120.08 203.166 116.64C203.166 113.44 204.206 109.68 206.286 105.36C208.366 100.96 211.126 96.64 214.566 92.4C218.726 87.28 223.046 83.28 227.526 80.4C232.006 77.44 236.006 75.96 239.526 75.96C241.366 75.96 242.966 76.4 244.326 77.28C246.246 78.48 247.006 80.72 246.606 84L249.846 78.72C250.166 78.24 250.726 77.88 251.526 77.64C252.406 77.4 253.366 77.28 254.406 77.28C256.406 77.28 258.206 77.6 259.806 78.24C261.406 78.88 261.926 79.64 261.366 80.52L233.286 125.88C227.526 135.16 221.926 142.08 216.486 146.64C211.046 151.2 205.966 153.48 201.246 153.48C198.846 153.48 196.566 152.88 194.406 151.68ZM222.606 108.96C223.086 109.2 223.606 109.32 224.166 109.32C227.286 109.32 232.086 105.24 238.566 97.08L241.326 92.52C242.846 89.48 243.606 87.16 243.606 85.56C243.606 84.2 243.166 83.24 242.286 82.68C241.966 82.44 241.606 82.32 241.206 82.32C239.446 82.32 236.926 83.8 233.646 86.76C230.446 89.72 227.566 93.12 225.006 96.96C222.526 100.8 221.286 103.88 221.286 106.2C221.286 107.4 221.726 108.32 222.606 108.96ZM252.187 124.56C249.787 123.28 248.587 121.12 248.587 118.08C248.587 114 250.627 108.72 254.707 102.24L258.547 95.88C262.547 89.4 265.787 84.4 268.267 80.88C270.187 78.32 272.307 77.04 274.627 77.04C275.987 77.04 277.227 77.4 278.347 78.12C279.547 78.76 280.427 79.52 280.987 80.4C281.547 81.28 281.627 82 281.227 82.56C279.467 85.12 278.147 86.96 277.267 88.08C273.747 93.12 271.227 96.88 269.707 99.36C268.187 101.76 267.427 103.68 267.427 105.12C267.427 106 267.707 106.68 268.267 107.16C268.667 107.48 269.187 107.64 269.827 107.64C272.467 107.64 276.427 104.2 281.707 97.32L281.827 97.2C285.587 90.96 289.067 85.52 292.267 80.88C294.027 78.24 296.187 76.92 298.747 76.92C300.027 76.92 301.227 77.28 302.347 78C303.547 78.72 304.427 79.52 304.987 80.4C305.547 81.28 305.627 82 305.227 82.56C303.467 85.12 302.147 86.96 301.267 88.08C297.747 93.12 295.227 96.88 293.707 99.36C292.187 101.76 291.427 103.68 291.427 105.12C291.427 106 291.707 106.68 292.267 107.16C292.667 107.48 293.187 107.64 293.827 107.64C296.467 107.64 300.427 104.2 305.707 97.32C305.947 96.92 306.267 96.72 306.667 96.72C306.987 96.72 307.227 96.88 307.387 97.2C307.547 97.44 307.507 97.72 307.267 98.04C302.467 105.48 297.547 111.6 292.507 116.4C287.547 121.2 283.267 123.6 279.667 123.6C278.867 123.6 277.987 123.4 277.027 123C274.387 121.8 273.067 119.72 273.067 116.76C273.067 114.84 273.587 112.6 274.627 110.04C270.947 114.68 267.387 118.4 263.947 121.2C260.507 123.92 257.507 125.28 254.947 125.28C253.987 125.28 253.067 125.04 252.187 124.56ZM326.84 124.56C324.84 124.56 323.08 123.84 321.56 122.4C320.04 120.96 319.28 119.04 319.28 116.64C319.28 115.28 319.48 114.04 319.88 112.92C314.12 119.88 309.16 123.36 305 123.36C303.88 123.36 302.96 123.16 302.24 122.76C299.44 121.32 298.04 118.88 298.04 115.44C298.04 112.08 299.32 108.08 301.88 103.44C304.36 98.8 307.52 94.4 311.36 90.24C315.76 85.44 320.2 81.84 324.68 79.44C329.16 77.04 333.28 75.84 337.04 75.84C339.12 75.84 341 76.2 342.68 76.92C345.88 78.36 347.48 80.6 347.48 83.64C347.48 86.44 345.88 90.44 342.68 95.64L340.76 98.76C339.16 101.24 337.96 103.24 337.16 104.76C336.44 106.2 336.08 107.44 336.08 108.48C336.08 109.28 336.4 109.92 337.04 110.4C337.44 110.72 337.96 110.88 338.6 110.88C340.2 110.88 341.96 109.8 343.88 107.64C345.88 105.48 348.44 102.32 351.56 98.16C352.2 97.44 352.72 97.08 353.12 97.08C353.52 97.08 353.72 97.32 353.72 97.8C353.72 98.12 353.52 98.6 353.12 99.24C348.56 106.6 344 112.68 339.44 117.48C334.96 122.2 330.76 124.56 326.84 124.56ZM316.16 107.28C316.64 107.6 317.08 107.76 317.48 107.76C319.72 107.76 323.48 104.36 328.76 97.56L334.28 89.04C335.24 87.44 335.96 86.16 336.44 85.2C337 84.16 337.28 83.28 337.28 82.56C337.28 82 337.04 81.56 336.56 81.24C335.36 80.6 333.04 81.92 329.6 85.2C326.24 88.48 323.08 92.32 320.12 96.72C317.16 101.04 315.68 104.16 315.68 106.08C315.68 106.64 315.84 107.04 316.16 107.28ZM335.5 151.68C333.74 150.72 332.42 149.36 331.54 147.6C330.58 145.84 330.1 143.88 330.1 141.72C330.1 138.12 331.22 134.6 333.46 131.16C335.7 127.72 338.54 125.32 341.98 123.96C342.14 123.88 342.3 123.92 342.46 124.08C342.54 124.32 342.54 124.56 342.46 124.8C341.9 126.48 341.62 128.12 341.62 129.72C341.62 132.84 342.66 134.84 344.74 135.72C345.62 136.12 346.7 136.32 347.98 136.32C350.54 136.32 353.22 135 356.02 132.36C358.82 129.8 361.86 125.88 365.14 120.6L370.18 112.44C366.66 116.2 363.22 119.16 359.86 121.32C356.58 123.4 353.66 124.44 351.1 124.44C349.98 124.44 348.94 124.2 347.98 123.72C345.5 122.44 344.26 120.08 344.26 116.64C344.26 113.44 345.3 109.68 347.38 105.36C349.46 100.96 352.22 96.64 355.66 92.4C359.82 87.28 364.14 83.28 368.62 80.4C373.1 77.44 377.1 75.96 380.62 75.96C382.46 75.96 384.06 76.4 385.42 77.28C387.34 78.48 388.1 80.72 387.7 84L390.94 78.72C391.26 78.24 391.82 77.88 392.62 77.64C393.5 77.4 394.46 77.28 395.5 77.28C397.5 77.28 399.3 77.6 400.9 78.24C402.5 78.88 403.02 79.64 402.46 80.52L374.38 125.88C368.62 135.16 363.02 142.08 357.58 146.64C352.14 151.2 347.06 153.48 342.34 153.48C339.94 153.48 337.66 152.88 335.5 151.68ZM363.7 108.96C364.18 109.2 364.7 109.32 365.26 109.32C368.38 109.32 373.18 105.24 379.66 97.08L382.42 92.52C383.94 89.48 384.7 87.16 384.7 85.56C384.7 84.2 384.26 83.24 383.38 82.68C383.06 82.44 382.7 82.32 382.3 82.32C380.54 82.32 378.02 83.8 374.74 86.76C371.54 89.72 368.66 93.12 366.1 96.96C363.62 100.8 362.38 103.88 362.38 106.2C362.38 107.4 362.82 108.32 363.7 108.96ZM396.852 123.72C392.852 121.64 390.852 118.28 390.852 113.64C390.852 110.6 391.692 107.28 393.372 103.68C394.972 100 397.212 96.4 400.092 92.88C404.092 87.92 408.532 83.8 413.412 80.52C418.292 77.16 422.772 75.48 426.852 75.48C428.932 75.48 430.772 76 432.372 77.04C435.172 78.8 436.572 81.04 436.572 83.76C436.572 85.84 435.772 87.92 434.172 90C430.332 95.2 422.892 97.8 411.852 97.8L411.012 99.84C410.132 102.08 409.692 104.08 409.692 105.84C409.692 107.6 410.212 108.88 411.252 109.68C412.212 110.4 413.292 110.76 414.492 110.76C417.052 110.76 420.012 109.52 423.372 107.04C426.812 104.56 430.132 101.4 433.332 97.56C433.652 97.24 433.932 97.08 434.172 97.08C434.492 97.08 434.652 97.24 434.652 97.56C434.732 97.88 434.692 98.16 434.532 98.4C429.732 106.16 424.332 112.52 418.332 117.48C412.332 122.44 406.892 124.92 402.012 124.92C400.092 124.92 398.372 124.52 396.852 123.72ZM413.292 95.04C415.532 94.4 417.812 93.24 420.132 91.56C422.532 89.88 424.492 88.12 426.012 86.28C427.612 84.36 428.412 82.8 428.412 81.6C428.412 80.96 428.172 80.48 427.692 80.16C426.892 79.52 425.612 79.88 423.852 81.24C422.172 82.52 420.332 84.44 418.332 87C416.412 89.56 414.732 92.24 413.292 95.04ZM430.299 123.96C428.299 122.92 426.819 121.48 425.859 119.64C424.819 117.72 424.299 115.6 424.299 113.28C424.299 109.84 425.339 106.48 427.419 103.2C429.499 99.84 432.179 97.44 435.459 96C436.419 95.68 436.979 95.52 437.139 95.52C437.539 95.52 437.779 95.64 437.859 95.88C438.019 96.12 438.019 96.44 437.859 96.84C436.259 100.04 435.459 102.76 435.459 105C435.459 107.32 436.459 108.8 438.459 109.44C439.099 109.6 439.579 109.68 439.899 109.68C442.859 109.68 445.179 107.36 446.859 102.72C448.619 98 449.499 92.4 449.499 85.92C449.499 82.96 450.539 80.52 452.619 78.6C454.699 76.68 456.899 75.72 459.219 75.72C460.579 75.72 461.619 76.04 462.339 76.68C463.619 77.72 464.259 79.16 464.259 81C464.259 82.76 463.699 84.6 462.579 86.52C461.459 88.36 459.979 89.96 458.139 91.32C457.899 91.56 457.699 91.52 457.539 91.2C457.299 90.56 457.019 89.68 456.699 88.56C456.379 87.44 456.019 86.64 455.619 86.16C455.299 85.6 454.899 85.48 454.419 85.8C453.699 86.28 453.339 87.12 453.339 88.32C453.339 88.88 453.579 90.36 454.059 92.76C454.939 96.44 455.379 99.4 455.379 101.64C455.379 104.28 454.939 106.88 454.059 109.44C455.339 109.6 457.099 108.64 459.339 106.56C461.579 104.4 464.419 101.2 467.859 96.96C468.099 96.72 468.339 96.6 468.579 96.6C468.979 96.6 469.299 96.76 469.539 97.08C469.779 97.4 469.739 97.76 469.419 98.16C462.619 107.84 456.699 114.88 451.659 119.28C446.699 123.68 442.019 125.88 437.619 125.88C435.299 125.88 432.939 125.28 430.539 124.08L430.299 123.96Z" fill="#80536F"/>
<rect x="45.5" y="160.5" width="162" height="50" rx="25" fill="#ECECEC"/>
<rect x="45.5" y="160.5" width="162" height="50" rx="25" stroke="black"/>
<path d="M73.4766 193.026V196H64.6143V193.026H73.4766ZM65.5518 174.672V196H61.9922V174.672H65.5518ZM82.1045 196.293C81.0791 196.293 80.166 196.142 79.3652 195.839C78.5645 195.526 77.8857 195.067 77.3291 194.462C76.7725 193.847 76.3477 193.095 76.0547 192.206C75.7617 191.308 75.6152 190.268 75.6152 189.086V187.562C75.6152 186.225 75.7666 185.072 76.0693 184.105C76.3818 183.129 76.8115 182.328 77.3584 181.703C77.9053 181.078 78.5498 180.614 79.292 180.312C80.0439 180.009 80.8594 179.857 81.7383 179.857C82.7344 179.857 83.5986 180.019 84.3311 180.341C85.0635 180.663 85.6641 181.146 86.1328 181.791C86.6113 182.436 86.9629 183.231 87.1875 184.179C87.4219 185.126 87.5391 186.215 87.5391 187.445V189.159H77.2559V186.581H84.1699V186.215C84.1504 185.492 84.0625 184.872 83.9062 184.354C83.75 183.827 83.4961 183.427 83.1445 183.153C82.8027 182.87 82.3291 182.729 81.7236 182.729C81.2842 182.729 80.8936 182.812 80.5518 182.978C80.21 183.144 79.9268 183.412 79.7021 183.783C79.4873 184.154 79.3213 184.652 79.2041 185.277C79.0869 185.893 79.0283 186.654 79.0283 187.562V189.086C79.0283 189.877 79.0967 190.546 79.2334 191.093C79.3799 191.64 79.5947 192.089 79.8779 192.44C80.1611 192.782 80.5029 193.036 80.9033 193.202C81.3135 193.358 81.7871 193.437 82.3242 193.437C83.1152 193.437 83.7939 193.29 84.3604 192.997C84.9365 192.694 85.4346 192.304 85.8545 191.825L87.3633 193.92C87.0801 194.301 86.6992 194.677 86.2207 195.048C85.7422 195.409 85.1611 195.707 84.4775 195.941C83.8037 196.176 83.0127 196.293 82.1045 196.293ZM101.66 196H98.2471V178.642C98.2471 177.46 98.4424 176.469 98.833 175.668C99.2334 174.857 99.7949 174.242 100.518 173.822C101.25 173.402 102.114 173.192 103.11 173.192C103.413 173.192 103.711 173.217 104.004 173.266C104.297 173.305 104.575 173.368 104.839 173.456L104.766 176.239C104.629 176.2 104.458 176.171 104.253 176.151C104.058 176.132 103.867 176.122 103.682 176.122C103.252 176.122 102.886 176.22 102.583 176.415C102.28 176.61 102.051 176.894 101.895 177.265C101.738 177.636 101.66 178.095 101.66 178.642V196ZM104.238 180.15V182.787H96.2549V180.15H104.238ZM110.273 183.212V196H106.86V180.15H110.112L110.273 183.212ZM114.097 180.048L114.082 183.417C113.887 183.368 113.677 183.339 113.452 183.329C113.237 183.31 113.022 183.3 112.808 183.3C112.339 183.3 111.934 183.383 111.592 183.549C111.25 183.715 110.962 183.954 110.728 184.267C110.493 184.579 110.308 184.955 110.171 185.395C110.044 185.834 109.966 186.332 109.937 186.889L109.204 186.918C109.204 185.922 109.282 184.999 109.438 184.149C109.595 183.29 109.829 182.543 110.142 181.908C110.464 181.264 110.864 180.761 111.343 180.399C111.821 180.038 112.378 179.857 113.013 179.857C113.188 179.857 113.389 179.877 113.613 179.916C113.838 179.955 113.999 179.999 114.097 180.048ZM123.296 192.777V184.882C123.296 184.335 123.218 183.896 123.062 183.563C122.915 183.231 122.695 182.992 122.402 182.846C122.119 182.689 121.763 182.611 121.333 182.611C120.884 182.611 120.503 182.704 120.19 182.89C119.888 183.075 119.658 183.329 119.502 183.651C119.346 183.964 119.268 184.325 119.268 184.735H115.854C115.854 184.101 115.981 183.49 116.235 182.904C116.499 182.318 116.875 181.796 117.363 181.337C117.852 180.878 118.442 180.517 119.136 180.253C119.829 179.989 120.601 179.857 121.45 179.857C122.466 179.857 123.369 180.028 124.16 180.37C124.951 180.702 125.571 181.244 126.021 181.996C126.479 182.738 126.709 183.715 126.709 184.926V192.323C126.709 193.056 126.753 193.71 126.841 194.286C126.938 194.853 127.07 195.346 127.236 195.766V196H123.765C123.608 195.619 123.491 195.131 123.413 194.535C123.335 193.939 123.296 193.354 123.296 192.777ZM123.75 186.347L123.765 188.559H122.124C121.636 188.559 121.196 188.627 120.806 188.764C120.415 188.891 120.083 189.076 119.81 189.32C119.546 189.555 119.341 189.843 119.194 190.185C119.058 190.526 118.989 190.902 118.989 191.312C118.989 191.811 119.058 192.216 119.194 192.528C119.341 192.841 119.551 193.075 119.824 193.231C120.107 193.378 120.449 193.451 120.85 193.451C121.396 193.451 121.87 193.334 122.271 193.1C122.681 192.855 122.993 192.562 123.208 192.221C123.433 191.879 123.521 191.566 123.472 191.283L124.248 192.704C124.17 193.075 124.023 193.466 123.809 193.876C123.604 194.286 123.335 194.677 123.003 195.048C122.671 195.419 122.271 195.722 121.802 195.956C121.333 196.181 120.791 196.293 120.176 196.293C119.287 196.293 118.496 196.107 117.803 195.736C117.109 195.365 116.562 194.833 116.162 194.14C115.771 193.437 115.576 192.597 115.576 191.62C115.576 190.829 115.708 190.111 115.972 189.467C116.235 188.822 116.626 188.271 117.144 187.812C117.661 187.343 118.311 186.981 119.092 186.728C119.883 186.474 120.806 186.347 121.86 186.347H123.75ZM133.579 183.534V196H130.166V180.15H133.374L133.579 183.534ZM132.964 187.504H131.88C131.87 186.361 131.992 185.321 132.246 184.384C132.5 183.446 132.861 182.641 133.33 181.967C133.799 181.293 134.36 180.775 135.015 180.414C135.679 180.043 136.416 179.857 137.227 179.857C137.861 179.857 138.438 179.965 138.955 180.18C139.482 180.385 139.932 180.722 140.303 181.19C140.674 181.659 140.957 182.27 141.152 183.021C141.357 183.773 141.46 184.691 141.46 185.775V196H138.047V185.746C138.047 185.004 137.964 184.418 137.798 183.988C137.642 183.549 137.407 183.236 137.095 183.051C136.782 182.855 136.387 182.758 135.908 182.758C135.469 182.758 135.063 182.885 134.692 183.139C134.331 183.383 134.019 183.725 133.755 184.164C133.501 184.594 133.306 185.097 133.169 185.673C133.032 186.239 132.964 186.85 132.964 187.504ZM150.513 193.437C150.952 193.437 151.343 193.344 151.685 193.158C152.036 192.973 152.314 192.685 152.52 192.294C152.725 191.894 152.837 191.376 152.856 190.741H156.064C156.045 191.864 155.786 192.846 155.288 193.686C154.79 194.516 154.126 195.16 153.296 195.619C152.476 196.068 151.562 196.293 150.557 196.293C149.512 196.293 148.599 196.127 147.817 195.795C147.046 195.453 146.406 194.96 145.898 194.315C145.391 193.671 145.01 192.89 144.756 191.972C144.512 191.044 144.39 189.984 144.39 188.793V187.357C144.39 186.176 144.512 185.121 144.756 184.193C145.01 183.266 145.391 182.479 145.898 181.835C146.406 181.19 147.046 180.702 147.817 180.37C148.589 180.028 149.497 179.857 150.542 179.857C151.655 179.857 152.617 180.092 153.428 180.561C154.248 181.02 154.888 181.693 155.347 182.582C155.806 183.471 156.045 184.56 156.064 185.849H152.856C152.837 185.165 152.734 184.594 152.549 184.135C152.363 183.666 152.1 183.314 151.758 183.08C151.426 182.846 151.006 182.729 150.498 182.729C149.941 182.729 149.482 182.836 149.121 183.051C148.77 183.256 148.496 183.559 148.301 183.959C148.115 184.359 147.983 184.848 147.905 185.424C147.837 185.99 147.803 186.635 147.803 187.357V188.793C147.803 189.535 147.837 190.194 147.905 190.771C147.974 191.337 148.101 191.82 148.286 192.221C148.481 192.621 148.76 192.924 149.121 193.129C149.482 193.334 149.946 193.437 150.513 193.437ZM148.96 196.029H151.45L151.318 196.85C151.758 196.947 152.163 197.182 152.534 197.553C152.915 197.934 153.105 198.544 153.105 199.384C153.105 199.882 153.018 200.331 152.842 200.731C152.676 201.132 152.417 201.479 152.065 201.771C151.714 202.064 151.279 202.289 150.762 202.445C150.254 202.602 149.653 202.68 148.96 202.68L148.872 200.629C149.175 200.629 149.434 200.585 149.648 200.497C149.863 200.409 150.029 200.268 150.146 200.072C150.273 199.887 150.337 199.638 150.337 199.325C150.337 199.032 150.273 198.803 150.146 198.637C150.029 198.471 149.844 198.344 149.59 198.256C149.336 198.168 148.994 198.104 148.564 198.065L148.96 196.029ZM166.069 192.777V184.882C166.069 184.335 165.991 183.896 165.835 183.563C165.688 183.231 165.469 182.992 165.176 182.846C164.893 182.689 164.536 182.611 164.106 182.611C163.657 182.611 163.276 182.704 162.964 182.89C162.661 183.075 162.432 183.329 162.275 183.651C162.119 183.964 162.041 184.325 162.041 184.735H158.628C158.628 184.101 158.755 183.49 159.009 182.904C159.272 182.318 159.648 181.796 160.137 181.337C160.625 180.878 161.216 180.517 161.909 180.253C162.603 179.989 163.374 179.857 164.224 179.857C165.239 179.857 166.143 180.028 166.934 180.37C167.725 180.702 168.345 181.244 168.794 181.996C169.253 182.738 169.482 183.715 169.482 184.926V192.323C169.482 193.056 169.526 193.71 169.614 194.286C169.712 194.853 169.844 195.346 170.01 195.766V196H166.538C166.382 195.619 166.265 195.131 166.187 194.535C166.108 193.939 166.069 193.354 166.069 192.777ZM166.523 186.347L166.538 188.559H164.897C164.409 188.559 163.97 188.627 163.579 188.764C163.188 188.891 162.856 189.076 162.583 189.32C162.319 189.555 162.114 189.843 161.968 190.185C161.831 190.526 161.763 190.902 161.763 191.312C161.763 191.811 161.831 192.216 161.968 192.528C162.114 192.841 162.324 193.075 162.598 193.231C162.881 193.378 163.223 193.451 163.623 193.451C164.17 193.451 164.644 193.334 165.044 193.1C165.454 192.855 165.767 192.562 165.981 192.221C166.206 191.879 166.294 191.566 166.245 191.283L167.021 192.704C166.943 193.075 166.797 193.466 166.582 193.876C166.377 194.286 166.108 194.677 165.776 195.048C165.444 195.419 165.044 195.722 164.575 195.956C164.106 196.181 163.564 196.293 162.949 196.293C162.061 196.293 161.27 196.107 160.576 195.736C159.883 195.365 159.336 194.833 158.936 194.14C158.545 193.437 158.35 192.597 158.35 191.62C158.35 190.829 158.481 190.111 158.745 189.467C159.009 188.822 159.399 188.271 159.917 187.812C160.435 187.343 161.084 186.981 161.865 186.728C162.656 186.474 163.579 186.347 164.634 186.347H166.523ZM176.602 180.15V196H173.188V180.15H176.602ZM173.013 175.99C173.013 175.443 173.179 174.989 173.511 174.628C173.843 174.267 174.307 174.086 174.902 174.086C175.498 174.086 175.962 174.267 176.294 174.628C176.626 174.989 176.792 175.443 176.792 175.99C176.792 176.527 176.626 176.977 176.294 177.338C175.962 177.699 175.498 177.88 174.902 177.88C174.307 177.88 173.843 177.699 173.511 177.338C173.179 176.977 173.013 176.527 173.013 175.99ZM187.588 191.825C187.588 191.493 187.49 191.2 187.295 190.946C187.109 190.683 186.807 190.424 186.387 190.17C185.967 189.916 185.405 189.643 184.702 189.35C183.97 189.047 183.32 188.744 182.754 188.441C182.188 188.139 181.709 187.807 181.318 187.445C180.928 187.074 180.63 186.649 180.425 186.171C180.22 185.692 180.117 185.136 180.117 184.501C180.117 183.847 180.239 183.241 180.483 182.685C180.728 182.128 181.079 181.64 181.538 181.22C181.997 180.79 182.549 180.458 183.193 180.224C183.838 179.979 184.565 179.857 185.376 179.857C186.519 179.857 187.495 180.067 188.306 180.487C189.126 180.897 189.751 181.474 190.181 182.216C190.62 182.948 190.84 183.793 190.84 184.75H187.427C187.427 184.35 187.354 183.988 187.207 183.666C187.061 183.334 186.836 183.07 186.533 182.875C186.23 182.67 185.845 182.567 185.376 182.567C184.946 182.567 184.585 182.65 184.292 182.816C184.009 182.973 183.794 183.188 183.647 183.461C183.511 183.725 183.442 184.022 183.442 184.354C183.442 184.599 183.486 184.813 183.574 184.999C183.662 185.185 183.809 185.365 184.014 185.541C184.219 185.707 184.492 185.878 184.834 186.054C185.186 186.229 185.63 186.43 186.167 186.654C187.231 187.064 188.115 187.489 188.818 187.929C189.521 188.368 190.049 188.881 190.4 189.467C190.752 190.053 190.928 190.78 190.928 191.649C190.928 192.353 190.796 192.987 190.532 193.554C190.278 194.12 189.907 194.608 189.419 195.019C188.94 195.429 188.359 195.746 187.676 195.971C187.002 196.186 186.25 196.293 185.42 196.293C184.18 196.293 183.13 196.049 182.271 195.561C181.421 195.062 180.776 194.423 180.337 193.642C179.897 192.86 179.678 192.035 179.678 191.166H182.974C183.003 191.791 183.135 192.279 183.369 192.631C183.613 192.982 183.921 193.227 184.292 193.363C184.663 193.49 185.049 193.554 185.449 193.554C185.928 193.554 186.323 193.49 186.636 193.363C186.948 193.227 187.183 193.026 187.339 192.763C187.505 192.499 187.588 192.187 187.588 191.825Z" fill="black"/>
<rect x="228.5" y="160.5" width="117" height="50" rx="25" fill="#ECECEC"/>
<rect x="228.5" y="160.5" width="117" height="50" rx="25" stroke="black"/>
<path d="M256.872 193.026V196H247.614V193.026H256.872ZM248.552 174.672V196H244.992V174.672H248.552ZM255.627 183.549V186.479H247.614V183.549H255.627ZM256.784 174.672V177.66H247.614V174.672H256.784ZM262.907 183.534V196H259.494V180.15H262.702L262.907 183.534ZM262.292 187.504H261.208C261.198 186.361 261.32 185.321 261.574 184.384C261.828 183.446 262.189 182.641 262.658 181.967C263.127 181.293 263.688 180.775 264.343 180.414C265.007 180.043 265.744 179.857 266.555 179.857C267.189 179.857 267.766 179.965 268.283 180.18C268.811 180.385 269.26 180.722 269.631 181.19C270.002 181.659 270.285 182.27 270.48 183.021C270.686 183.773 270.788 184.691 270.788 185.775V196H267.375V185.746C267.375 185.004 267.292 184.418 267.126 183.988C266.97 183.549 266.735 183.236 266.423 183.051C266.11 182.855 265.715 182.758 265.236 182.758C264.797 182.758 264.392 182.885 264.021 183.139C263.659 183.383 263.347 183.725 263.083 184.164C262.829 184.594 262.634 185.097 262.497 185.673C262.36 186.239 262.292 186.85 262.292 187.504ZM282.668 180.15H285.759V196.059C285.759 197.484 285.495 198.651 284.968 199.56C284.45 200.478 283.728 201.156 282.8 201.596C281.872 202.035 280.798 202.255 279.577 202.255C279.128 202.255 278.596 202.182 277.98 202.035C277.365 201.889 276.765 201.674 276.179 201.391C275.593 201.107 275.104 200.756 274.714 200.336L275.959 197.963C276.418 198.432 276.96 198.793 277.585 199.047C278.21 199.311 278.811 199.442 279.387 199.442C280.012 199.442 280.539 199.335 280.969 199.12C281.408 198.915 281.745 198.568 281.979 198.08C282.214 197.602 282.331 196.952 282.331 196.132V183.739L282.668 180.15ZM273.703 188.72V187.475C273.703 186.176 273.825 185.053 274.069 184.105C274.313 183.148 274.665 182.353 275.124 181.718C275.583 181.083 276.145 180.614 276.809 180.312C277.473 180.009 278.215 179.857 279.035 179.857C279.885 179.857 280.603 180.038 281.188 180.399C281.784 180.751 282.268 181.254 282.639 181.908C283.02 182.562 283.317 183.344 283.532 184.252C283.747 185.15 283.903 186.156 284.001 187.27V188.998C283.903 190.072 283.737 191.059 283.503 191.957C283.269 192.846 282.951 193.612 282.551 194.257C282.16 194.901 281.672 195.404 281.086 195.766C280.51 196.117 279.816 196.293 279.006 196.293C278.195 196.293 277.463 196.132 276.809 195.81C276.154 195.487 275.593 195.009 275.124 194.374C274.665 193.739 274.313 192.953 274.069 192.016C273.825 191.068 273.703 189.97 273.703 188.72ZM277.116 187.475V188.72C277.116 189.53 277.17 190.229 277.277 190.814C277.395 191.4 277.565 191.884 277.79 192.265C278.015 192.636 278.308 192.914 278.669 193.1C279.03 193.275 279.46 193.363 279.958 193.363C280.612 193.363 281.14 193.207 281.54 192.895C281.95 192.582 282.263 192.162 282.478 191.635C282.702 191.098 282.858 190.502 282.946 189.848V186.435C282.897 185.917 282.8 185.438 282.653 184.999C282.517 184.55 282.326 184.159 282.082 183.827C281.848 183.495 281.555 183.236 281.203 183.051C280.861 182.855 280.456 182.758 279.987 182.758C279.499 182.758 279.069 182.855 278.698 183.051C278.337 183.236 278.039 183.524 277.805 183.915C277.57 184.296 277.395 184.784 277.277 185.38C277.17 185.966 277.116 186.664 277.116 187.475ZM292.805 173.5V196H289.392V173.5H292.805ZM300.07 180.15V196H296.657V180.15H300.07ZM296.481 175.99C296.481 175.443 296.647 174.989 296.979 174.628C297.312 174.267 297.775 174.086 298.371 174.086C298.967 174.086 299.431 174.267 299.763 174.628C300.095 174.989 300.261 175.443 300.261 175.99C300.261 176.527 300.095 176.977 299.763 177.338C299.431 177.699 298.967 177.88 298.371 177.88C297.775 177.88 297.312 177.699 296.979 177.338C296.647 176.977 296.481 176.527 296.481 175.99ZM311.057 191.825C311.057 191.493 310.959 191.2 310.764 190.946C310.578 190.683 310.275 190.424 309.855 190.17C309.436 189.916 308.874 189.643 308.171 189.35C307.438 189.047 306.789 188.744 306.223 188.441C305.656 188.139 305.178 187.807 304.787 187.445C304.396 187.074 304.099 186.649 303.894 186.171C303.688 185.692 303.586 185.136 303.586 184.501C303.586 183.847 303.708 183.241 303.952 182.685C304.196 182.128 304.548 181.64 305.007 181.22C305.466 180.79 306.018 180.458 306.662 180.224C307.307 179.979 308.034 179.857 308.845 179.857C309.987 179.857 310.964 180.067 311.774 180.487C312.595 180.897 313.22 181.474 313.649 182.216C314.089 182.948 314.309 183.793 314.309 184.75H310.896C310.896 184.35 310.822 183.988 310.676 183.666C310.529 183.334 310.305 183.07 310.002 182.875C309.699 182.67 309.313 182.567 308.845 182.567C308.415 182.567 308.054 182.65 307.761 182.816C307.478 182.973 307.263 183.188 307.116 183.461C306.979 183.725 306.911 184.022 306.911 184.354C306.911 184.599 306.955 184.813 307.043 184.999C307.131 185.185 307.277 185.365 307.482 185.541C307.688 185.707 307.961 185.878 308.303 186.054C308.654 186.229 309.099 186.43 309.636 186.654C310.7 187.064 311.584 187.489 312.287 187.929C312.99 188.368 313.518 188.881 313.869 189.467C314.221 190.053 314.396 190.78 314.396 191.649C314.396 192.353 314.265 192.987 314.001 193.554C313.747 194.12 313.376 194.608 312.888 195.019C312.409 195.429 311.828 195.746 311.145 195.971C310.471 196.186 309.719 196.293 308.889 196.293C307.648 196.293 306.599 196.049 305.739 195.561C304.89 195.062 304.245 194.423 303.806 193.642C303.366 192.86 303.146 192.035 303.146 191.166H306.442C306.472 191.791 306.604 192.279 306.838 192.631C307.082 192.982 307.39 193.227 307.761 193.363C308.132 193.49 308.518 193.554 308.918 193.554C309.396 193.554 309.792 193.49 310.104 193.363C310.417 193.227 310.651 193.026 310.808 192.763C310.974 192.499 311.057 192.187 311.057 191.825ZM320.725 173.5V196H317.326V173.5H320.725ZM320.124 187.504H319.04C319.03 186.4 319.147 185.385 319.392 184.457C319.636 183.529 319.987 182.719 320.446 182.025C320.905 181.332 321.457 180.8 322.102 180.429C322.756 180.048 323.479 179.857 324.27 179.857C324.924 179.857 325.515 179.97 326.042 180.194C326.579 180.409 327.038 180.751 327.419 181.22C327.81 181.688 328.107 182.304 328.312 183.065C328.518 183.817 328.62 184.735 328.62 185.819V196H325.207V185.79C325.207 185.038 325.124 184.442 324.958 184.003C324.802 183.563 324.567 183.246 324.255 183.051C323.942 182.855 323.547 182.758 323.068 182.758C322.6 182.758 322.18 182.885 321.809 183.139C321.447 183.383 321.14 183.725 320.886 184.164C320.632 184.594 320.441 185.097 320.314 185.673C320.188 186.239 320.124 186.85 320.124 187.504Z" fill="black"/>
<rect x="366.5" y="161.5" width="142" height="48" rx="24" fill="#ECECEC"/>
<rect x="366.5" y="161.5" width="142" height="48" rx="24" stroke="black"/>
<path d="M385.77 179.45V182.99C386.91 181.85 388.44 181.04 390.15 181.04C393.66 181.04 396 183.38 396 186.92V194H392.82V186.92C392.82 184.91 391.68 183.71 389.97 183.71C387.45 183.71 385.77 185.27 385.77 187.73V189.02H382.59V179.45C382.59 174.95 385.56 172.67 388.71 172.67C391.53 172.67 394.29 174.38 395.1 177.08L392.25 177.8C391.59 176.03 390.27 175.37 388.8 175.37C387.21 175.37 385.77 176.57 385.77 179.45ZM408.384 187.61V178.76H411.564V188.3C411.564 190.52 412.794 191.66 414.354 191.66C416.214 191.66 417.864 190.22 417.864 187.61V178.76H421.014V189.56C421.014 191.78 421.074 192.83 421.224 194H418.344C418.164 193.34 418.014 192.68 417.924 192.02C416.724 193.46 415.074 194.27 413.394 194.27C411.444 194.27 409.824 193.28 408.984 191.51C407.724 193.43 406.014 194.27 403.974 194.27C401.094 194.27 398.934 192.14 398.934 188.57V178.76H402.114V188.3C402.114 190.52 403.314 191.66 404.904 191.66C406.734 191.66 408.384 190.22 408.384 187.61ZM427.579 178.76V195.53C427.579 198.02 426.169 200.27 422.779 200.27C422.089 200.27 421.249 200.18 420.559 200.03V197.45C421.399 197.66 421.939 197.72 422.389 197.72C423.979 197.72 424.399 196.67 424.399 195.44V178.76H427.579ZM443.952 194H441.072C440.862 193.34 440.742 192.68 440.652 192.02C439.512 193.34 437.862 194.27 436.002 194.27C432.792 194.27 430.692 191.99 430.692 188.57V173H433.872V179H443.742V181.46H433.872V188.3C433.872 190.34 434.982 191.63 436.752 191.63C439.002 191.63 440.562 190.07 440.562 187.61V184.76H443.742V189.56C443.742 191.78 443.772 192.83 443.952 194ZM446.924 178.76H449.804C449.984 179.42 450.134 180.08 450.224 180.74C451.364 179.42 452.984 178.49 454.874 178.49C458.054 178.49 460.184 180.74 460.184 184.16V194H457.004V184.46C457.004 182.39 455.864 181.1 454.124 181.1C451.844 181.1 450.284 182.66 450.284 185.15V200H447.134V183.2C447.134 180.98 447.074 179.93 446.924 178.76ZM463.246 194V173H466.426V178.76H474.706V181.28H466.426V191.42H471.166C474.166 191.42 475.876 192.2 475.876 195.44V197.24H472.756V195.71C472.756 194.39 472.276 194 471.316 194H463.246ZM492.339 194H489.459C489.249 193.34 489.129 192.68 489.039 192.02C487.899 193.34 486.249 194.27 484.389 194.27C481.179 194.27 479.079 191.99 479.079 188.57V176.87C479.079 175.97 478.599 175.34 477.639 175.34H475.599V172.82H478.209C480.819 172.82 482.259 174.59 482.259 176.72V188.3C482.259 190.34 483.369 191.63 485.139 191.63C487.389 191.63 488.949 190.07 488.949 187.61V178.76H492.129V189.56C492.129 191.78 492.159 192.83 492.339 194Z" fill="black"/>
<path d="M484.729 16.229L484.754 33.3027L501 38.5549L484.77 43.8549L484.795 60.9286L474.739 47.1304L458.509 52.4304L468.524 38.6027L458.468 24.8045L474.714 30.0567L484.729 16.229Z" fill="black"/>
<defs>
<filter id="filter0_d_193_274" x="0" y="34" width="555" height="208" filterUnits="userSpaceOnUse" color-interpolation-filters="sRGB">
<feFlood flood-opacity="0" result="BackgroundImageFix"/>
<feColorMatrix in="SourceAlpha" type="matrix" values="0 0 0 0 0 0 0 0 0 0 0 0 0 0 0 0 0 0 127 0" result="hardAlpha"/>
<feOffset dy="4"/>
<feGaussianBlur stdDeviation="1"/>
<feComposite in2="hardAlpha" operator="out"/>
<feColorMatrix type="matrix" values="0 0 0 0 0 0 0 0 0 0 0 0 0 0 0 0 0 0 0.17 0"/>
<feBlend mode="normal" in2="BackgroundImageFix" result="effect1_dropShadow_193_274"/>
<feBlend mode="normal" in="SourceGraphic" in2="effect1_dropShadow_193_274" result="shape"/>
</filter>
</defs>
</svg>
