<svg width="498" height="324" viewBox="0 0 498 324" fill="none" xmlns="http://www.w3.org/2000/svg">
<path d="M191.24 123.96C189.24 122.92 187.76 121.48 186.8 119.64C185.76 117.72 185.24 115.6 185.24 113.28C185.24 109.84 186.28 106.48 188.36 103.2C190.44 99.84 193.12 97.44 196.4 96C197.36 95.68 197.92 95.52 198.08 95.52C198.48 95.52 198.72 95.64 198.8 95.88C198.96 96.12 198.96 96.44 198.8 96.84C197.2 100.04 196.4 102.76 196.4 105C196.4 107.32 197.4 108.8 199.4 109.44C200.04 109.6 200.52 109.68 200.84 109.68C203.8 109.68 206.12 107.36 207.8 102.72C209.56 98 210.44 92.4 210.44 85.92C210.44 82.96 211.48 80.52 213.56 78.6C215.64 76.68 217.84 75.72 220.16 75.72C221.52 75.72 222.56 76.04 223.28 76.68C224.56 77.72 225.2 79.16 225.2 81C225.2 82.76 224.64 84.6 223.52 86.52C222.4 88.36 220.92 89.96 219.08 91.32C218.84 91.56 218.64 91.52 218.48 91.2C218.24 90.56 217.96 89.68 217.64 88.56C217.32 87.44 216.96 86.64 216.56 86.16C216.24 85.6 215.84 85.48 215.36 85.8C214.64 86.28 214.28 87.12 214.28 88.32C214.28 88.88 214.52 90.36 215 92.76C215.88 96.44 216.32 99.4 216.32 101.64C216.32 104.28 215.88 106.88 215 109.44C216.28 109.6 218.04 108.64 220.28 106.56C222.52 104.4 225.36 101.2 228.8 96.96C229.04 96.72 229.28 96.6 229.52 96.6C229.92 96.6 230.24 96.76 230.48 97.08C230.72 97.4 230.68 97.76 230.36 98.16C223.56 107.84 217.64 114.88 212.6 119.28C207.64 123.68 202.96 125.88 198.56 125.88C196.24 125.88 193.88 125.28 191.48 124.08L191.24 123.96ZM219.25 124.92C217.09 123.8 216.01 122.28 216.01 120.36C216.01 118.92 216.45 117.32 217.33 115.56C218.21 113.8 219.49 111.6 221.17 108.96L223.33 105.36C229.73 94.96 235.77 85.36 241.45 76.56C247.13 67.68 251.37 61.36 254.17 57.6C256.25 54.8 258.81 53.4 261.85 53.4C263.29 53.4 264.65 53.72 265.93 54.36C267.21 54.92 268.13 55.6 268.69 56.4C269.33 57.2 269.45 57.84 269.05 58.32L261.25 68.28C252.37 79.56 245.69 88.24 241.21 94.32C236.81 100.4 234.61 104.24 234.61 105.84C234.61 106.88 234.97 106.96 235.69 106.08C236.49 105.12 237.93 103.08 240.01 99.96C244.49 93 248.73 87.24 252.73 82.68C256.73 78.12 260.65 75.84 264.49 75.84C265.93 75.84 267.37 76.32 268.81 77.28C271.05 78.8 272.17 80.76 272.17 83.16C272.17 85.56 271.05 88.04 268.81 90.6C266.65 93.16 263.69 95.4 259.93 97.32C256.17 99.24 252.13 100.48 247.81 101.04C247.65 101.04 247.57 101.16 247.57 101.4C247.57 101.56 247.65 101.64 247.81 101.64C248.13 101.56 248.61 101.52 249.25 101.52C250.93 101.52 251.97 101.92 252.37 102.72C252.77 103.52 252.93 104.44 252.85 105.48C252.85 106.44 252.85 107.08 252.85 107.4C252.85 108.28 252.93 109.04 253.09 109.68C253.33 110.24 253.73 110.64 254.29 110.88C254.77 111.12 255.29 111.24 255.85 111.24C257.77 111.24 259.85 110.08 262.09 107.76C264.33 105.44 267.01 102.12 270.13 97.8C270.45 97.24 270.89 96.96 271.45 96.96C271.77 96.96 271.97 97.12 272.05 97.44C272.21 97.76 272.17 98.12 271.93 98.52C267.93 105.4 263.53 111.32 258.73 116.28C254.01 121.16 249.61 123.6 245.53 123.6C243.05 123.6 241.17 122.76 239.89 121.08C238.61 119.4 237.97 117.24 237.97 114.6C237.97 111.4 238.89 108.32 240.73 105.36C242.57 102.32 245.05 100.24 248.17 99.12C250.65 98.24 252.69 97.04 254.29 95.52C255.89 94 256.69 92.52 256.69 91.08C256.69 90.28 256.37 89.56 255.73 88.92C255.33 88.52 254.89 88.32 254.41 88.32C253.05 88.32 251.33 89.64 249.25 92.28C247.17 94.84 244.37 98.76 240.85 104.04C236.29 110.92 232.45 116.2 229.33 119.88C226.29 123.48 223.53 125.28 221.05 125.28C220.41 125.28 219.81 125.16 219.25 124.92ZM264.847 124.56C262.447 123.28 261.247 121.12 261.247 118.08C261.247 114 263.287 108.72 267.367 102.24L271.207 95.88C275.207 89.4 278.447 84.4 280.927 80.88C282.847 78.32 284.967 77.04 287.287 77.04C288.647 77.04 289.887 77.4 291.007 78.12C292.207 78.76 293.087 79.52 293.647 80.4C294.207 81.28 294.287 82 293.887 82.56C292.127 85.12 290.807 86.96 289.927 88.08C286.407 93.12 283.887 96.88 282.367 99.36C280.847 101.76 280.087 103.68 280.087 105.12C280.087 106 280.367 106.68 280.927 107.16C281.327 107.48 281.847 107.64 282.487 107.64C285.127 107.64 289.087 104.2 294.367 97.32C294.607 96.92 294.927 96.72 295.327 96.72C295.647 96.72 295.887 96.88 296.047 97.2C296.207 97.44 296.167 97.72 295.927 98.04C290.967 105.72 285.887 112.2 280.687 117.48C275.487 122.68 271.127 125.28 267.607 125.28C266.647 125.28 265.727 125.04 264.847 124.56ZM288.847 62.4C289.567 60.72 290.647 59.44 292.087 58.56C293.527 57.6 295.087 57.12 296.767 57.12C298.047 57.12 299.127 57.32 300.007 57.72C301.527 58.44 302.687 59.52 303.487 60.96C304.367 62.32 304.807 63.84 304.807 65.52C304.807 66.72 304.567 67.92 304.087 69.12C303.287 70.8 302.047 72.2 300.367 73.32C298.687 74.36 296.927 74.88 295.087 74.88C292.767 74.88 290.967 74.12 289.687 72.6C288.487 71.08 287.887 69.24 287.887 67.08C287.887 65.48 288.207 63.92 288.847 62.4ZM288.642 124.56C286.082 123.36 284.802 121.24 284.802 118.2C284.802 114.44 286.922 109.12 291.162 102.24C297.402 91.92 303.362 82.76 309.042 74.76C314.722 66.68 317.882 62.16 318.522 61.2L320.682 58.2C322.762 55.24 325.282 53.76 328.242 53.76C329.602 53.76 330.882 54.08 332.082 54.72C333.282 55.36 334.162 56.12 334.722 57C335.282 57.8 335.362 58.44 334.962 58.92L329.682 65.64C320.722 76.92 314.122 85.56 309.882 91.56C305.722 97.56 303.642 102 303.642 104.88C303.642 105.92 304.002 106.68 304.722 107.16C305.362 107.48 305.842 107.64 306.162 107.64C307.682 107.64 309.522 106.64 311.682 104.64C313.922 102.56 316.082 100.12 318.162 97.32C318.402 96.92 318.722 96.72 319.122 96.72C319.442 96.72 319.682 96.88 319.842 97.2C320.002 97.44 319.962 97.72 319.722 98.04C314.682 105.8 309.602 112.28 304.482 117.48C299.362 122.6 294.962 125.16 291.282 125.16C290.242 125.16 289.362 124.96 288.642 124.56ZM312.665 124.56C310.105 123.36 308.825 121.24 308.825 118.2C308.825 114.44 310.945 109.12 315.185 102.24C321.425 91.92 327.385 82.76 333.065 74.76C338.745 66.68 341.905 62.16 342.545 61.2L344.705 58.2C346.785 55.24 349.305 53.76 352.265 53.76C353.625 53.76 354.905 54.08 356.105 54.72C357.305 55.36 358.185 56.12 358.745 57C359.305 57.8 359.385 58.44 358.985 58.92L353.705 65.64C344.745 76.92 338.145 85.56 333.905 91.56C329.745 97.56 327.665 102 327.665 104.88C327.665 105.92 328.025 106.68 328.745 107.16C329.385 107.48 329.865 107.64 330.185 107.64C331.705 107.64 333.545 106.64 335.705 104.64C337.945 102.56 340.105 100.12 342.185 97.32C342.425 96.92 342.745 96.72 343.145 96.72C343.465 96.72 343.705 96.88 343.865 97.2C344.025 97.44 343.985 97.72 343.745 98.04C338.705 105.8 333.625 112.28 328.505 117.48C323.385 122.6 318.985 125.16 315.305 125.16C314.265 125.16 313.385 124.96 312.665 124.56ZM338.896 123.96C336.896 122.92 335.416 121.48 334.456 119.64C333.416 117.72 332.896 115.6 332.896 113.28C332.896 109.84 333.936 106.48 336.016 103.2C338.096 99.84 340.776 97.44 344.056 96C345.016 95.68 345.576 95.52 345.736 95.52C346.136 95.52 346.376 95.64 346.456 95.88C346.616 96.12 346.616 96.44 346.456 96.84C344.856 100.04 344.056 102.76 344.056 105C344.056 107.32 345.056 108.8 347.056 109.44C347.696 109.6 348.176 109.68 348.496 109.68C351.456 109.68 353.776 107.36 355.456 102.72C357.216 98 358.096 92.4 358.096 85.92C358.096 82.96 359.136 80.52 361.216 78.6C363.296 76.68 365.496 75.72 367.816 75.72C369.176 75.72 370.216 76.04 370.936 76.68C372.216 77.72 372.856 79.16 372.856 81C372.856 82.76 372.296 84.6 371.176 86.52C370.056 88.36 368.576 89.96 366.736 91.32C366.496 91.56 366.296 91.52 366.136 91.2C365.896 90.56 365.616 89.68 365.296 88.56C364.976 87.44 364.616 86.64 364.216 86.16C363.896 85.6 363.496 85.48 363.016 85.8C362.296 86.28 361.936 87.12 361.936 88.32C361.936 88.88 362.176 90.36 362.656 92.76C363.536 96.44 363.976 99.4 363.976 101.64C363.976 104.28 363.536 106.88 362.656 109.44C363.936 109.6 365.696 108.64 367.936 106.56C370.176 104.4 373.016 101.2 376.456 96.96C376.696 96.72 376.936 96.6 377.176 96.6C377.576 96.6 377.896 96.76 378.136 97.08C378.376 97.4 378.336 97.76 378.016 98.16C371.216 107.84 365.296 114.88 360.256 119.28C355.296 123.68 350.616 125.88 346.216 125.88C343.896 125.88 341.536 125.28 339.136 124.08L338.896 123.96ZM375.88 123.72C371.88 121.64 369.88 118.28 369.88 113.64C369.88 110.6 370.72 107.28 372.4 103.68C374 100 376.24 96.4 379.12 92.88C383.12 87.92 387.56 83.8 392.44 80.52C397.32 77.16 401.8 75.48 405.88 75.48C407.96 75.48 409.8 76 411.4 77.04C414.2 78.8 415.6 81.04 415.6 83.76C415.6 85.84 414.8 87.92 413.2 90C409.36 95.2 401.92 97.8 390.88 97.8L390.04 99.84C389.16 102.08 388.72 104.08 388.72 105.84C388.72 107.6 389.24 108.88 390.28 109.68C391.24 110.4 392.32 110.76 393.52 110.76C396.08 110.76 399.04 109.52 402.4 107.04C405.84 104.56 409.16 101.4 412.36 97.56C412.68 97.24 412.96 97.08 413.2 97.08C413.52 97.08 413.68 97.24 413.68 97.56C413.76 97.88 413.72 98.16 413.56 98.4C408.76 106.16 403.36 112.52 397.36 117.48C391.36 122.44 385.92 124.92 381.04 124.92C379.12 124.92 377.4 124.52 375.88 123.72ZM392.32 95.04C394.56 94.4 396.84 93.24 399.16 91.56C401.56 89.88 403.52 88.12 405.04 86.28C406.64 84.36 407.44 82.8 407.44 81.6C407.44 80.96 407.2 80.48 406.72 80.16C405.92 79.52 404.64 79.88 402.88 81.24C401.2 82.52 399.36 84.44 397.36 87C395.44 89.56 393.76 92.24 392.32 95.04ZM406.884 124.56C404.324 123.36 403.044 121.24 403.044 118.2C403.044 114.44 405.164 109.12 409.404 102.24C414.124 94.56 418.684 87.4 423.084 80.76L417.324 80.88C416.844 80.88 416.444 80.64 416.124 80.16C415.884 79.68 415.764 79.16 415.764 78.6C415.764 77.8 416.124 77.4 416.844 77.4L425.244 77.76C428.764 72.56 431.964 67.96 434.844 63.96C436.924 61 439.404 59.52 442.284 59.52C443.644 59.52 444.884 59.84 446.004 60.48C447.204 61.12 448.084 61.88 448.644 62.76C449.204 63.56 449.284 64.2 448.884 64.68L438.204 78.24L444.564 78.48C445.204 78.48 445.524 78.72 445.524 79.2C445.524 79.52 445.404 79.8 445.164 80.04C445.004 80.28 444.804 80.4 444.564 80.4L436.284 80.52C431.564 86.6 427.964 91.6 425.484 95.52C423.004 99.44 421.764 102.44 421.764 104.52C421.764 105.72 422.164 106.6 422.964 107.16C423.604 107.48 424.084 107.64 424.404 107.64C425.924 107.64 427.764 106.64 429.924 104.64C432.164 102.56 434.324 100.12 436.404 97.32C436.644 96.92 436.964 96.72 437.364 96.72C437.764 96.72 438.044 96.88 438.204 97.2C438.364 97.44 438.324 97.72 438.084 98.04C433.044 105.72 427.924 112.16 422.724 117.36C417.604 122.56 413.204 125.16 409.524 125.16C408.484 125.16 407.604 124.96 406.884 124.56Z" fill="#80536F"/>
<g filter="url(#filter0_d_186_140)">
<line x1="130" y1="161.85" x2="242" y2="161.85" stroke="black" stroke-width="3"/>
<path d="M80.3188 226H51.2284C41.0866 226 30.6186 226.859 21.9144 232.064C11.8496 238.083 6 246.658 6 258.771C6 268.939 12.6141 277.343 21.6783 283.27C30.4415 288.999 41.2596 290 51.7296 290H211" stroke="black" stroke-width="3"/>
<path d="M417.681 163.35H447.26C457.082 163.35 467.187 164.166 475.732 169.009C486.013 174.836 492 183.181 492 195.027C492 204.979 485.218 213.184 475.977 218.923C467.363 224.274 456.914 225.213 446.774 225.213H287" stroke="black" stroke-width="3"/>
<path d="M266 290H210" stroke="black" stroke-width="3"/>
</g>
<g filter="url(#filter1_d_186_140)">
<rect x="59.5" y="265.5" width="130" height="50" rx="25" fill="#ECECEC"/>
<rect x="59.5" y="265.5" width="130" height="50" rx="25" stroke="black"/>
<path d="M82.3643 294.232H78.2627L78.2334 291.698H81.5439C82.0518 291.698 82.4668 291.635 82.7891 291.508C83.1211 291.371 83.3652 291.171 83.5215 290.907C83.6875 290.634 83.7705 290.297 83.7705 289.896C83.7705 289.574 83.7217 289.291 83.624 289.047C83.5264 288.803 83.3848 288.603 83.1992 288.446C83.0137 288.29 82.7793 288.178 82.4961 288.109C82.2129 288.031 81.8857 287.992 81.5146 287.992H79.376V301H75.9629V285.15H81.5146C82.3838 285.15 83.165 285.238 83.8584 285.414C84.5615 285.59 85.1572 285.858 85.6455 286.22C86.1436 286.581 86.5244 287.04 86.7881 287.597C87.0518 288.144 87.1836 288.793 87.1836 289.545C87.1836 290.023 87.0908 290.478 86.9053 290.907C86.7295 291.337 86.4658 291.718 86.1143 292.05C85.7627 292.382 85.3232 292.655 84.7959 292.87C84.2783 293.075 83.6826 293.207 83.0088 293.266L82.3643 294.232ZM82.3643 301H77.2373L78.6582 298.158H82.3643C82.833 298.158 83.209 298.085 83.4922 297.938C83.7852 297.782 84 297.558 84.1367 297.265C84.2832 296.972 84.3564 296.62 84.3564 296.21C84.3564 295.81 84.2881 295.463 84.1514 295.17C84.0244 294.867 83.8145 294.638 83.5215 294.481C83.2383 294.315 82.8525 294.232 82.3643 294.232H78.9658L78.9951 291.698H82.9502L83.8877 292.694C84.7764 292.763 85.5039 292.978 86.0703 293.339C86.6465 293.7 87.0713 294.154 87.3447 294.701C87.6279 295.248 87.7695 295.844 87.7695 296.488C87.7695 297.23 87.6475 297.885 87.4033 298.451C87.1689 299.018 86.8223 299.491 86.3633 299.872C85.9043 300.243 85.3379 300.526 84.6641 300.722C83.9902 300.907 83.2236 301 82.3643 301ZM96.8076 301.293C95.7822 301.293 94.8691 301.142 94.0684 300.839C93.2676 300.526 92.5889 300.067 92.0322 299.462C91.4756 298.847 91.0508 298.095 90.7578 297.206C90.4648 296.308 90.3184 295.268 90.3184 294.086V292.562C90.3184 291.225 90.4697 290.072 90.7725 289.105C91.085 288.129 91.5146 287.328 92.0615 286.703C92.6084 286.078 93.2529 285.614 93.9951 285.312C94.7471 285.009 95.5625 284.857 96.4414 284.857C97.4375 284.857 98.3018 285.019 99.0342 285.341C99.7666 285.663 100.367 286.146 100.836 286.791C101.314 287.436 101.666 288.231 101.891 289.179C102.125 290.126 102.242 291.215 102.242 292.445V294.159H91.959V291.581H98.873V291.215C98.8535 290.492 98.7656 289.872 98.6094 289.354C98.4531 288.827 98.1992 288.427 97.8477 288.153C97.5059 287.87 97.0322 287.729 96.4268 287.729C95.9873 287.729 95.5967 287.812 95.2549 287.978C94.9131 288.144 94.6299 288.412 94.4053 288.783C94.1904 289.154 94.0244 289.652 93.9072 290.277C93.79 290.893 93.7314 291.654 93.7314 292.562V294.086C93.7314 294.877 93.7998 295.546 93.9365 296.093C94.083 296.64 94.2979 297.089 94.5811 297.44C94.8643 297.782 95.2061 298.036 95.6064 298.202C96.0166 298.358 96.4902 298.437 97.0273 298.437C97.8184 298.437 98.4971 298.29 99.0635 297.997C99.6396 297.694 100.138 297.304 100.558 296.825L102.066 298.92C101.783 299.301 101.402 299.677 100.924 300.048C100.445 300.409 99.8643 300.707 99.1807 300.941C98.5068 301.176 97.7158 301.293 96.8076 301.293ZM108.395 288.197V307.094H104.996V285.15H108.116L108.395 288.197ZM116.92 292.445V293.705C116.92 294.945 116.808 296.039 116.583 296.986C116.358 297.934 116.026 298.729 115.587 299.374C115.157 300.009 114.625 300.487 113.99 300.81C113.355 301.132 112.613 301.293 111.764 301.293C110.963 301.293 110.265 301.117 109.669 300.766C109.083 300.414 108.59 299.921 108.189 299.286C107.789 298.651 107.467 297.899 107.223 297.03C106.988 296.151 106.817 295.194 106.71 294.159V292.226C106.817 291.132 106.983 290.136 107.208 289.237C107.442 288.329 107.76 287.548 108.16 286.894C108.57 286.239 109.068 285.736 109.654 285.385C110.24 285.033 110.938 284.857 111.749 284.857C112.599 284.857 113.346 285.009 113.99 285.312C114.635 285.614 115.172 286.078 115.602 286.703C116.041 287.328 116.368 288.119 116.583 289.076C116.808 290.023 116.92 291.146 116.92 292.445ZM113.507 293.705V292.445C113.507 291.635 113.453 290.937 113.346 290.351C113.248 289.755 113.082 289.267 112.848 288.886C112.623 288.505 112.335 288.222 111.983 288.036C111.642 287.851 111.217 287.758 110.709 287.758C110.26 287.758 109.864 287.851 109.522 288.036C109.181 288.222 108.893 288.48 108.658 288.812C108.424 289.135 108.238 289.521 108.102 289.97C107.965 290.409 107.877 290.888 107.838 291.405V294.994C107.926 295.619 108.072 296.195 108.277 296.723C108.482 297.24 108.78 297.655 109.171 297.968C109.571 298.28 110.094 298.437 110.738 298.437C111.236 298.437 111.661 298.339 112.013 298.144C112.364 297.948 112.647 297.655 112.862 297.265C113.087 296.874 113.248 296.386 113.346 295.8C113.453 295.204 113.507 294.506 113.507 293.705ZM125.431 298.437C125.87 298.437 126.261 298.344 126.603 298.158C126.954 297.973 127.232 297.685 127.438 297.294C127.643 296.894 127.755 296.376 127.774 295.741H130.982C130.963 296.864 130.704 297.846 130.206 298.686C129.708 299.516 129.044 300.16 128.214 300.619C127.394 301.068 126.48 301.293 125.475 301.293C124.43 301.293 123.517 301.127 122.735 300.795C121.964 300.453 121.324 299.96 120.816 299.315C120.309 298.671 119.928 297.89 119.674 296.972C119.43 296.044 119.308 294.984 119.308 293.793V292.357C119.308 291.176 119.43 290.121 119.674 289.193C119.928 288.266 120.309 287.479 120.816 286.835C121.324 286.19 121.964 285.702 122.735 285.37C123.507 285.028 124.415 284.857 125.46 284.857C126.573 284.857 127.535 285.092 128.346 285.561C129.166 286.02 129.806 286.693 130.265 287.582C130.724 288.471 130.963 289.56 130.982 290.849H127.774C127.755 290.165 127.652 289.594 127.467 289.135C127.281 288.666 127.018 288.314 126.676 288.08C126.344 287.846 125.924 287.729 125.416 287.729C124.859 287.729 124.4 287.836 124.039 288.051C123.688 288.256 123.414 288.559 123.219 288.959C123.033 289.359 122.901 289.848 122.823 290.424C122.755 290.99 122.721 291.635 122.721 292.357V293.793C122.721 294.535 122.755 295.194 122.823 295.771C122.892 296.337 123.019 296.82 123.204 297.221C123.399 297.621 123.678 297.924 124.039 298.129C124.4 298.334 124.864 298.437 125.431 298.437ZM140.211 285.15V301H136.783V285.15H140.211ZM144.4 285.15V287.992H132.638V285.15H144.4ZM150.567 285.15V301H147.14V285.15H150.567ZM159.225 285.15L153.189 294.73H149.762L149.293 291.449H151.695L155.006 285.15H159.225ZM155.138 301L151.52 294.115L154.215 292.094L159.576 301H155.138ZM169.024 297.777V289.882C169.024 289.335 168.946 288.896 168.79 288.563C168.644 288.231 168.424 287.992 168.131 287.846C167.848 287.689 167.491 287.611 167.062 287.611C166.612 287.611 166.231 287.704 165.919 287.89C165.616 288.075 165.387 288.329 165.23 288.651C165.074 288.964 164.996 289.325 164.996 289.735H161.583C161.583 289.101 161.71 288.49 161.964 287.904C162.228 287.318 162.604 286.796 163.092 286.337C163.58 285.878 164.171 285.517 164.864 285.253C165.558 284.989 166.329 284.857 167.179 284.857C168.194 284.857 169.098 285.028 169.889 285.37C170.68 285.702 171.3 286.244 171.749 286.996C172.208 287.738 172.438 288.715 172.438 289.926V297.323C172.438 298.056 172.481 298.71 172.569 299.286C172.667 299.853 172.799 300.346 172.965 300.766V301H169.493C169.337 300.619 169.22 300.131 169.142 299.535C169.063 298.939 169.024 298.354 169.024 297.777ZM169.479 291.347L169.493 293.559H167.853C167.364 293.559 166.925 293.627 166.534 293.764C166.144 293.891 165.812 294.076 165.538 294.32C165.274 294.555 165.069 294.843 164.923 295.185C164.786 295.526 164.718 295.902 164.718 296.312C164.718 296.811 164.786 297.216 164.923 297.528C165.069 297.841 165.279 298.075 165.553 298.231C165.836 298.378 166.178 298.451 166.578 298.451C167.125 298.451 167.599 298.334 167.999 298.1C168.409 297.855 168.722 297.562 168.937 297.221C169.161 296.879 169.249 296.566 169.2 296.283L169.977 297.704C169.898 298.075 169.752 298.466 169.537 298.876C169.332 299.286 169.063 299.677 168.731 300.048C168.399 300.419 167.999 300.722 167.53 300.956C167.062 301.181 166.52 301.293 165.904 301.293C165.016 301.293 164.225 301.107 163.531 300.736C162.838 300.365 162.291 299.833 161.891 299.14C161.5 298.437 161.305 297.597 161.305 296.62C161.305 295.829 161.437 295.111 161.7 294.467C161.964 293.822 162.354 293.271 162.872 292.812C163.39 292.343 164.039 291.981 164.82 291.728C165.611 291.474 166.534 291.347 167.589 291.347H169.479Z" fill="black"/>
<rect x="6.5" y="138.5" width="162" height="50" rx="25" fill="#ECECEC"/>
<rect x="6.5" y="138.5" width="162" height="50" rx="25" stroke="black"/>
<path d="M26.127 161.197V180.094H22.7285V158.15H25.8486L26.127 161.197ZM34.6523 165.445V166.705C34.6523 167.945 34.54 169.039 34.3154 169.986C34.0908 170.934 33.7588 171.729 33.3193 172.374C32.8896 173.009 32.3574 173.487 31.7227 173.81C31.0879 174.132 30.3457 174.293 29.4961 174.293C28.6953 174.293 27.9971 174.117 27.4014 173.766C26.8154 173.414 26.3223 172.921 25.9219 172.286C25.5215 171.651 25.1992 170.899 24.9551 170.03C24.7207 169.151 24.5498 168.194 24.4424 167.159V165.226C24.5498 164.132 24.7158 163.136 24.9404 162.237C25.1748 161.329 25.4922 160.548 25.8926 159.894C26.3027 159.239 26.8008 158.736 27.3867 158.385C27.9727 158.033 28.6709 157.857 29.4814 157.857C30.3311 157.857 31.0781 158.009 31.7227 158.312C32.3672 158.614 32.9043 159.078 33.334 159.703C33.7734 160.328 34.1006 161.119 34.3154 162.076C34.54 163.023 34.6523 164.146 34.6523 165.445ZM31.2393 166.705V165.445C31.2393 164.635 31.1855 163.937 31.0781 163.351C30.9805 162.755 30.8145 162.267 30.5801 161.886C30.3555 161.505 30.0674 161.222 29.7158 161.036C29.374 160.851 28.9492 160.758 28.4414 160.758C27.9922 160.758 27.5967 160.851 27.2549 161.036C26.9131 161.222 26.625 161.48 26.3906 161.812C26.1562 162.135 25.9707 162.521 25.834 162.97C25.6973 163.409 25.6094 163.888 25.5703 164.405V167.994C25.6582 168.619 25.8047 169.195 26.0098 169.723C26.2148 170.24 26.5127 170.655 26.9033 170.968C27.3037 171.28 27.8262 171.437 28.4707 171.437C28.9688 171.437 29.3936 171.339 29.7451 171.144C30.0967 170.948 30.3799 170.655 30.5947 170.265C30.8193 169.874 30.9805 169.386 31.0781 168.8C31.1855 168.204 31.2393 167.506 31.2393 166.705ZM41.0391 168.155L45.7998 158.15H49.125V174H45.7412V164.01L40.9805 174H37.6553V158.15H41.0391V168.155ZM58.2803 171.437C58.7197 171.437 59.1104 171.344 59.4521 171.158C59.8037 170.973 60.082 170.685 60.2871 170.294C60.4922 169.894 60.6045 169.376 60.624 168.741H63.832C63.8125 169.864 63.5537 170.846 63.0557 171.686C62.5576 172.516 61.8936 173.16 61.0635 173.619C60.2432 174.068 59.3301 174.293 58.3242 174.293C57.2793 174.293 56.3662 174.127 55.585 173.795C54.8135 173.453 54.1738 172.96 53.666 172.315C53.1582 171.671 52.7773 170.89 52.5234 169.972C52.2793 169.044 52.1572 167.984 52.1572 166.793V165.357C52.1572 164.176 52.2793 163.121 52.5234 162.193C52.7773 161.266 53.1582 160.479 53.666 159.835C54.1738 159.19 54.8135 158.702 55.585 158.37C56.3564 158.028 57.2646 157.857 58.3096 157.857C59.4229 157.857 60.3848 158.092 61.1953 158.561C62.0156 159.02 62.6553 159.693 63.1143 160.582C63.5732 161.471 63.8125 162.56 63.832 163.849H60.624C60.6045 163.165 60.502 162.594 60.3164 162.135C60.1309 161.666 59.8672 161.314 59.5254 161.08C59.1934 160.846 58.7734 160.729 58.2656 160.729C57.709 160.729 57.25 160.836 56.8887 161.051C56.5371 161.256 56.2637 161.559 56.0684 161.959C55.8828 162.359 55.751 162.848 55.6729 163.424C55.6045 163.99 55.5703 164.635 55.5703 165.357V166.793C55.5703 167.535 55.6045 168.194 55.6729 168.771C55.7412 169.337 55.8682 169.82 56.0537 170.221C56.249 170.621 56.5273 170.924 56.8887 171.129C57.25 171.334 57.7139 171.437 58.2803 171.437ZM65.9854 166.72V165.445C65.9854 164.215 66.1367 163.126 66.4395 162.179C66.7422 161.231 67.1719 160.44 67.7285 159.806C68.2949 159.161 68.959 158.678 69.7207 158.355C70.4824 158.023 71.3223 157.857 72.2402 157.857C73.1777 157.857 74.0273 158.023 74.7891 158.355C75.5605 158.678 76.2246 159.161 76.7812 159.806C77.3477 160.44 77.7822 161.231 78.085 162.179C78.3877 163.126 78.5391 164.215 78.5391 165.445V166.72C78.5391 167.95 78.3877 169.039 78.085 169.986C77.7822 170.934 77.3477 171.729 76.7812 172.374C76.2246 173.009 75.5654 173.487 74.8037 173.81C74.042 174.132 73.1973 174.293 72.2695 174.293C71.3516 174.293 70.5068 174.132 69.7354 173.81C68.9736 173.487 68.3096 173.009 67.7432 172.374C67.1768 171.729 66.7422 170.934 66.4395 169.986C66.1367 169.039 65.9854 167.95 65.9854 166.72ZM69.3984 165.445V166.72C69.3984 167.511 69.4668 168.204 69.6035 168.8C69.7402 169.386 69.9355 169.874 70.1895 170.265C70.4434 170.655 70.7461 170.948 71.0977 171.144C71.4492 171.339 71.8398 171.437 72.2695 171.437C72.748 171.437 73.1631 171.339 73.5146 171.144C73.876 170.948 74.1738 170.655 74.4082 170.265C74.6523 169.874 74.833 169.386 74.9502 168.8C75.0674 168.204 75.126 167.511 75.126 166.72V165.445C75.126 164.664 75.0576 163.98 74.9209 163.395C74.7842 162.799 74.5889 162.306 74.335 161.915C74.0811 161.515 73.7734 161.217 73.4121 161.021C73.0605 160.826 72.6699 160.729 72.2402 160.729C71.8203 160.729 71.4346 160.826 71.083 161.021C70.7412 161.217 70.4434 161.515 70.1895 161.915C69.9355 162.306 69.7402 162.799 69.6035 163.395C69.4668 163.98 69.3984 164.664 69.3984 165.445ZM88.1338 167.232H84.0322L84.0029 164.698H87.3135C87.8213 164.698 88.2363 164.635 88.5586 164.508C88.8906 164.371 89.1348 164.171 89.291 163.907C89.457 163.634 89.54 163.297 89.54 162.896C89.54 162.574 89.4912 162.291 89.3936 162.047C89.2959 161.803 89.1543 161.603 88.9688 161.446C88.7832 161.29 88.5488 161.178 88.2656 161.109C87.9824 161.031 87.6553 160.992 87.2842 160.992H85.1455V174H81.7324V158.15H87.2842C88.1533 158.15 88.9346 158.238 89.6279 158.414C90.3311 158.59 90.9268 158.858 91.415 159.22C91.9131 159.581 92.2939 160.04 92.5576 160.597C92.8213 161.144 92.9531 161.793 92.9531 162.545C92.9531 163.023 92.8604 163.478 92.6748 163.907C92.499 164.337 92.2354 164.718 91.8838 165.05C91.5322 165.382 91.0928 165.655 90.5654 165.87C90.0479 166.075 89.4521 166.207 88.7783 166.266L88.1338 167.232ZM88.1338 174H83.0068L84.4277 171.158H88.1338C88.6025 171.158 88.9785 171.085 89.2617 170.938C89.5547 170.782 89.7695 170.558 89.9062 170.265C90.0527 169.972 90.126 169.62 90.126 169.21C90.126 168.81 90.0576 168.463 89.9209 168.17C89.7939 167.867 89.584 167.638 89.291 167.481C89.0078 167.315 88.6221 167.232 88.1338 167.232H84.7354L84.7646 164.698H88.7197L89.6572 165.694C90.5459 165.763 91.2734 165.978 91.8398 166.339C92.416 166.7 92.8408 167.154 93.1143 167.701C93.3975 168.248 93.5391 168.844 93.5391 169.488C93.5391 170.23 93.417 170.885 93.1729 171.451C92.9385 172.018 92.5918 172.491 92.1328 172.872C91.6738 173.243 91.1074 173.526 90.4336 173.722C89.7598 173.907 88.9932 174 88.1338 174ZM103.866 170.777V162.882C103.866 162.335 103.788 161.896 103.632 161.563C103.485 161.231 103.266 160.992 102.973 160.846C102.689 160.689 102.333 160.611 101.903 160.611C101.454 160.611 101.073 160.704 100.761 160.89C100.458 161.075 100.229 161.329 100.072 161.651C99.916 161.964 99.8379 162.325 99.8379 162.735H96.4248C96.4248 162.101 96.5518 161.49 96.8057 160.904C97.0693 160.318 97.4453 159.796 97.9336 159.337C98.4219 158.878 99.0127 158.517 99.7061 158.253C100.399 157.989 101.171 157.857 102.021 157.857C103.036 157.857 103.939 158.028 104.73 158.37C105.521 158.702 106.142 159.244 106.591 159.996C107.05 160.738 107.279 161.715 107.279 162.926V170.323C107.279 171.056 107.323 171.71 107.411 172.286C107.509 172.853 107.641 173.346 107.807 173.766V174H104.335C104.179 173.619 104.062 173.131 103.983 172.535C103.905 171.939 103.866 171.354 103.866 170.777ZM104.32 164.347L104.335 166.559H102.694C102.206 166.559 101.767 166.627 101.376 166.764C100.985 166.891 100.653 167.076 100.38 167.32C100.116 167.555 99.9111 167.843 99.7646 168.185C99.6279 168.526 99.5596 168.902 99.5596 169.312C99.5596 169.811 99.6279 170.216 99.7646 170.528C99.9111 170.841 100.121 171.075 100.395 171.231C100.678 171.378 101.02 171.451 101.42 171.451C101.967 171.451 102.44 171.334 102.841 171.1C103.251 170.855 103.563 170.562 103.778 170.221C104.003 169.879 104.091 169.566 104.042 169.283L104.818 170.704C104.74 171.075 104.594 171.466 104.379 171.876C104.174 172.286 103.905 172.677 103.573 173.048C103.241 173.419 102.841 173.722 102.372 173.956C101.903 174.181 101.361 174.293 100.746 174.293C99.8574 174.293 99.0664 174.107 98.373 173.736C97.6797 173.365 97.1328 172.833 96.7324 172.14C96.3418 171.437 96.1465 170.597 96.1465 169.62C96.1465 168.829 96.2783 168.111 96.542 167.467C96.8057 166.822 97.1963 166.271 97.7139 165.812C98.2314 165.343 98.8809 164.981 99.6621 164.728C100.453 164.474 101.376 164.347 102.431 164.347H104.32ZM119.862 164.742V167.584H113.344V164.742H119.862ZM114.311 158.15V174H110.897V158.15H114.311ZM122.338 158.15V174H118.925V158.15H122.338ZM129.398 168.155L134.159 158.15H137.484V174H134.101V164.01L129.34 174H126.015V158.15H129.398V168.155ZM147.079 174.293C146.054 174.293 145.141 174.142 144.34 173.839C143.539 173.526 142.86 173.067 142.304 172.462C141.747 171.847 141.322 171.095 141.029 170.206C140.736 169.308 140.59 168.268 140.59 167.086V165.562C140.59 164.225 140.741 163.072 141.044 162.105C141.356 161.129 141.786 160.328 142.333 159.703C142.88 159.078 143.524 158.614 144.267 158.312C145.019 158.009 145.834 157.857 146.713 157.857C147.709 157.857 148.573 158.019 149.306 158.341C150.038 158.663 150.639 159.146 151.107 159.791C151.586 160.436 151.938 161.231 152.162 162.179C152.396 163.126 152.514 164.215 152.514 165.445V167.159H142.23V164.581H149.145V164.215C149.125 163.492 149.037 162.872 148.881 162.354C148.725 161.827 148.471 161.427 148.119 161.153C147.777 160.87 147.304 160.729 146.698 160.729C146.259 160.729 145.868 160.812 145.526 160.978C145.185 161.144 144.901 161.412 144.677 161.783C144.462 162.154 144.296 162.652 144.179 163.277C144.062 163.893 144.003 164.654 144.003 165.562V167.086C144.003 167.877 144.071 168.546 144.208 169.093C144.354 169.64 144.569 170.089 144.853 170.44C145.136 170.782 145.478 171.036 145.878 171.202C146.288 171.358 146.762 171.437 147.299 171.437C148.09 171.437 148.769 171.29 149.335 170.997C149.911 170.694 150.409 170.304 150.829 169.825L152.338 171.92C152.055 172.301 151.674 172.677 151.195 173.048C150.717 173.409 150.136 173.707 149.452 173.941C148.778 174.176 147.987 174.293 147.079 174.293Z" fill="black"/>
<rect x="232.5" y="138.5" width="235" height="50" rx="25" fill="#ECECEC"/>
<rect x="232.5" y="138.5" width="235" height="50" rx="25" stroke="black"/>
<path d="M252.127 161.197V180.094H248.729V158.15H251.849L252.127 161.197ZM260.652 165.445V166.705C260.652 167.945 260.54 169.039 260.315 169.986C260.091 170.934 259.759 171.729 259.319 172.374C258.89 173.009 258.357 173.487 257.723 173.81C257.088 174.132 256.346 174.293 255.496 174.293C254.695 174.293 253.997 174.117 253.401 173.766C252.815 173.414 252.322 172.921 251.922 172.286C251.521 171.651 251.199 170.899 250.955 170.03C250.721 169.151 250.55 168.194 250.442 167.159V165.226C250.55 164.132 250.716 163.136 250.94 162.237C251.175 161.329 251.492 160.548 251.893 159.894C252.303 159.239 252.801 158.736 253.387 158.385C253.973 158.033 254.671 157.857 255.481 157.857C256.331 157.857 257.078 158.009 257.723 158.312C258.367 158.614 258.904 159.078 259.334 159.703C259.773 160.328 260.101 161.119 260.315 162.076C260.54 163.023 260.652 164.146 260.652 165.445ZM257.239 166.705V165.445C257.239 164.635 257.186 163.937 257.078 163.351C256.98 162.755 256.814 162.267 256.58 161.886C256.355 161.505 256.067 161.222 255.716 161.036C255.374 160.851 254.949 160.758 254.441 160.758C253.992 160.758 253.597 160.851 253.255 161.036C252.913 161.222 252.625 161.48 252.391 161.812C252.156 162.135 251.971 162.521 251.834 162.97C251.697 163.409 251.609 163.888 251.57 164.405V167.994C251.658 168.619 251.805 169.195 252.01 169.723C252.215 170.24 252.513 170.655 252.903 170.968C253.304 171.28 253.826 171.437 254.471 171.437C254.969 171.437 255.394 171.339 255.745 171.144C256.097 170.948 256.38 170.655 256.595 170.265C256.819 169.874 256.98 169.386 257.078 168.8C257.186 168.204 257.239 167.506 257.239 166.705ZM270.892 170.777V162.882C270.892 162.335 270.813 161.896 270.657 161.563C270.511 161.231 270.291 160.992 269.998 160.846C269.715 160.689 269.358 160.611 268.929 160.611C268.479 160.611 268.099 160.704 267.786 160.89C267.483 161.075 267.254 161.329 267.098 161.651C266.941 161.964 266.863 162.325 266.863 162.735H263.45C263.45 162.101 263.577 161.49 263.831 160.904C264.095 160.318 264.471 159.796 264.959 159.337C265.447 158.878 266.038 158.517 266.731 158.253C267.425 157.989 268.196 157.857 269.046 157.857C270.062 157.857 270.965 158.028 271.756 158.37C272.547 158.702 273.167 159.244 273.616 159.996C274.075 160.738 274.305 161.715 274.305 162.926V170.323C274.305 171.056 274.349 171.71 274.437 172.286C274.534 172.853 274.666 173.346 274.832 173.766V174H271.36C271.204 173.619 271.087 173.131 271.009 172.535C270.931 171.939 270.892 171.354 270.892 170.777ZM271.346 164.347L271.36 166.559H269.72C269.231 166.559 268.792 166.627 268.401 166.764C268.011 166.891 267.679 167.076 267.405 167.32C267.142 167.555 266.937 167.843 266.79 168.185C266.653 168.526 266.585 168.902 266.585 169.312C266.585 169.811 266.653 170.216 266.79 170.528C266.937 170.841 267.146 171.075 267.42 171.231C267.703 171.378 268.045 171.451 268.445 171.451C268.992 171.451 269.466 171.334 269.866 171.1C270.276 170.855 270.589 170.562 270.804 170.221C271.028 169.879 271.116 169.566 271.067 169.283L271.844 170.704C271.766 171.075 271.619 171.466 271.404 171.876C271.199 172.286 270.931 172.677 270.599 173.048C270.267 173.419 269.866 173.722 269.397 173.956C268.929 174.181 268.387 174.293 267.771 174.293C266.883 174.293 266.092 174.107 265.398 173.736C264.705 173.365 264.158 172.833 263.758 172.14C263.367 171.437 263.172 170.597 263.172 169.62C263.172 168.829 263.304 168.111 263.567 167.467C263.831 166.822 264.222 166.271 264.739 165.812C265.257 165.343 265.906 164.981 266.688 164.728C267.479 164.474 268.401 164.347 269.456 164.347H271.346ZM286.082 151.207H288.821C288.821 152.066 288.719 152.779 288.514 153.346C288.309 153.912 288.006 154.376 287.605 154.737C287.205 155.089 286.717 155.377 286.141 155.602C285.564 155.826 284.905 156.026 284.163 156.202C283.499 156.368 282.898 156.642 282.361 157.022C281.834 157.403 281.39 157.926 281.028 158.59C280.667 159.254 280.408 160.108 280.252 161.153C280.105 162.188 280.076 163.453 280.164 164.947V165.914L277.483 166.178V165.211C277.483 163.346 277.625 161.72 277.908 160.333C278.201 158.937 278.611 157.76 279.139 156.803C279.676 155.846 280.311 155.089 281.043 154.532C281.785 153.966 282.605 153.57 283.504 153.346C284.041 153.189 284.5 153.033 284.881 152.877C285.271 152.721 285.569 152.516 285.774 152.262C285.979 151.998 286.082 151.646 286.082 151.207ZM284.339 159.044C285.228 159.044 286.014 159.229 286.697 159.601C287.381 159.962 287.957 160.47 288.426 161.124C288.895 161.778 289.246 162.55 289.48 163.438C289.725 164.327 289.847 165.299 289.847 166.354V166.661C289.847 167.755 289.71 168.766 289.437 169.693C289.173 170.621 288.777 171.432 288.25 172.125C287.723 172.809 287.073 173.346 286.302 173.736C285.54 174.117 284.661 174.308 283.665 174.308C282.679 174.308 281.8 174.107 281.028 173.707C280.267 173.307 279.622 172.75 279.095 172.037C278.567 171.314 278.167 170.47 277.894 169.503C277.62 168.526 277.483 167.462 277.483 166.31V165.987C277.483 165.792 277.542 165.602 277.659 165.416C277.776 165.221 277.918 165.011 278.084 164.786C278.25 164.562 278.392 164.303 278.509 164.01C278.938 163.014 279.437 162.145 280.003 161.402C280.569 160.66 281.209 160.084 281.922 159.674C282.645 159.254 283.45 159.044 284.339 159.044ZM283.65 161.915C282.977 161.915 282.439 162.12 282.039 162.53C281.639 162.931 281.346 163.473 281.16 164.156C280.984 164.83 280.896 165.562 280.896 166.354V166.661C280.896 167.306 280.945 167.921 281.043 168.507C281.141 169.083 281.297 169.591 281.512 170.03C281.727 170.47 282.01 170.816 282.361 171.07C282.723 171.314 283.157 171.437 283.665 171.437C284.183 171.437 284.617 171.314 284.969 171.07C285.32 170.816 285.604 170.47 285.818 170.03C286.033 169.591 286.189 169.083 286.287 168.507C286.385 167.921 286.434 167.306 286.434 166.661V166.354C286.434 165.748 286.385 165.182 286.287 164.654C286.189 164.117 286.033 163.644 285.818 163.233C285.604 162.823 285.315 162.501 284.954 162.267C284.603 162.032 284.168 161.915 283.65 161.915ZM292.132 166.72V165.445C292.132 164.215 292.283 163.126 292.586 162.179C292.889 161.231 293.318 160.44 293.875 159.806C294.441 159.161 295.105 158.678 295.867 158.355C296.629 158.023 297.469 157.857 298.387 157.857C299.324 157.857 300.174 158.023 300.936 158.355C301.707 158.678 302.371 159.161 302.928 159.806C303.494 160.44 303.929 161.231 304.231 162.179C304.534 163.126 304.686 164.215 304.686 165.445V166.72C304.686 167.95 304.534 169.039 304.231 169.986C303.929 170.934 303.494 171.729 302.928 172.374C302.371 173.009 301.712 173.487 300.95 173.81C300.188 174.132 299.344 174.293 298.416 174.293C297.498 174.293 296.653 174.132 295.882 173.81C295.12 173.487 294.456 173.009 293.89 172.374C293.323 171.729 292.889 170.934 292.586 169.986C292.283 169.039 292.132 167.95 292.132 166.72ZM295.545 165.445V166.72C295.545 167.511 295.613 168.204 295.75 168.8C295.887 169.386 296.082 169.874 296.336 170.265C296.59 170.655 296.893 170.948 297.244 171.144C297.596 171.339 297.986 171.437 298.416 171.437C298.895 171.437 299.31 171.339 299.661 171.144C300.022 170.948 300.32 170.655 300.555 170.265C300.799 169.874 300.979 169.386 301.097 168.8C301.214 168.204 301.272 167.511 301.272 166.72V165.445C301.272 164.664 301.204 163.98 301.067 163.395C300.931 162.799 300.735 162.306 300.481 161.915C300.228 161.515 299.92 161.217 299.559 161.021C299.207 160.826 298.816 160.729 298.387 160.729C297.967 160.729 297.581 160.826 297.229 161.021C296.888 161.217 296.59 161.515 296.336 161.915C296.082 162.306 295.887 162.799 295.75 163.395C295.613 163.98 295.545 164.664 295.545 165.445ZM313.826 158.15V174H310.398V158.15H313.826ZM318.016 158.15V160.992H306.253V158.15H318.016ZM327.61 170.777V162.882C327.61 162.335 327.532 161.896 327.376 161.563C327.229 161.231 327.01 160.992 326.717 160.846C326.434 160.689 326.077 160.611 325.647 160.611C325.198 160.611 324.817 160.704 324.505 160.89C324.202 161.075 323.973 161.329 323.816 161.651C323.66 161.964 323.582 162.325 323.582 162.735H320.169C320.169 162.101 320.296 161.49 320.55 160.904C320.813 160.318 321.189 159.796 321.678 159.337C322.166 158.878 322.757 158.517 323.45 158.253C324.144 157.989 324.915 157.857 325.765 157.857C326.78 157.857 327.684 158.028 328.475 158.37C329.266 158.702 329.886 159.244 330.335 159.996C330.794 160.738 331.023 161.715 331.023 162.926V170.323C331.023 171.056 331.067 171.71 331.155 172.286C331.253 172.853 331.385 173.346 331.551 173.766V174H328.079C327.923 173.619 327.806 173.131 327.728 172.535C327.649 171.939 327.61 171.354 327.61 170.777ZM328.064 164.347L328.079 166.559H326.438C325.95 166.559 325.511 166.627 325.12 166.764C324.729 166.891 324.397 167.076 324.124 167.32C323.86 167.555 323.655 167.843 323.509 168.185C323.372 168.526 323.304 168.902 323.304 169.312C323.304 169.811 323.372 170.216 323.509 170.528C323.655 170.841 323.865 171.075 324.139 171.231C324.422 171.378 324.764 171.451 325.164 171.451C325.711 171.451 326.185 171.334 326.585 171.1C326.995 170.855 327.308 170.562 327.522 170.221C327.747 169.879 327.835 169.566 327.786 169.283L328.562 170.704C328.484 171.075 328.338 171.466 328.123 171.876C327.918 172.286 327.649 172.677 327.317 173.048C326.985 173.419 326.585 173.722 326.116 173.956C325.647 174.181 325.105 174.293 324.49 174.293C323.602 174.293 322.811 174.107 322.117 173.736C321.424 173.365 320.877 172.833 320.477 172.14C320.086 171.437 319.891 170.597 319.891 169.62C319.891 168.829 320.022 168.111 320.286 167.467C320.55 166.822 320.94 166.271 321.458 165.812C321.976 165.343 322.625 164.981 323.406 164.728C324.197 164.474 325.12 164.347 326.175 164.347H328.064ZM347.063 171.437C347.503 171.437 347.894 171.344 348.235 171.158C348.587 170.973 348.865 170.685 349.07 170.294C349.275 169.894 349.388 169.376 349.407 168.741H352.615C352.596 169.864 352.337 170.846 351.839 171.686C351.341 172.516 350.677 173.16 349.847 173.619C349.026 174.068 348.113 174.293 347.107 174.293C346.062 174.293 345.149 174.127 344.368 173.795C343.597 173.453 342.957 172.96 342.449 172.315C341.941 171.671 341.561 170.89 341.307 169.972C341.062 169.044 340.94 167.984 340.94 166.793V165.357C340.94 164.176 341.062 163.121 341.307 162.193C341.561 161.266 341.941 160.479 342.449 159.835C342.957 159.19 343.597 158.702 344.368 158.37C345.14 158.028 346.048 157.857 347.093 157.857C348.206 157.857 349.168 158.092 349.979 158.561C350.799 159.02 351.438 159.693 351.897 160.582C352.356 161.471 352.596 162.56 352.615 163.849H349.407C349.388 163.165 349.285 162.594 349.1 162.135C348.914 161.666 348.65 161.314 348.309 161.08C347.977 160.846 347.557 160.729 347.049 160.729C346.492 160.729 346.033 160.836 345.672 161.051C345.32 161.256 345.047 161.559 344.852 161.959C344.666 162.359 344.534 162.848 344.456 163.424C344.388 163.99 344.354 164.635 344.354 165.357V166.793C344.354 167.535 344.388 168.194 344.456 168.771C344.524 169.337 344.651 169.82 344.837 170.221C345.032 170.621 345.311 170.924 345.672 171.129C346.033 171.334 346.497 171.437 347.063 171.437ZM362.298 174V158.15H365.711V171.129H370.34V158.15H373.768V174H362.298ZM375.701 171.144L375.423 178.702H372.317V174H370.662V171.144H375.701ZM384.856 167.232H380.755L380.726 164.698H384.036C384.544 164.698 384.959 164.635 385.281 164.508C385.613 164.371 385.857 164.171 386.014 163.907C386.18 163.634 386.263 163.297 386.263 162.896C386.263 162.574 386.214 162.291 386.116 162.047C386.019 161.803 385.877 161.603 385.691 161.446C385.506 161.29 385.271 161.178 384.988 161.109C384.705 161.031 384.378 160.992 384.007 160.992H381.868V174H378.455V158.15H384.007C384.876 158.15 385.657 158.238 386.351 158.414C387.054 158.59 387.649 158.858 388.138 159.22C388.636 159.581 389.017 160.04 389.28 160.597C389.544 161.144 389.676 161.793 389.676 162.545C389.676 163.023 389.583 163.478 389.397 163.907C389.222 164.337 388.958 164.718 388.606 165.05C388.255 165.382 387.815 165.655 387.288 165.87C386.771 166.075 386.175 166.207 385.501 166.266L384.856 167.232ZM384.856 174H379.729L381.15 171.158H384.856C385.325 171.158 385.701 171.085 385.984 170.938C386.277 170.782 386.492 170.558 386.629 170.265C386.775 169.972 386.849 169.62 386.849 169.21C386.849 168.81 386.78 168.463 386.644 168.17C386.517 167.867 386.307 167.638 386.014 167.481C385.73 167.315 385.345 167.232 384.856 167.232H381.458L381.487 164.698H385.442L386.38 165.694C387.269 165.763 387.996 165.978 388.562 166.339C389.139 166.7 389.563 167.154 389.837 167.701C390.12 168.248 390.262 168.844 390.262 169.488C390.262 170.23 390.14 170.885 389.896 171.451C389.661 172.018 389.314 172.491 388.855 172.872C388.396 173.243 387.83 173.526 387.156 173.722C386.482 173.907 385.716 174 384.856 174ZM399.3 174.293C398.274 174.293 397.361 174.142 396.561 173.839C395.76 173.526 395.081 173.067 394.524 172.462C393.968 171.847 393.543 171.095 393.25 170.206C392.957 169.308 392.811 168.268 392.811 167.086V165.562C392.811 164.225 392.962 163.072 393.265 162.105C393.577 161.129 394.007 160.328 394.554 159.703C395.101 159.078 395.745 158.614 396.487 158.312C397.239 158.009 398.055 157.857 398.934 157.857C399.93 157.857 400.794 158.019 401.526 158.341C402.259 158.663 402.859 159.146 403.328 159.791C403.807 160.436 404.158 161.231 404.383 162.179C404.617 163.126 404.734 164.215 404.734 165.445V167.159H394.451V164.581H401.365V164.215C401.346 163.492 401.258 162.872 401.102 162.354C400.945 161.827 400.691 161.427 400.34 161.153C399.998 160.87 399.524 160.729 398.919 160.729C398.479 160.729 398.089 160.812 397.747 160.978C397.405 161.144 397.122 161.412 396.897 161.783C396.683 162.154 396.517 162.652 396.399 163.277C396.282 163.893 396.224 164.654 396.224 165.562V167.086C396.224 167.877 396.292 168.546 396.429 169.093C396.575 169.64 396.79 170.089 397.073 170.44C397.356 170.782 397.698 171.036 398.099 171.202C398.509 171.358 398.982 171.437 399.52 171.437C400.311 171.437 400.989 171.29 401.556 170.997C402.132 170.694 402.63 170.304 403.05 169.825L404.559 171.92C404.275 172.301 403.895 172.677 403.416 173.048C402.938 173.409 402.356 173.707 401.673 173.941C400.999 174.176 400.208 174.293 399.3 174.293ZM413.875 158.15V174H410.447V158.15H413.875ZM418.064 158.15V160.992H406.302V158.15H418.064ZM419.515 166.72V165.445C419.515 164.215 419.666 163.126 419.969 162.179C420.271 161.231 420.701 160.44 421.258 159.806C421.824 159.161 422.488 158.678 423.25 158.355C424.012 158.023 424.852 157.857 425.77 157.857C426.707 157.857 427.557 158.023 428.318 158.355C429.09 158.678 429.754 159.161 430.311 159.806C430.877 160.44 431.312 161.231 431.614 162.179C431.917 163.126 432.068 164.215 432.068 165.445V166.72C432.068 167.95 431.917 169.039 431.614 169.986C431.312 170.934 430.877 171.729 430.311 172.374C429.754 173.009 429.095 173.487 428.333 173.81C427.571 174.132 426.727 174.293 425.799 174.293C424.881 174.293 424.036 174.132 423.265 173.81C422.503 173.487 421.839 173.009 421.272 172.374C420.706 171.729 420.271 170.934 419.969 169.986C419.666 169.039 419.515 167.95 419.515 166.72ZM422.928 165.445V166.72C422.928 167.511 422.996 168.204 423.133 168.8C423.27 169.386 423.465 169.874 423.719 170.265C423.973 170.655 424.275 170.948 424.627 171.144C424.979 171.339 425.369 171.437 425.799 171.437C426.277 171.437 426.692 171.339 427.044 171.144C427.405 170.948 427.703 170.655 427.938 170.265C428.182 169.874 428.362 169.386 428.479 168.8C428.597 168.204 428.655 167.511 428.655 166.72V165.445C428.655 164.664 428.587 163.98 428.45 163.395C428.313 162.799 428.118 162.306 427.864 161.915C427.61 161.515 427.303 161.217 426.941 161.021C426.59 160.826 426.199 160.729 425.77 160.729C425.35 160.729 424.964 160.826 424.612 161.021C424.271 161.217 423.973 161.515 423.719 161.915C423.465 162.306 423.27 162.799 423.133 163.395C422.996 163.98 422.928 164.664 422.928 165.445ZM443.084 169.269L446.629 158.15H449.588L444.3 174H441.854L436.551 158.15H439.539L443.084 169.269ZM438.602 158.15V174H435.262V158.15H438.602ZM447.566 174V158.15H450.921V174H447.566Z" fill="black"/>
<rect x="222.5" y="265.5" width="245" height="50" rx="25" fill="#ECECEC"/>
<rect x="222.5" y="265.5" width="245" height="50" rx="25" stroke="black"/>
<path d="M242.127 288.197V307.094H238.729V285.15H241.849L242.127 288.197ZM250.652 292.445V293.705C250.652 294.945 250.54 296.039 250.315 296.986C250.091 297.934 249.759 298.729 249.319 299.374C248.89 300.009 248.357 300.487 247.723 300.81C247.088 301.132 246.346 301.293 245.496 301.293C244.695 301.293 243.997 301.117 243.401 300.766C242.815 300.414 242.322 299.921 241.922 299.286C241.521 298.651 241.199 297.899 240.955 297.03C240.721 296.151 240.55 295.194 240.442 294.159V292.226C240.55 291.132 240.716 290.136 240.94 289.237C241.175 288.329 241.492 287.548 241.893 286.894C242.303 286.239 242.801 285.736 243.387 285.385C243.973 285.033 244.671 284.857 245.481 284.857C246.331 284.857 247.078 285.009 247.723 285.312C248.367 285.614 248.904 286.078 249.334 286.703C249.773 287.328 250.101 288.119 250.315 289.076C250.54 290.023 250.652 291.146 250.652 292.445ZM247.239 293.705V292.445C247.239 291.635 247.186 290.937 247.078 290.351C246.98 289.755 246.814 289.267 246.58 288.886C246.355 288.505 246.067 288.222 245.716 288.036C245.374 287.851 244.949 287.758 244.441 287.758C243.992 287.758 243.597 287.851 243.255 288.036C242.913 288.222 242.625 288.48 242.391 288.812C242.156 289.135 241.971 289.521 241.834 289.97C241.697 290.409 241.609 290.888 241.57 291.405V294.994C241.658 295.619 241.805 296.195 242.01 296.723C242.215 297.24 242.513 297.655 242.903 297.968C243.304 298.28 243.826 298.437 244.471 298.437C244.969 298.437 245.394 298.339 245.745 298.144C246.097 297.948 246.38 297.655 246.595 297.265C246.819 296.874 246.98 296.386 247.078 295.8C247.186 295.204 247.239 294.506 247.239 293.705ZM260.892 297.777V289.882C260.892 289.335 260.813 288.896 260.657 288.563C260.511 288.231 260.291 287.992 259.998 287.846C259.715 287.689 259.358 287.611 258.929 287.611C258.479 287.611 258.099 287.704 257.786 287.89C257.483 288.075 257.254 288.329 257.098 288.651C256.941 288.964 256.863 289.325 256.863 289.735H253.45C253.45 289.101 253.577 288.49 253.831 287.904C254.095 287.318 254.471 286.796 254.959 286.337C255.447 285.878 256.038 285.517 256.731 285.253C257.425 284.989 258.196 284.857 259.046 284.857C260.062 284.857 260.965 285.028 261.756 285.37C262.547 285.702 263.167 286.244 263.616 286.996C264.075 287.738 264.305 288.715 264.305 289.926V297.323C264.305 298.056 264.349 298.71 264.437 299.286C264.534 299.853 264.666 300.346 264.832 300.766V301H261.36C261.204 300.619 261.087 300.131 261.009 299.535C260.931 298.939 260.892 298.354 260.892 297.777ZM261.346 291.347L261.36 293.559H259.72C259.231 293.559 258.792 293.627 258.401 293.764C258.011 293.891 257.679 294.076 257.405 294.32C257.142 294.555 256.937 294.843 256.79 295.185C256.653 295.526 256.585 295.902 256.585 296.312C256.585 296.811 256.653 297.216 256.79 297.528C256.937 297.841 257.146 298.075 257.42 298.231C257.703 298.378 258.045 298.451 258.445 298.451C258.992 298.451 259.466 298.334 259.866 298.1C260.276 297.855 260.589 297.562 260.804 297.221C261.028 296.879 261.116 296.566 261.067 296.283L261.844 297.704C261.766 298.075 261.619 298.466 261.404 298.876C261.199 299.286 260.931 299.677 260.599 300.048C260.267 300.419 259.866 300.722 259.397 300.956C258.929 301.181 258.387 301.293 257.771 301.293C256.883 301.293 256.092 301.107 255.398 300.736C254.705 300.365 254.158 299.833 253.758 299.14C253.367 298.437 253.172 297.597 253.172 296.62C253.172 295.829 253.304 295.111 253.567 294.467C253.831 293.822 254.222 293.271 254.739 292.812C255.257 292.343 255.906 291.981 256.688 291.728C257.479 291.474 258.401 291.347 259.456 291.347H261.346ZM276.082 278.207H278.821C278.821 279.066 278.719 279.779 278.514 280.346C278.309 280.912 278.006 281.376 277.605 281.737C277.205 282.089 276.717 282.377 276.141 282.602C275.564 282.826 274.905 283.026 274.163 283.202C273.499 283.368 272.898 283.642 272.361 284.022C271.834 284.403 271.39 284.926 271.028 285.59C270.667 286.254 270.408 287.108 270.252 288.153C270.105 289.188 270.076 290.453 270.164 291.947V292.914L267.483 293.178V292.211C267.483 290.346 267.625 288.72 267.908 287.333C268.201 285.937 268.611 284.76 269.139 283.803C269.676 282.846 270.311 282.089 271.043 281.532C271.785 280.966 272.605 280.57 273.504 280.346C274.041 280.189 274.5 280.033 274.881 279.877C275.271 279.721 275.569 279.516 275.774 279.262C275.979 278.998 276.082 278.646 276.082 278.207ZM274.339 286.044C275.228 286.044 276.014 286.229 276.697 286.601C277.381 286.962 277.957 287.47 278.426 288.124C278.895 288.778 279.246 289.55 279.48 290.438C279.725 291.327 279.847 292.299 279.847 293.354V293.661C279.847 294.755 279.71 295.766 279.437 296.693C279.173 297.621 278.777 298.432 278.25 299.125C277.723 299.809 277.073 300.346 276.302 300.736C275.54 301.117 274.661 301.308 273.665 301.308C272.679 301.308 271.8 301.107 271.028 300.707C270.267 300.307 269.622 299.75 269.095 299.037C268.567 298.314 268.167 297.47 267.894 296.503C267.62 295.526 267.483 294.462 267.483 293.31V292.987C267.483 292.792 267.542 292.602 267.659 292.416C267.776 292.221 267.918 292.011 268.084 291.786C268.25 291.562 268.392 291.303 268.509 291.01C268.938 290.014 269.437 289.145 270.003 288.402C270.569 287.66 271.209 287.084 271.922 286.674C272.645 286.254 273.45 286.044 274.339 286.044ZM273.65 288.915C272.977 288.915 272.439 289.12 272.039 289.53C271.639 289.931 271.346 290.473 271.16 291.156C270.984 291.83 270.896 292.562 270.896 293.354V293.661C270.896 294.306 270.945 294.921 271.043 295.507C271.141 296.083 271.297 296.591 271.512 297.03C271.727 297.47 272.01 297.816 272.361 298.07C272.723 298.314 273.157 298.437 273.665 298.437C274.183 298.437 274.617 298.314 274.969 298.07C275.32 297.816 275.604 297.47 275.818 297.03C276.033 296.591 276.189 296.083 276.287 295.507C276.385 294.921 276.434 294.306 276.434 293.661V293.354C276.434 292.748 276.385 292.182 276.287 291.654C276.189 291.117 276.033 290.644 275.818 290.233C275.604 289.823 275.315 289.501 274.954 289.267C274.603 289.032 274.168 288.915 273.65 288.915ZM282.132 293.72V292.445C282.132 291.215 282.283 290.126 282.586 289.179C282.889 288.231 283.318 287.44 283.875 286.806C284.441 286.161 285.105 285.678 285.867 285.355C286.629 285.023 287.469 284.857 288.387 284.857C289.324 284.857 290.174 285.023 290.936 285.355C291.707 285.678 292.371 286.161 292.928 286.806C293.494 287.44 293.929 288.231 294.231 289.179C294.534 290.126 294.686 291.215 294.686 292.445V293.72C294.686 294.95 294.534 296.039 294.231 296.986C293.929 297.934 293.494 298.729 292.928 299.374C292.371 300.009 291.712 300.487 290.95 300.81C290.188 301.132 289.344 301.293 288.416 301.293C287.498 301.293 286.653 301.132 285.882 300.81C285.12 300.487 284.456 300.009 283.89 299.374C283.323 298.729 282.889 297.934 282.586 296.986C282.283 296.039 282.132 294.95 282.132 293.72ZM285.545 292.445V293.72C285.545 294.511 285.613 295.204 285.75 295.8C285.887 296.386 286.082 296.874 286.336 297.265C286.59 297.655 286.893 297.948 287.244 298.144C287.596 298.339 287.986 298.437 288.416 298.437C288.895 298.437 289.31 298.339 289.661 298.144C290.022 297.948 290.32 297.655 290.555 297.265C290.799 296.874 290.979 296.386 291.097 295.8C291.214 295.204 291.272 294.511 291.272 293.72V292.445C291.272 291.664 291.204 290.98 291.067 290.395C290.931 289.799 290.735 289.306 290.481 288.915C290.228 288.515 289.92 288.217 289.559 288.021C289.207 287.826 288.816 287.729 288.387 287.729C287.967 287.729 287.581 287.826 287.229 288.021C286.888 288.217 286.59 288.515 286.336 288.915C286.082 289.306 285.887 289.799 285.75 290.395C285.613 290.98 285.545 291.664 285.545 292.445ZM303.826 285.15V301H300.398V285.15H303.826ZM308.016 285.15V287.992H296.253V285.15H308.016ZM317.61 297.777V289.882C317.61 289.335 317.532 288.896 317.376 288.563C317.229 288.231 317.01 287.992 316.717 287.846C316.434 287.689 316.077 287.611 315.647 287.611C315.198 287.611 314.817 287.704 314.505 287.89C314.202 288.075 313.973 288.329 313.816 288.651C313.66 288.964 313.582 289.325 313.582 289.735H310.169C310.169 289.101 310.296 288.49 310.55 287.904C310.813 287.318 311.189 286.796 311.678 286.337C312.166 285.878 312.757 285.517 313.45 285.253C314.144 284.989 314.915 284.857 315.765 284.857C316.78 284.857 317.684 285.028 318.475 285.37C319.266 285.702 319.886 286.244 320.335 286.996C320.794 287.738 321.023 288.715 321.023 289.926V297.323C321.023 298.056 321.067 298.71 321.155 299.286C321.253 299.853 321.385 300.346 321.551 300.766V301H318.079C317.923 300.619 317.806 300.131 317.728 299.535C317.649 298.939 317.61 298.354 317.61 297.777ZM318.064 291.347L318.079 293.559H316.438C315.95 293.559 315.511 293.627 315.12 293.764C314.729 293.891 314.397 294.076 314.124 294.32C313.86 294.555 313.655 294.843 313.509 295.185C313.372 295.526 313.304 295.902 313.304 296.312C313.304 296.811 313.372 297.216 313.509 297.528C313.655 297.841 313.865 298.075 314.139 298.231C314.422 298.378 314.764 298.451 315.164 298.451C315.711 298.451 316.185 298.334 316.585 298.1C316.995 297.855 317.308 297.562 317.522 297.221C317.747 296.879 317.835 296.566 317.786 296.283L318.562 297.704C318.484 298.075 318.338 298.466 318.123 298.876C317.918 299.286 317.649 299.677 317.317 300.048C316.985 300.419 316.585 300.722 316.116 300.956C315.647 301.181 315.105 301.293 314.49 301.293C313.602 301.293 312.811 301.107 312.117 300.736C311.424 300.365 310.877 299.833 310.477 299.14C310.086 298.437 309.891 297.597 309.891 296.62C309.891 295.829 310.022 295.111 310.286 294.467C310.55 293.822 310.94 293.271 311.458 292.812C311.976 292.343 312.625 291.981 313.406 291.728C314.197 291.474 315.12 291.347 316.175 291.347H318.064ZM337.063 298.437C337.503 298.437 337.894 298.344 338.235 298.158C338.587 297.973 338.865 297.685 339.07 297.294C339.275 296.894 339.388 296.376 339.407 295.741H342.615C342.596 296.864 342.337 297.846 341.839 298.686C341.341 299.516 340.677 300.16 339.847 300.619C339.026 301.068 338.113 301.293 337.107 301.293C336.062 301.293 335.149 301.127 334.368 300.795C333.597 300.453 332.957 299.96 332.449 299.315C331.941 298.671 331.561 297.89 331.307 296.972C331.062 296.044 330.94 294.984 330.94 293.793V292.357C330.94 291.176 331.062 290.121 331.307 289.193C331.561 288.266 331.941 287.479 332.449 286.835C332.957 286.19 333.597 285.702 334.368 285.37C335.14 285.028 336.048 284.857 337.093 284.857C338.206 284.857 339.168 285.092 339.979 285.561C340.799 286.02 341.438 286.693 341.897 287.582C342.356 288.471 342.596 289.56 342.615 290.849H339.407C339.388 290.165 339.285 289.594 339.1 289.135C338.914 288.666 338.65 288.314 338.309 288.08C337.977 287.846 337.557 287.729 337.049 287.729C336.492 287.729 336.033 287.836 335.672 288.051C335.32 288.256 335.047 288.559 334.852 288.959C334.666 289.359 334.534 289.848 334.456 290.424C334.388 290.99 334.354 291.635 334.354 292.357V293.793C334.354 294.535 334.388 295.194 334.456 295.771C334.524 296.337 334.651 296.82 334.837 297.221C335.032 297.621 335.311 297.924 335.672 298.129C336.033 298.334 336.497 298.437 337.063 298.437ZM358.758 285.15V301H355.33V285.15H358.758ZM362.947 285.15V287.992H351.185V285.15H362.947ZM370.433 301.293C369.407 301.293 368.494 301.142 367.693 300.839C366.893 300.526 366.214 300.067 365.657 299.462C365.101 298.847 364.676 298.095 364.383 297.206C364.09 296.308 363.943 295.268 363.943 294.086V292.562C363.943 291.225 364.095 290.072 364.397 289.105C364.71 288.129 365.14 287.328 365.687 286.703C366.233 286.078 366.878 285.614 367.62 285.312C368.372 285.009 369.188 284.857 370.066 284.857C371.062 284.857 371.927 285.019 372.659 285.341C373.392 285.663 373.992 286.146 374.461 286.791C374.939 287.436 375.291 288.231 375.516 289.179C375.75 290.126 375.867 291.215 375.867 292.445V294.159H365.584V291.581H372.498V291.215C372.479 290.492 372.391 289.872 372.234 289.354C372.078 288.827 371.824 288.427 371.473 288.153C371.131 287.87 370.657 287.729 370.052 287.729C369.612 287.729 369.222 287.812 368.88 287.978C368.538 288.144 368.255 288.412 368.03 288.783C367.815 289.154 367.649 289.652 367.532 290.277C367.415 290.893 367.356 291.654 367.356 292.562V294.086C367.356 294.877 367.425 295.546 367.562 296.093C367.708 296.64 367.923 297.089 368.206 297.44C368.489 297.782 368.831 298.036 369.231 298.202C369.642 298.358 370.115 298.437 370.652 298.437C371.443 298.437 372.122 298.29 372.688 297.997C373.265 297.694 373.763 297.304 374.183 296.825L375.691 298.92C375.408 299.301 375.027 299.677 374.549 300.048C374.07 300.409 373.489 300.707 372.806 300.941C372.132 301.176 371.341 301.293 370.433 301.293ZM382.298 285.15V301H378.87V285.15H382.298ZM390.955 285.15L384.92 294.73H381.492L381.023 291.449H383.426L386.736 285.15H390.955ZM386.868 301L383.25 294.115L385.945 292.094L391.307 301H386.868ZM398.792 298.437C399.231 298.437 399.622 298.344 399.964 298.158C400.315 297.973 400.594 297.685 400.799 297.294C401.004 296.894 401.116 296.376 401.136 295.741H404.344C404.324 296.864 404.065 297.846 403.567 298.686C403.069 299.516 402.405 300.16 401.575 300.619C400.755 301.068 399.842 301.293 398.836 301.293C397.791 301.293 396.878 301.127 396.097 300.795C395.325 300.453 394.686 299.96 394.178 299.315C393.67 298.671 393.289 297.89 393.035 296.972C392.791 296.044 392.669 294.984 392.669 293.793V292.357C392.669 291.176 392.791 290.121 393.035 289.193C393.289 288.266 393.67 287.479 394.178 286.835C394.686 286.19 395.325 285.702 396.097 285.37C396.868 285.028 397.776 284.857 398.821 284.857C399.935 284.857 400.896 285.092 401.707 285.561C402.527 286.02 403.167 286.693 403.626 287.582C404.085 288.471 404.324 289.56 404.344 290.849H401.136C401.116 290.165 401.014 289.594 400.828 289.135C400.643 288.666 400.379 288.314 400.037 288.08C399.705 287.846 399.285 287.729 398.777 287.729C398.221 287.729 397.762 287.836 397.4 288.051C397.049 288.256 396.775 288.559 396.58 288.959C396.395 289.359 396.263 289.848 396.185 290.424C396.116 290.99 396.082 291.635 396.082 292.357V293.793C396.082 294.535 396.116 295.194 396.185 295.771C396.253 296.337 396.38 296.82 396.565 297.221C396.761 297.621 397.039 297.924 397.4 298.129C397.762 298.334 398.226 298.437 398.792 298.437ZM413.572 285.15V301H410.145V285.15H413.572ZM417.762 285.15V287.992H405.999V285.15H417.762ZM419.212 293.72V292.445C419.212 291.215 419.363 290.126 419.666 289.179C419.969 288.231 420.398 287.44 420.955 286.806C421.521 286.161 422.186 285.678 422.947 285.355C423.709 285.023 424.549 284.857 425.467 284.857C426.404 284.857 427.254 285.023 428.016 285.355C428.787 285.678 429.451 286.161 430.008 286.806C430.574 287.44 431.009 288.231 431.312 289.179C431.614 290.126 431.766 291.215 431.766 292.445V293.72C431.766 294.95 431.614 296.039 431.312 296.986C431.009 297.934 430.574 298.729 430.008 299.374C429.451 300.009 428.792 300.487 428.03 300.81C427.269 301.132 426.424 301.293 425.496 301.293C424.578 301.293 423.733 301.132 422.962 300.81C422.2 300.487 421.536 300.009 420.97 299.374C420.403 298.729 419.969 297.934 419.666 296.986C419.363 296.039 419.212 294.95 419.212 293.72ZM422.625 292.445V293.72C422.625 294.511 422.693 295.204 422.83 295.8C422.967 296.386 423.162 296.874 423.416 297.265C423.67 297.655 423.973 297.948 424.324 298.144C424.676 298.339 425.066 298.437 425.496 298.437C425.975 298.437 426.39 298.339 426.741 298.144C427.103 297.948 427.4 297.655 427.635 297.265C427.879 296.874 428.06 296.386 428.177 295.8C428.294 295.204 428.353 294.511 428.353 293.72V292.445C428.353 291.664 428.284 290.98 428.147 290.395C428.011 289.799 427.815 289.306 427.562 288.915C427.308 288.515 427 288.217 426.639 288.021C426.287 287.826 425.896 287.729 425.467 287.729C425.047 287.729 424.661 287.826 424.31 288.021C423.968 288.217 423.67 288.515 423.416 288.915C423.162 289.306 422.967 289.799 422.83 290.395C422.693 290.98 422.625 291.664 422.625 292.445ZM442.781 296.269L446.326 285.15H449.285L443.997 301H441.551L436.248 285.15H439.236L442.781 296.269ZM438.299 285.15V301H434.959V285.15H438.299ZM447.264 301V285.15H450.618V301H447.264Z" fill="black"/>
<rect x="80.5" y="200.5" width="311" height="50" rx="25" fill="#ECECEC"/>
<rect x="80.5" y="200.5" width="311" height="50" rx="25" stroke="black"/>
<path d="M100.127 223.197V242.094H96.7285V220.15H99.8486L100.127 223.197ZM108.652 227.445V228.705C108.652 229.945 108.54 231.039 108.315 231.986C108.091 232.934 107.759 233.729 107.319 234.374C106.89 235.009 106.357 235.487 105.723 235.81C105.088 236.132 104.346 236.293 103.496 236.293C102.695 236.293 101.997 236.117 101.401 235.766C100.815 235.414 100.322 234.921 99.9219 234.286C99.5215 233.651 99.1992 232.899 98.9551 232.03C98.7207 231.151 98.5498 230.194 98.4424 229.159V227.226C98.5498 226.132 98.7158 225.136 98.9404 224.237C99.1748 223.329 99.4922 222.548 99.8926 221.894C100.303 221.239 100.801 220.736 101.387 220.385C101.973 220.033 102.671 219.857 103.481 219.857C104.331 219.857 105.078 220.009 105.723 220.312C106.367 220.614 106.904 221.078 107.334 221.703C107.773 222.328 108.101 223.119 108.315 224.076C108.54 225.023 108.652 226.146 108.652 227.445ZM105.239 228.705V227.445C105.239 226.635 105.186 225.937 105.078 225.351C104.98 224.755 104.814 224.267 104.58 223.886C104.355 223.505 104.067 223.222 103.716 223.036C103.374 222.851 102.949 222.758 102.441 222.758C101.992 222.758 101.597 222.851 101.255 223.036C100.913 223.222 100.625 223.48 100.391 223.812C100.156 224.135 99.9707 224.521 99.834 224.97C99.6973 225.409 99.6094 225.888 99.5703 226.405V229.994C99.6582 230.619 99.8047 231.195 100.01 231.723C100.215 232.24 100.513 232.655 100.903 232.968C101.304 233.28 101.826 233.437 102.471 233.437C102.969 233.437 103.394 233.339 103.745 233.144C104.097 232.948 104.38 232.655 104.595 232.265C104.819 231.874 104.98 231.386 105.078 230.8C105.186 230.204 105.239 229.506 105.239 228.705ZM118.892 232.777V224.882C118.892 224.335 118.813 223.896 118.657 223.563C118.511 223.231 118.291 222.992 117.998 222.846C117.715 222.689 117.358 222.611 116.929 222.611C116.479 222.611 116.099 222.704 115.786 222.89C115.483 223.075 115.254 223.329 115.098 223.651C114.941 223.964 114.863 224.325 114.863 224.735H111.45C111.45 224.101 111.577 223.49 111.831 222.904C112.095 222.318 112.471 221.796 112.959 221.337C113.447 220.878 114.038 220.517 114.731 220.253C115.425 219.989 116.196 219.857 117.046 219.857C118.062 219.857 118.965 220.028 119.756 220.37C120.547 220.702 121.167 221.244 121.616 221.996C122.075 222.738 122.305 223.715 122.305 224.926V232.323C122.305 233.056 122.349 233.71 122.437 234.286C122.534 234.853 122.666 235.346 122.832 235.766V236H119.36C119.204 235.619 119.087 235.131 119.009 234.535C118.931 233.939 118.892 233.354 118.892 232.777ZM119.346 226.347L119.36 228.559H117.72C117.231 228.559 116.792 228.627 116.401 228.764C116.011 228.891 115.679 229.076 115.405 229.32C115.142 229.555 114.937 229.843 114.79 230.185C114.653 230.526 114.585 230.902 114.585 231.312C114.585 231.811 114.653 232.216 114.79 232.528C114.937 232.841 115.146 233.075 115.42 233.231C115.703 233.378 116.045 233.451 116.445 233.451C116.992 233.451 117.466 233.334 117.866 233.1C118.276 232.855 118.589 232.562 118.804 232.221C119.028 231.879 119.116 231.566 119.067 231.283L119.844 232.704C119.766 233.075 119.619 233.466 119.404 233.876C119.199 234.286 118.931 234.677 118.599 235.048C118.267 235.419 117.866 235.722 117.397 235.956C116.929 236.181 116.387 236.293 115.771 236.293C114.883 236.293 114.092 236.107 113.398 235.736C112.705 235.365 112.158 234.833 111.758 234.14C111.367 233.437 111.172 232.597 111.172 231.62C111.172 230.829 111.304 230.111 111.567 229.467C111.831 228.822 112.222 228.271 112.739 227.812C113.257 227.343 113.906 226.981 114.688 226.728C115.479 226.474 116.401 226.347 117.456 226.347H119.346ZM134.082 213.207H136.821C136.821 214.066 136.719 214.779 136.514 215.346C136.309 215.912 136.006 216.376 135.605 216.737C135.205 217.089 134.717 217.377 134.141 217.602C133.564 217.826 132.905 218.026 132.163 218.202C131.499 218.368 130.898 218.642 130.361 219.022C129.834 219.403 129.39 219.926 129.028 220.59C128.667 221.254 128.408 222.108 128.252 223.153C128.105 224.188 128.076 225.453 128.164 226.947V227.914L125.483 228.178V227.211C125.483 225.346 125.625 223.72 125.908 222.333C126.201 220.937 126.611 219.76 127.139 218.803C127.676 217.846 128.311 217.089 129.043 216.532C129.785 215.966 130.605 215.57 131.504 215.346C132.041 215.189 132.5 215.033 132.881 214.877C133.271 214.721 133.569 214.516 133.774 214.262C133.979 213.998 134.082 213.646 134.082 213.207ZM132.339 221.044C133.228 221.044 134.014 221.229 134.697 221.601C135.381 221.962 135.957 222.47 136.426 223.124C136.895 223.778 137.246 224.55 137.48 225.438C137.725 226.327 137.847 227.299 137.847 228.354V228.661C137.847 229.755 137.71 230.766 137.437 231.693C137.173 232.621 136.777 233.432 136.25 234.125C135.723 234.809 135.073 235.346 134.302 235.736C133.54 236.117 132.661 236.308 131.665 236.308C130.679 236.308 129.8 236.107 129.028 235.707C128.267 235.307 127.622 234.75 127.095 234.037C126.567 233.314 126.167 232.47 125.894 231.503C125.62 230.526 125.483 229.462 125.483 228.31V227.987C125.483 227.792 125.542 227.602 125.659 227.416C125.776 227.221 125.918 227.011 126.084 226.786C126.25 226.562 126.392 226.303 126.509 226.01C126.938 225.014 127.437 224.145 128.003 223.402C128.569 222.66 129.209 222.084 129.922 221.674C130.645 221.254 131.45 221.044 132.339 221.044ZM131.65 223.915C130.977 223.915 130.439 224.12 130.039 224.53C129.639 224.931 129.346 225.473 129.16 226.156C128.984 226.83 128.896 227.562 128.896 228.354V228.661C128.896 229.306 128.945 229.921 129.043 230.507C129.141 231.083 129.297 231.591 129.512 232.03C129.727 232.47 130.01 232.816 130.361 233.07C130.723 233.314 131.157 233.437 131.665 233.437C132.183 233.437 132.617 233.314 132.969 233.07C133.32 232.816 133.604 232.47 133.818 232.03C134.033 231.591 134.189 231.083 134.287 230.507C134.385 229.921 134.434 229.306 134.434 228.661V228.354C134.434 227.748 134.385 227.182 134.287 226.654C134.189 226.117 134.033 225.644 133.818 225.233C133.604 224.823 133.315 224.501 132.954 224.267C132.603 224.032 132.168 223.915 131.65 223.915ZM140.132 228.72V227.445C140.132 226.215 140.283 225.126 140.586 224.179C140.889 223.231 141.318 222.44 141.875 221.806C142.441 221.161 143.105 220.678 143.867 220.355C144.629 220.023 145.469 219.857 146.387 219.857C147.324 219.857 148.174 220.023 148.936 220.355C149.707 220.678 150.371 221.161 150.928 221.806C151.494 222.44 151.929 223.231 152.231 224.179C152.534 225.126 152.686 226.215 152.686 227.445V228.72C152.686 229.95 152.534 231.039 152.231 231.986C151.929 232.934 151.494 233.729 150.928 234.374C150.371 235.009 149.712 235.487 148.95 235.81C148.188 236.132 147.344 236.293 146.416 236.293C145.498 236.293 144.653 236.132 143.882 235.81C143.12 235.487 142.456 235.009 141.89 234.374C141.323 233.729 140.889 232.934 140.586 231.986C140.283 231.039 140.132 229.95 140.132 228.72ZM143.545 227.445V228.72C143.545 229.511 143.613 230.204 143.75 230.8C143.887 231.386 144.082 231.874 144.336 232.265C144.59 232.655 144.893 232.948 145.244 233.144C145.596 233.339 145.986 233.437 146.416 233.437C146.895 233.437 147.31 233.339 147.661 233.144C148.022 232.948 148.32 232.655 148.555 232.265C148.799 231.874 148.979 231.386 149.097 230.8C149.214 230.204 149.272 229.511 149.272 228.72V227.445C149.272 226.664 149.204 225.98 149.067 225.395C148.931 224.799 148.735 224.306 148.481 223.915C148.228 223.515 147.92 223.217 147.559 223.021C147.207 222.826 146.816 222.729 146.387 222.729C145.967 222.729 145.581 222.826 145.229 223.021C144.888 223.217 144.59 223.515 144.336 223.915C144.082 224.306 143.887 224.799 143.75 225.395C143.613 225.98 143.545 226.664 143.545 227.445ZM161.826 220.15V236H158.398V220.15H161.826ZM166.016 220.15V222.992H154.253V220.15H166.016ZM175.61 232.777V224.882C175.61 224.335 175.532 223.896 175.376 223.563C175.229 223.231 175.01 222.992 174.717 222.846C174.434 222.689 174.077 222.611 173.647 222.611C173.198 222.611 172.817 222.704 172.505 222.89C172.202 223.075 171.973 223.329 171.816 223.651C171.66 223.964 171.582 224.325 171.582 224.735H168.169C168.169 224.101 168.296 223.49 168.55 222.904C168.813 222.318 169.189 221.796 169.678 221.337C170.166 220.878 170.757 220.517 171.45 220.253C172.144 219.989 172.915 219.857 173.765 219.857C174.78 219.857 175.684 220.028 176.475 220.37C177.266 220.702 177.886 221.244 178.335 221.996C178.794 222.738 179.023 223.715 179.023 224.926V232.323C179.023 233.056 179.067 233.71 179.155 234.286C179.253 234.853 179.385 235.346 179.551 235.766V236H176.079C175.923 235.619 175.806 235.131 175.728 234.535C175.649 233.939 175.61 233.354 175.61 232.777ZM176.064 226.347L176.079 228.559H174.438C173.95 228.559 173.511 228.627 173.12 228.764C172.729 228.891 172.397 229.076 172.124 229.32C171.86 229.555 171.655 229.843 171.509 230.185C171.372 230.526 171.304 230.902 171.304 231.312C171.304 231.811 171.372 232.216 171.509 232.528C171.655 232.841 171.865 233.075 172.139 233.231C172.422 233.378 172.764 233.451 173.164 233.451C173.711 233.451 174.185 233.334 174.585 233.1C174.995 232.855 175.308 232.562 175.522 232.221C175.747 231.879 175.835 231.566 175.786 231.283L176.562 232.704C176.484 233.075 176.338 233.466 176.123 233.876C175.918 234.286 175.649 234.677 175.317 235.048C174.985 235.419 174.585 235.722 174.116 235.956C173.647 236.181 173.105 236.293 172.49 236.293C171.602 236.293 170.811 236.107 170.117 235.736C169.424 235.365 168.877 234.833 168.477 234.14C168.086 233.437 167.891 232.597 167.891 231.62C167.891 230.829 168.022 230.111 168.286 229.467C168.55 228.822 168.94 228.271 169.458 227.812C169.976 227.343 170.625 226.981 171.406 226.728C172.197 226.474 173.12 226.347 174.175 226.347H176.064ZM195.063 233.437C195.503 233.437 195.894 233.344 196.235 233.158C196.587 232.973 196.865 232.685 197.07 232.294C197.275 231.894 197.388 231.376 197.407 230.741H200.615C200.596 231.864 200.337 232.846 199.839 233.686C199.341 234.516 198.677 235.16 197.847 235.619C197.026 236.068 196.113 236.293 195.107 236.293C194.062 236.293 193.149 236.127 192.368 235.795C191.597 235.453 190.957 234.96 190.449 234.315C189.941 233.671 189.561 232.89 189.307 231.972C189.062 231.044 188.94 229.984 188.94 228.793V227.357C188.94 226.176 189.062 225.121 189.307 224.193C189.561 223.266 189.941 222.479 190.449 221.835C190.957 221.19 191.597 220.702 192.368 220.37C193.14 220.028 194.048 219.857 195.093 219.857C196.206 219.857 197.168 220.092 197.979 220.561C198.799 221.02 199.438 221.693 199.897 222.582C200.356 223.471 200.596 224.56 200.615 225.849H197.407C197.388 225.165 197.285 224.594 197.1 224.135C196.914 223.666 196.65 223.314 196.309 223.08C195.977 222.846 195.557 222.729 195.049 222.729C194.492 222.729 194.033 222.836 193.672 223.051C193.32 223.256 193.047 223.559 192.852 223.959C192.666 224.359 192.534 224.848 192.456 225.424C192.388 225.99 192.354 226.635 192.354 227.357V228.793C192.354 229.535 192.388 230.194 192.456 230.771C192.524 231.337 192.651 231.82 192.837 232.221C193.032 232.621 193.311 232.924 193.672 233.129C194.033 233.334 194.497 233.437 195.063 233.437ZM213.872 220.15V236H210.444V220.15H213.872ZM222.529 220.15L216.494 229.73H213.066L212.598 226.449H215L218.311 220.15H222.529ZM218.442 236L214.824 229.115L217.52 227.094L222.881 236H218.442ZM223.862 228.72V227.445C223.862 226.215 224.014 225.126 224.316 224.179C224.619 223.231 225.049 222.44 225.605 221.806C226.172 221.161 226.836 220.678 227.598 220.355C228.359 220.023 229.199 219.857 230.117 219.857C231.055 219.857 231.904 220.023 232.666 220.355C233.438 220.678 234.102 221.161 234.658 221.806C235.225 222.44 235.659 223.231 235.962 224.179C236.265 225.126 236.416 226.215 236.416 227.445V228.72C236.416 229.95 236.265 231.039 235.962 231.986C235.659 232.934 235.225 233.729 234.658 234.374C234.102 235.009 233.442 235.487 232.681 235.81C231.919 236.132 231.074 236.293 230.146 236.293C229.229 236.293 228.384 236.132 227.612 235.81C226.851 235.487 226.187 235.009 225.62 234.374C225.054 233.729 224.619 232.934 224.316 231.986C224.014 231.039 223.862 229.95 223.862 228.72ZM227.275 227.445V228.72C227.275 229.511 227.344 230.204 227.48 230.8C227.617 231.386 227.812 231.874 228.066 232.265C228.32 232.655 228.623 232.948 228.975 233.144C229.326 233.339 229.717 233.437 230.146 233.437C230.625 233.437 231.04 233.339 231.392 233.144C231.753 232.948 232.051 232.655 232.285 232.265C232.529 231.874 232.71 231.386 232.827 230.8C232.944 230.204 233.003 229.511 233.003 228.72V227.445C233.003 226.664 232.935 225.98 232.798 225.395C232.661 224.799 232.466 224.306 232.212 223.915C231.958 223.515 231.65 223.217 231.289 223.021C230.938 222.826 230.547 222.729 230.117 222.729C229.697 222.729 229.312 222.826 228.96 223.021C228.618 223.217 228.32 223.515 228.066 223.915C227.812 224.306 227.617 224.799 227.48 225.395C227.344 225.98 227.275 226.664 227.275 227.445ZM247.432 231.269L250.977 220.15H253.936L248.647 236H246.201L240.898 220.15H243.887L247.432 231.269ZM242.949 220.15V236H239.609V220.15H242.949ZM251.914 236V220.15H255.269V236H251.914ZM267.881 220.15V223.036H261.787V220.15H267.881ZM262.549 220.15V236H259.136V220.15H262.549ZM270.605 220.15V236H267.178V220.15H270.605ZM273.638 228.72V227.445C273.638 226.215 273.789 225.126 274.092 224.179C274.395 223.231 274.824 222.44 275.381 221.806C275.947 221.161 276.611 220.678 277.373 220.355C278.135 220.023 278.975 219.857 279.893 219.857C280.83 219.857 281.68 220.023 282.441 220.355C283.213 220.678 283.877 221.161 284.434 221.806C285 222.44 285.435 223.231 285.737 224.179C286.04 225.126 286.191 226.215 286.191 227.445V228.72C286.191 229.95 286.04 231.039 285.737 231.986C285.435 232.934 285 233.729 284.434 234.374C283.877 235.009 283.218 235.487 282.456 235.81C281.694 236.132 280.85 236.293 279.922 236.293C279.004 236.293 278.159 236.132 277.388 235.81C276.626 235.487 275.962 235.009 275.396 234.374C274.829 233.729 274.395 232.934 274.092 231.986C273.789 231.039 273.638 229.95 273.638 228.72ZM277.051 227.445V228.72C277.051 229.511 277.119 230.204 277.256 230.8C277.393 231.386 277.588 231.874 277.842 232.265C278.096 232.655 278.398 232.948 278.75 233.144C279.102 233.339 279.492 233.437 279.922 233.437C280.4 233.437 280.815 233.339 281.167 233.144C281.528 232.948 281.826 232.655 282.061 232.265C282.305 231.874 282.485 231.386 282.603 230.8C282.72 230.204 282.778 229.511 282.778 228.72V227.445C282.778 226.664 282.71 225.98 282.573 225.395C282.437 224.799 282.241 224.306 281.987 223.915C281.733 223.515 281.426 223.217 281.064 223.021C280.713 222.826 280.322 222.729 279.893 222.729C279.473 222.729 279.087 222.826 278.735 223.021C278.394 223.217 278.096 223.515 277.842 223.915C277.588 224.306 277.393 224.799 277.256 225.395C277.119 225.98 277.051 226.664 277.051 227.445ZM294.863 228.427H292.168V226.625H294.307C294.746 226.625 295.093 226.547 295.347 226.391C295.601 226.225 295.781 225.995 295.889 225.702C296.006 225.399 296.064 225.053 296.064 224.662C296.064 224.32 296.006 223.993 295.889 223.681C295.781 223.358 295.596 223.1 295.332 222.904C295.068 222.709 294.702 222.611 294.233 222.611C293.843 222.611 293.491 222.699 293.179 222.875C292.876 223.041 292.637 223.275 292.461 223.578C292.295 223.881 292.212 224.232 292.212 224.633H288.799C288.799 223.646 289.038 222.797 289.517 222.084C289.995 221.371 290.64 220.824 291.45 220.443C292.261 220.062 293.149 219.872 294.116 219.872C294.946 219.872 295.688 219.975 296.343 220.18C296.997 220.375 297.559 220.668 298.027 221.059C298.496 221.439 298.853 221.918 299.097 222.494C299.341 223.061 299.463 223.72 299.463 224.472C299.463 225.009 299.355 225.517 299.141 225.995C298.926 226.474 298.618 226.898 298.218 227.27C297.817 227.631 297.334 227.914 296.768 228.119C296.201 228.324 295.566 228.427 294.863 228.427ZM292.168 227.401H294.863C295.645 227.401 296.338 227.494 296.943 227.68C297.549 227.855 298.057 228.119 298.467 228.471C298.877 228.822 299.189 229.257 299.404 229.774C299.619 230.282 299.727 230.868 299.727 231.532C299.727 232.274 299.59 232.943 299.316 233.539C299.043 234.125 298.652 234.623 298.145 235.033C297.646 235.443 297.056 235.756 296.372 235.971C295.698 236.186 294.946 236.293 294.116 236.293C293.208 236.293 292.334 236.117 291.494 235.766C290.654 235.414 289.961 234.872 289.414 234.14C288.867 233.397 288.594 232.45 288.594 231.298H292.007C292.007 231.688 292.09 232.06 292.256 232.411C292.432 232.753 292.686 233.031 293.018 233.246C293.35 233.461 293.76 233.568 294.248 233.568C294.727 233.568 295.112 233.466 295.405 233.261C295.708 233.046 295.933 232.772 296.079 232.44C296.226 232.099 296.299 231.737 296.299 231.356C296.299 230.839 296.226 230.419 296.079 230.097C295.933 229.774 295.713 229.54 295.42 229.394C295.127 229.247 294.756 229.174 294.307 229.174H292.168V227.401ZM306.143 230.155L310.903 220.15H314.229V236H310.845V226.01L306.084 236H302.759V220.15H306.143V230.155ZM317.876 236V220.15H321.289V233.129H325.918V220.15H329.346V236H317.876ZM331.279 233.144L331.001 240.702H327.896V236H326.24V233.144H331.279ZM337.285 230.155L342.046 220.15H345.371V236H341.987V226.01L337.227 236H333.901V220.15H337.285V230.155ZM354.966 236.293C353.94 236.293 353.027 236.142 352.227 235.839C351.426 235.526 350.747 235.067 350.19 234.462C349.634 233.847 349.209 233.095 348.916 232.206C348.623 231.308 348.477 230.268 348.477 229.086V227.562C348.477 226.225 348.628 225.072 348.931 224.105C349.243 223.129 349.673 222.328 350.22 221.703C350.767 221.078 351.411 220.614 352.153 220.312C352.905 220.009 353.721 219.857 354.6 219.857C355.596 219.857 356.46 220.019 357.192 220.341C357.925 220.663 358.525 221.146 358.994 221.791C359.473 222.436 359.824 223.231 360.049 224.179C360.283 225.126 360.4 226.215 360.4 227.445V229.159H350.117V226.581H357.031V226.215C357.012 225.492 356.924 224.872 356.768 224.354C356.611 223.827 356.357 223.427 356.006 223.153C355.664 222.87 355.19 222.729 354.585 222.729C354.146 222.729 353.755 222.812 353.413 222.978C353.071 223.144 352.788 223.412 352.563 223.783C352.349 224.154 352.183 224.652 352.065 225.277C351.948 225.893 351.89 226.654 351.89 227.562V229.086C351.89 229.877 351.958 230.546 352.095 231.093C352.241 231.64 352.456 232.089 352.739 232.44C353.022 232.782 353.364 233.036 353.765 233.202C354.175 233.358 354.648 233.437 355.186 233.437C355.977 233.437 356.655 233.29 357.222 232.997C357.798 232.694 358.296 232.304 358.716 231.825L360.225 233.92C359.941 234.301 359.561 234.677 359.082 235.048C358.604 235.409 358.022 235.707 357.339 235.941C356.665 236.176 355.874 236.293 354.966 236.293ZM366.641 230.155L371.401 220.15H374.727V236H371.343V226.01L366.582 236H363.257V220.15H366.641V230.155ZM371.152 214.042H373.789C373.789 214.853 373.594 215.57 373.203 216.195C372.822 216.82 372.275 217.309 371.562 217.66C370.859 218.012 370.02 218.188 369.043 218.188C367.578 218.188 366.416 217.802 365.557 217.03C364.707 216.259 364.282 215.263 364.282 214.042H366.919C366.919 214.579 367.08 215.053 367.402 215.463C367.725 215.873 368.271 216.078 369.043 216.078C369.814 216.078 370.356 215.873 370.669 215.463C370.991 215.053 371.152 214.579 371.152 214.042Z" fill="black"/>
</g>
<defs>
<filter id="filter0_d_186_140" x="0.5" y="160.35" width="497" height="139.15" filterUnits="userSpaceOnUse" color-interpolation-filters="sRGB">
<feFlood flood-opacity="0" result="BackgroundImageFix"/>
<feColorMatrix in="SourceAlpha" type="matrix" values="0 0 0 0 0 0 0 0 0 0 0 0 0 0 0 0 0 0 127 0" result="hardAlpha"/>
<feOffset dy="4"/>
<feGaussianBlur stdDeviation="2"/>
<feComposite in2="hardAlpha" operator="out"/>
<feColorMatrix type="matrix" values="0 0 0 0 0.500244 0 0 0 0 0.327072 0 0 0 0 0.436444 0 0 0 0.44 0"/>
<feBlend mode="normal" in2="BackgroundImageFix" result="effect1_dropShadow_186_140"/>
<feBlend mode="normal" in="SourceGraphic" in2="effect1_dropShadow_186_140" result="shape"/>
</filter>
<filter id="filter1_d_186_140" x="2" y="138" width="470" height="186" filterUnits="userSpaceOnUse" color-interpolation-filters="sRGB">
<feFlood flood-opacity="0" result="BackgroundImageFix"/>
<feColorMatrix in="SourceAlpha" type="matrix" values="0 0 0 0 0 0 0 0 0 0 0 0 0 0 0 0 0 0 127 0" result="hardAlpha"/>
<feOffset dy="4"/>
<feGaussianBlur stdDeviation="2"/>
<feComposite in2="hardAlpha" operator="out"/>
<feColorMatrix type="matrix" values="0 0 0 0 0.500244 0 0 0 0 0.327072 0 0 0 0 0.436444 0 0 0 0.44 0"/>
<feBlend mode="normal" in2="BackgroundImageFix" result="effect1_dropShadow_186_140"/>
<feBlend mode="normal" in="SourceGraphic" in2="effect1_dropShadow_186_140" result="shape"/>
</filter>
</defs>
</svg>
