<svg width="529" height="285" viewBox="0 0 529 285" fill="none" xmlns="http://www.w3.org/2000/svg">
<path d="M210.898 39.1784C243.26 17.2226 285.74 17.2226 318.102 39.1784L325.089 43.9188C336.906 51.9361 350.864 56.2085 365.144 56.1796L424.287 56.0597C445.402 56.0169 459.637 77.6361 451.254 97.0161C445.056 111.347 450.075 128.109 463.049 136.775C484.484 151.094 479.046 184.142 454.126 190.523L427.769 197.272C414.118 200.767 402.899 210.466 397.467 223.469L395.625 227.877C385.734 251.554 359.922 264.339 335.094 257.858L291.398 246.451C273.761 241.847 255.239 241.847 237.602 246.451L193.906 257.858C169.078 264.339 143.266 251.554 133.375 227.877L131.533 223.469C126.101 210.466 114.882 200.767 101.231 197.272L74.874 190.523C49.9535 184.142 44.5162 151.094 65.9513 136.775C78.9252 128.109 83.9444 111.347 77.7455 97.0161C69.3627 77.6361 83.5977 56.0169 104.713 56.0597L163.856 56.1796C178.136 56.2085 192.094 51.9361 203.911 43.9188L210.898 39.1784Z" fill="#BC5D99" fill-opacity="0.08" stroke="black" stroke-width="3"/>
<path d="M199.947 123.96C197.947 122.92 196.467 121.48 195.507 119.64C194.467 117.72 193.947 115.6 193.947 113.28C193.947 109.84 194.987 106.48 197.067 103.2C199.147 99.84 201.827 97.44 205.107 96C206.067 95.68 206.627 95.52 206.787 95.52C207.187 95.52 207.427 95.64 207.507 95.88C207.667 96.12 207.667 96.44 207.507 96.84C205.907 100.04 205.107 102.76 205.107 105C205.107 107.32 206.107 108.8 208.107 109.44C208.747 109.6 209.227 109.68 209.547 109.68C212.507 109.68 214.827 107.36 216.507 102.72C218.267 98 219.147 92.4 219.147 85.92C219.147 82.96 220.187 80.52 222.267 78.6C224.347 76.68 226.547 75.72 228.867 75.72C230.227 75.72 231.267 76.04 231.987 76.68C233.267 77.72 233.907 79.16 233.907 81C233.907 82.76 233.347 84.6 232.227 86.52C231.107 88.36 229.627 89.96 227.787 91.32C227.547 91.56 227.347 91.52 227.187 91.2C226.947 90.56 226.667 89.68 226.347 88.56C226.027 87.44 225.667 86.64 225.267 86.16C224.947 85.6 224.547 85.48 224.067 85.8C223.347 86.28 222.987 87.12 222.987 88.32C222.987 88.88 223.227 90.36 223.707 92.76C224.587 96.44 225.027 99.4 225.027 101.64C225.027 104.28 224.587 106.88 223.707 109.44C224.987 109.6 226.747 108.64 228.987 106.56C231.227 104.4 234.067 101.2 237.507 96.96C237.747 96.72 237.987 96.6 238.227 96.6C238.627 96.6 238.947 96.76 239.187 97.08C239.427 97.4 239.387 97.76 239.067 98.16C232.267 107.84 226.347 114.88 221.307 119.28C216.347 123.68 211.667 125.88 207.267 125.88C204.947 125.88 202.587 125.28 200.187 124.08L199.947 123.96ZM238.568 123.48C236.648 122.44 235.208 120.92 234.248 118.92C233.208 116.92 232.688 114.6 232.688 111.96C232.688 108.76 233.448 105.36 234.968 101.76C236.488 98.16 238.728 94.6 241.688 91.08C245.928 86.12 249.968 82.48 253.808 80.16C257.728 77.84 261.288 76.68 264.488 76.68C267.608 76.68 270.088 77.68 271.928 79.68C273.688 81.52 274.568 84.12 274.568 87.48C274.568 90.84 273.608 94.64 271.688 98.88C271.288 100.08 271.088 101.04 271.088 101.76C271.088 102.56 271.368 103.2 271.928 103.68C272.168 103.92 272.488 104.04 272.888 104.04C274.488 104.04 276.728 101.84 279.608 97.44C279.848 97.12 280.168 96.96 280.568 96.96C280.968 96.96 281.288 97.12 281.528 97.44C281.768 97.68 281.768 97.96 281.528 98.28C279.208 101.64 277.048 104.16 275.048 105.84C273.048 107.44 271.048 108.24 269.048 108.24C268.248 108.24 267.488 108.12 266.768 107.88C263.488 112.92 259.768 117 255.608 120.12C251.528 123.24 247.608 124.8 243.848 124.8C241.848 124.8 240.088 124.36 238.568 123.48ZM251.768 109.2C252.888 109.92 254.048 110.28 255.248 110.28C257.808 110.28 260.648 108.96 263.768 106.32C262.488 105.04 261.848 103.28 261.848 101.04C261.848 99.92 262.048 98.64 262.448 97.2C263.888 91.68 266.248 88.92 269.528 88.92C270.168 88.92 270.848 89.2 271.568 89.76C271.328 86.32 270.368 84.2 268.688 83.4C267.968 83 267.128 82.8 266.168 82.8C264.168 82.8 262.008 83.68 259.688 85.44C257.368 87.2 255.288 89.44 253.448 92.16C252.168 94.08 251.128 96.08 250.328 98.16C249.608 100.16 249.248 102 249.248 103.68C249.248 106.24 250.088 108.08 251.768 109.2ZM263.918 140.16C261.598 138.8 260.438 136.6 260.438 133.56C260.438 127.88 264.518 119.12 272.678 107.28L307.598 56.4C308.238 55.52 309.158 54.84 310.358 54.36C311.558 53.88 312.878 53.64 314.318 53.64C316.158 53.64 317.718 53.96 318.998 54.6C320.358 55.24 320.758 55.92 320.198 56.64L295.598 92.88C295.678 96.72 295.918 99.64 296.318 101.64C296.798 103.56 297.638 104.68 298.838 105C299.318 105.16 299.678 105.24 299.918 105.24C300.958 105.24 301.958 104.76 302.918 103.8C303.878 102.84 305.038 101.36 306.398 99.36L308.078 97.08C308.398 96.52 308.758 96.24 309.158 96.24C309.478 96.24 309.638 96.44 309.638 96.84C309.638 97.24 309.558 97.56 309.398 97.8C306.358 103.8 303.758 108.4 301.598 111.6C299.438 114.8 297.238 116.4 294.998 116.4C293.718 116.4 292.718 115.72 291.998 114.36C290.318 119.32 288.158 123.84 285.518 127.92C282.958 132.08 280.158 135.36 277.118 137.76C274.078 140.24 271.158 141.48 268.358 141.48C266.918 141.48 265.438 141.04 263.918 140.16ZM279.518 126.24C280.638 126.8 281.998 125.88 283.598 123.48C285.278 121.08 286.878 117.6 288.398 113.04C289.998 108.4 291.278 103.32 292.238 97.8L284.438 109.32C280.198 115.64 278.078 120.36 278.078 123.48C278.078 124.92 278.558 125.84 279.518 126.24ZM302.505 124.56C299.945 123.36 298.665 121.24 298.665 118.2C298.665 114.44 300.785 109.12 305.025 102.24C309.745 94.56 314.305 87.4 318.705 80.76L312.945 80.88C312.465 80.88 312.065 80.64 311.745 80.16C311.505 79.68 311.385 79.16 311.385 78.6C311.385 77.8 311.745 77.4 312.465 77.4L320.865 77.76C324.385 72.56 327.585 67.96 330.465 63.96C332.545 61 335.025 59.52 337.905 59.52C339.265 59.52 340.505 59.84 341.625 60.48C342.825 61.12 343.705 61.88 344.265 62.76C344.825 63.56 344.905 64.2 344.505 64.68L333.825 78.24L340.185 78.48C340.825 78.48 341.145 78.72 341.145 79.2C341.145 79.52 341.025 79.8 340.785 80.04C340.625 80.28 340.425 80.4 340.185 80.4L331.905 80.52C327.185 86.6 323.585 91.6 321.105 95.52C318.625 99.44 317.385 102.44 317.385 104.52C317.385 105.72 317.785 106.6 318.585 107.16C319.225 107.48 319.705 107.64 320.025 107.64C321.545 107.64 323.385 106.64 325.545 104.64C327.785 102.56 329.945 100.12 332.025 97.32C332.265 96.92 332.585 96.72 332.985 96.72C333.385 96.72 333.665 96.88 333.825 97.2C333.985 97.44 333.945 97.72 333.705 98.04C328.665 105.72 323.545 112.16 318.345 117.36C313.225 122.56 308.825 125.16 305.145 125.16C304.105 125.16 303.225 124.96 302.505 124.56Z" fill="#80536F"/>
<path d="M155.387 160.841C149.997 160.841 145.586 165.253 145.586 170.643V198.088C145.586 203.478 149.997 207.89 155.387 207.89H182.833C188.223 207.89 192.634 203.478 192.634 198.088V170.643C192.634 165.253 188.223 160.841 182.833 160.841H155.387ZM159.308 172.603H162.575C166.535 172.603 169.763 175.832 169.763 179.791C169.763 183.751 166.535 186.979 162.575 186.979H161.269V194.167C161.269 195.252 160.393 196.128 159.308 196.128C158.223 196.128 157.348 195.252 157.348 194.167V174.564C157.348 173.479 158.223 172.603 159.308 172.603ZM161.269 176.524V183.059H162.575C164.379 183.059 165.843 181.595 165.843 179.791C165.843 177.988 164.379 176.524 162.575 176.524H161.269ZM175.711 180.445H177.475C179.357 180.445 181.081 181.634 181.748 183.385C182.14 184.405 181.631 185.528 180.612 185.92C179.605 186.312 178.466 185.791 178.087 184.784C178.009 184.575 177.788 184.366 177.475 184.366H175.711C175.175 184.366 174.731 184.81 174.731 185.346C174.731 185.882 175.175 186.326 175.711 186.326H177.278C179.983 186.326 182.179 188.522 182.179 191.227C182.179 193.932 179.983 196.128 177.278 196.128H174.468C173.357 196.128 172.285 195.724 171.448 194.992C171.278 194.835 171.122 194.677 170.978 194.507C170.273 193.67 170.39 192.443 171.213 191.737C172.05 191.045 173.28 191.162 173.985 191.985C174.116 192.116 174.259 192.207 174.468 192.207H177.278C177.814 192.207 178.258 191.763 178.258 191.227C178.258 190.691 177.814 190.247 177.278 190.247H175.711C173.006 190.247 170.81 188.051 170.81 185.346C170.81 182.64 173.006 180.445 175.711 180.445Z" fill="black"/>
<path d="M221.456 160.841C216.586 160.841 212.634 164.793 212.634 169.663V199.068C212.634 203.939 216.586 207.89 221.456 207.89H250.861C255.732 207.89 259.683 203.939 259.683 199.068V169.663C259.683 164.793 255.732 160.841 250.861 160.841H221.456ZM243.397 172.603C244.125 172.603 244.705 172.823 245.15 173.225C245.602 173.635 245.828 174.201 245.828 174.865C245.828 175.53 245.609 176.06 245.15 176.449C244.705 176.83 244.118 177.014 243.397 177.014C242.662 177.014 242.103 176.795 241.7 176.392C241.29 175.996 241.078 175.502 241.078 174.865C241.078 174.229 241.29 173.699 241.7 173.282C242.103 172.865 242.662 172.603 243.397 172.603ZM231.465 172.773H234.292C234.391 172.773 234.49 172.844 234.519 172.943L240.4 193.3C240.428 193.336 240.456 193.371 240.456 193.413C240.456 193.541 240.35 193.64 240.23 193.64H236.385C236.279 193.64 236.187 193.569 236.159 193.47L234.971 189.003H230.56L229.373 193.47C229.344 193.569 229.309 193.64 229.203 193.64H225.584C225.513 193.64 225.4 193.583 225.358 193.527C225.315 193.47 225.337 193.42 225.358 193.357L231.239 172.943C231.267 172.844 231.366 172.773 231.465 172.773ZM241.7 178.711H245.15C245.277 178.711 245.376 178.81 245.376 178.937V193.413C245.376 193.541 245.277 193.64 245.15 193.64H241.7C241.573 193.64 241.474 193.541 241.474 193.413V178.937C241.474 178.81 241.573 178.711 241.7 178.711ZM232.822 179.05L232.483 181.142L231.465 185.61H234.236L233.105 181.142L232.822 179.05Z" fill="black"/>
<path d="M297 161.92V175.36H290.28C286.579 175.36 283.56 172.341 283.56 168.64C283.56 164.939 286.579 161.92 290.28 161.92H297ZM297 177.28V190.72H290.28C286.579 190.72 283.56 187.701 283.56 184C283.56 180.299 286.579 177.28 290.28 177.28H297ZM297 192.64V199.36C297 203.061 293.981 206.08 290.28 206.08C286.579 206.08 283.56 203.061 283.56 199.36C283.56 195.659 286.579 192.64 290.28 192.64H297ZM312.36 168.64C312.36 172.341 309.341 175.36 305.64 175.36H298.92V161.92H305.64C309.341 161.92 312.36 164.939 312.36 168.64ZM305.64 177.28C303.858 177.28 302.149 177.988 300.888 179.248C299.628 180.508 298.92 182.218 298.92 184C298.92 185.782 299.628 187.491 300.888 188.752C302.149 190.012 303.858 190.72 305.64 190.72C307.422 190.72 309.132 190.012 310.392 188.752C311.652 187.491 312.36 185.782 312.36 184C312.36 182.218 311.652 180.508 310.392 179.248C309.132 177.988 307.422 177.28 305.64 177.28Z" fill="black"/>
<path d="M343.485 160.841C338.094 160.841 333.683 165.253 333.683 170.643V198.088C333.683 203.478 338.094 207.89 343.485 207.89H370.93C376.32 207.89 380.731 203.478 380.731 198.088V170.643C380.731 165.253 376.32 160.841 370.93 160.841H343.485ZM350.019 172.603C351.104 172.603 351.98 173.479 351.98 174.564V194.167C351.98 195.252 351.104 196.128 350.019 196.128C348.934 196.128 348.059 195.252 348.059 194.167V174.564C348.059 173.479 348.934 172.603 350.019 172.603ZM365.702 172.603C366.787 172.603 367.662 173.479 367.662 174.564V194.167C367.662 195.252 366.787 196.128 365.702 196.128H362.435C358.109 196.128 354.593 192.612 354.593 188.286C354.593 183.96 358.109 180.445 362.435 180.445H363.742V174.564C363.742 173.479 364.617 172.603 365.702 172.603ZM362.435 184.366C360.278 184.366 358.514 186.13 358.514 188.286C358.514 190.443 360.278 192.207 362.435 192.207H363.742V184.366H362.435Z" fill="black"/>
<path d="M163 149H366" stroke="black" stroke-width="3" stroke-linecap="round"/>
</svg>
