<svg width="250" height="30" viewBox="0 0 250 30" fill="none" xmlns="http://www.w3.org/2000/svg">
<path d="M11.1875 20.1289V23H1.34375V20.1289H11.1875ZM10.9971 9.37695L2.48633 23H0.274414V20.6855L8.75586 7.15039H10.9971V9.37695ZM9.70801 7.15039V10.0361H0.376953V7.15039H9.70801ZM21.4561 19.7773V11.8818C21.4561 11.335 21.3779 10.8955 21.2217 10.5635C21.0752 10.2314 20.8555 9.99219 20.5625 9.8457C20.2793 9.68945 19.9229 9.61133 19.4932 9.61133C19.0439 9.61133 18.6631 9.7041 18.3506 9.88965C18.0479 10.0752 17.8184 10.3291 17.6621 10.6514C17.5059 10.9639 17.4277 11.3252 17.4277 11.7354H14.0146C14.0146 11.1006 14.1416 10.4902 14.3955 9.9043C14.6592 9.31836 15.0352 8.7959 15.5234 8.33691C16.0117 7.87793 16.6025 7.5166 17.2959 7.25293C17.9893 6.98926 18.7607 6.85742 19.6104 6.85742C20.626 6.85742 21.5293 7.02832 22.3203 7.37012C23.1113 7.70215 23.7314 8.24414 24.1807 8.99609C24.6396 9.73828 24.8691 10.7148 24.8691 11.9258V19.3232C24.8691 20.0557 24.9131 20.71 25.001 21.2861C25.0986 21.8525 25.2305 22.3457 25.3965 22.7656V23H21.9248C21.7686 22.6191 21.6514 22.1309 21.5732 21.5352C21.4951 20.9395 21.4561 20.3535 21.4561 19.7773ZM21.9102 13.3467L21.9248 15.5586H20.2842C19.7959 15.5586 19.3564 15.627 18.9658 15.7637C18.5752 15.8906 18.2432 16.0762 17.9697 16.3203C17.7061 16.5547 17.501 16.8428 17.3545 17.1846C17.2178 17.5264 17.1494 17.9023 17.1494 18.3125C17.1494 18.8105 17.2178 19.2158 17.3545 19.5283C17.501 19.8408 17.7109 20.0752 17.9844 20.2314C18.2676 20.3779 18.6094 20.4512 19.0098 20.4512C19.5566 20.4512 20.0303 20.334 20.4307 20.0996C20.8408 19.8555 21.1533 19.5625 21.3682 19.2207C21.5928 18.8789 21.6807 18.5664 21.6318 18.2832L22.4082 19.7041C22.3301 20.0752 22.1836 20.4658 21.9688 20.876C21.7637 21.2861 21.4951 21.6768 21.1631 22.0479C20.8311 22.4189 20.4307 22.7217 19.9619 22.9561C19.4932 23.1807 18.9512 23.293 18.3359 23.293C17.4473 23.293 16.6562 23.1074 15.9629 22.7363C15.2695 22.3652 14.7227 21.833 14.3223 21.1396C13.9316 20.4365 13.7363 19.5967 13.7363 18.6201C13.7363 17.8291 13.8682 17.1113 14.1318 16.4668C14.3955 15.8223 14.7861 15.2705 15.3037 14.8115C15.8213 14.3428 16.4707 13.9814 17.252 13.7275C18.043 13.4736 18.9658 13.3467 20.0205 13.3467H21.9102ZM31.7832 10.2119V23H28.3701V7.15039H31.6221L31.7832 10.2119ZM35.6064 7.04785L35.5918 10.417C35.3965 10.3682 35.1865 10.3389 34.9619 10.3291C34.7471 10.3096 34.5322 10.2998 34.3174 10.2998C33.8486 10.2998 33.4434 10.3828 33.1016 10.5488C32.7598 10.7148 32.4717 10.9541 32.2373 11.2666C32.0029 11.5791 31.8174 11.9551 31.6807 12.3945C31.5537 12.834 31.4756 13.332 31.4463 13.8887L30.7139 13.918C30.7139 12.9219 30.792 11.999 30.9482 11.1494C31.1045 10.29 31.3389 9.54297 31.6514 8.9082C31.9736 8.26367 32.374 7.76074 32.8525 7.39941C33.3311 7.03809 33.8877 6.85742 34.5225 6.85742C34.6982 6.85742 34.8984 6.87695 35.123 6.91602C35.3477 6.95508 35.5088 6.99902 35.6064 7.04785ZM44.8057 19.7773V11.8818C44.8057 11.335 44.7275 10.8955 44.5713 10.5635C44.4248 10.2314 44.2051 9.99219 43.9121 9.8457C43.6289 9.68945 43.2725 9.61133 42.8428 9.61133C42.3936 9.61133 42.0127 9.7041 41.7002 9.88965C41.3975 10.0752 41.168 10.3291 41.0117 10.6514C40.8555 10.9639 40.7773 11.3252 40.7773 11.7354H37.3643C37.3643 11.1006 37.4912 10.4902 37.7451 9.9043C38.0088 9.31836 38.3848 8.7959 38.873 8.33691C39.3613 7.87793 39.9521 7.5166 40.6455 7.25293C41.3389 6.98926 42.1104 6.85742 42.96 6.85742C43.9756 6.85742 44.8789 7.02832 45.6699 7.37012C46.4609 7.70215 47.0811 8.24414 47.5303 8.99609C47.9893 9.73828 48.2188 10.7148 48.2188 11.9258V19.3232C48.2188 20.0557 48.2627 20.71 48.3506 21.2861C48.4482 21.8525 48.5801 22.3457 48.7461 22.7656V23H45.2744C45.1182 22.6191 45.001 22.1309 44.9229 21.5352C44.8447 20.9395 44.8057 20.3535 44.8057 19.7773ZM45.2598 13.3467L45.2744 15.5586H43.6338C43.1455 15.5586 42.7061 15.627 42.3154 15.7637C41.9248 15.8906 41.5928 16.0762 41.3193 16.3203C41.0557 16.5547 40.8506 16.8428 40.7041 17.1846C40.5674 17.5264 40.499 17.9023 40.499 18.3125C40.499 18.8105 40.5674 19.2158 40.7041 19.5283C40.8506 19.8408 41.0605 20.0752 41.334 20.2314C41.6172 20.3779 41.959 20.4512 42.3594 20.4512C42.9062 20.4512 43.3799 20.334 43.7803 20.0996C44.1904 19.8555 44.5029 19.5625 44.7178 19.2207C44.9424 18.8789 45.0303 18.5664 44.9814 18.2832L45.7578 19.7041C45.6797 20.0752 45.5332 20.4658 45.3184 20.876C45.1133 21.2861 44.8447 21.6768 44.5127 22.0479C44.1807 22.4189 43.7803 22.7217 43.3115 22.9561C42.8428 23.1807 42.3008 23.293 41.6855 23.293C40.7969 23.293 40.0059 23.1074 39.3125 22.7363C38.6191 22.3652 38.0723 21.833 37.6719 21.1396C37.2812 20.4365 37.0859 19.5967 37.0859 18.6201C37.0859 17.8291 37.2178 17.1113 37.4814 16.4668C37.7451 15.8223 38.1357 15.2705 38.6533 14.8115C39.1709 14.3428 39.8203 13.9814 40.6016 13.7275C41.3926 13.4736 42.3154 13.3467 43.3701 13.3467H45.2598ZM51.9834 21.2129C51.9834 20.6465 52.1641 20.1729 52.5254 19.792C52.8965 19.4111 53.4043 19.2207 54.0488 19.2207C54.6934 19.2207 55.1963 19.4111 55.5576 19.792C55.9287 20.1729 56.1143 20.6465 56.1143 21.2129C56.1143 21.7598 55.9287 22.2236 55.5576 22.6045C55.1963 22.9854 54.6934 23.1758 54.0488 23.1758C53.4043 23.1758 52.8965 22.9854 52.5254 22.6045C52.1641 22.2236 51.9834 21.7598 51.9834 21.2129ZM67.4082 18.8252C67.4082 18.4932 67.3105 18.2002 67.1152 17.9463C66.9297 17.6826 66.627 17.4238 66.207 17.1699C65.7871 16.916 65.2256 16.6426 64.5225 16.3496C63.79 16.0469 63.1406 15.7441 62.5742 15.4414C62.0078 15.1387 61.5293 14.8066 61.1387 14.4453C60.748 14.0742 60.4502 13.6494 60.2451 13.1709C60.04 12.6924 59.9375 12.1357 59.9375 11.501C59.9375 10.8467 60.0596 10.2412 60.3037 9.68457C60.5479 9.12793 60.8994 8.63965 61.3584 8.21973C61.8174 7.79004 62.3691 7.45801 63.0137 7.22363C63.6582 6.97949 64.3857 6.85742 65.1963 6.85742C66.3389 6.85742 67.3154 7.06738 68.126 7.4873C68.9463 7.89746 69.5713 8.47363 70.001 9.21582C70.4404 9.94824 70.6602 10.793 70.6602 11.75H67.2471C67.2471 11.3496 67.1738 10.9883 67.0273 10.666C66.8809 10.334 66.6562 10.0703 66.3535 9.875C66.0508 9.66992 65.665 9.56738 65.1963 9.56738C64.7666 9.56738 64.4053 9.65039 64.1123 9.81641C63.8291 9.97266 63.6143 10.1875 63.4678 10.4609C63.3311 10.7246 63.2627 11.0225 63.2627 11.3545C63.2627 11.5986 63.3066 11.8135 63.3945 11.999C63.4824 12.1846 63.6289 12.3652 63.834 12.541C64.0391 12.707 64.3125 12.8779 64.6543 13.0537C65.0059 13.2295 65.4502 13.4297 65.9873 13.6543C67.0518 14.0645 67.9355 14.4893 68.6387 14.9287C69.3418 15.3682 69.8691 15.8809 70.2207 16.4668C70.5723 17.0527 70.748 17.7803 70.748 18.6494C70.748 19.3525 70.6162 19.9873 70.3525 20.5537C70.0986 21.1201 69.7275 21.6084 69.2393 22.0186C68.7607 22.4287 68.1797 22.7461 67.4961 22.9707C66.8223 23.1855 66.0703 23.293 65.2402 23.293C64 23.293 62.9502 23.0488 62.0908 22.5605C61.2412 22.0625 60.5967 21.4229 60.1572 20.6416C59.7178 19.8604 59.498 19.0352 59.498 18.166H62.7939C62.8232 18.791 62.9551 19.2793 63.1895 19.6309C63.4336 19.9824 63.7412 20.2266 64.1123 20.3633C64.4834 20.4902 64.8691 20.5537 65.2695 20.5537C65.748 20.5537 66.1436 20.4902 66.4561 20.3633C66.7686 20.2266 67.0029 20.0264 67.1592 19.7627C67.3252 19.499 67.4082 19.1865 67.4082 18.8252ZM79.3467 20.4365C79.7861 20.4365 80.1768 20.3438 80.5186 20.1582C80.8701 19.9727 81.1484 19.6846 81.3535 19.2939C81.5586 18.8936 81.6709 18.376 81.6904 17.7412H84.8984C84.8789 18.8643 84.6201 19.8457 84.1221 20.6855C83.624 21.5156 82.96 22.1602 82.1299 22.6191C81.3096 23.0684 80.3965 23.293 79.3906 23.293C78.3457 23.293 77.4326 23.127 76.6514 22.7949C75.8799 22.4531 75.2402 21.96 74.7324 21.3154C74.2246 20.6709 73.8438 19.8896 73.5898 18.9717C73.3457 18.0439 73.2236 16.9844 73.2236 15.793V14.3574C73.2236 13.1758 73.3457 12.1211 73.5898 11.1934C73.8438 10.2656 74.2246 9.47949 74.7324 8.83496C75.2402 8.19043 75.8799 7.70215 76.6514 7.37012C77.4229 7.02832 78.3311 6.85742 79.376 6.85742C80.4893 6.85742 81.4512 7.0918 82.2617 7.56055C83.082 8.01953 83.7217 8.69336 84.1807 9.58203C84.6396 10.4707 84.8789 11.5596 84.8984 12.8486H81.6904C81.6709 12.165 81.5684 11.5938 81.3828 11.1348C81.1973 10.666 80.9336 10.3145 80.5918 10.0801C80.2598 9.8457 79.8398 9.72852 79.332 9.72852C78.7754 9.72852 78.3164 9.83594 77.9551 10.0508C77.6035 10.2559 77.3301 10.5586 77.1348 10.959C76.9492 11.3594 76.8174 11.8477 76.7393 12.4238C76.6709 12.9902 76.6367 13.6348 76.6367 14.3574V15.793C76.6367 16.5352 76.6709 17.1943 76.7393 17.7705C76.8076 18.3369 76.9346 18.8203 77.1201 19.2207C77.3154 19.6211 77.5938 19.9238 77.9551 20.1289C78.3164 20.334 78.7803 20.4365 79.3467 20.4365ZM90.9043 0.5V23H87.5059V0.5H90.9043ZM90.3037 14.5039H89.2197C89.21 13.4004 89.3271 12.3848 89.5713 11.457C89.8154 10.5293 90.167 9.71875 90.626 9.02539C91.085 8.33203 91.6367 7.7998 92.2812 7.42871C92.9355 7.04785 93.6582 6.85742 94.4492 6.85742C95.1035 6.85742 95.6943 6.96973 96.2217 7.19434C96.7588 7.40918 97.2178 7.75098 97.5986 8.21973C97.9893 8.68848 98.2871 9.30371 98.4922 10.0654C98.6973 10.8174 98.7998 11.7354 98.7998 12.8193V23H95.3867V12.79C95.3867 12.0381 95.3037 11.4424 95.1377 11.0029C94.9814 10.5635 94.7471 10.2461 94.4346 10.0508C94.1221 9.85547 93.7266 9.75781 93.248 9.75781C92.7793 9.75781 92.3594 9.88477 91.9883 10.1387C91.627 10.3828 91.3193 10.7246 91.0654 11.1641C90.8115 11.5938 90.6211 12.0967 90.4941 12.6729C90.3672 13.2393 90.3037 13.8496 90.3037 14.5039ZM110.021 19.2646V7.15039H113.434V23H110.226L110.021 19.2646ZM110.504 15.9541L111.588 15.9248C111.588 16.9893 111.49 17.9707 111.295 18.8691C111.1 19.7676 110.797 20.5488 110.387 21.2129C109.986 21.8672 109.464 22.3799 108.819 22.751C108.185 23.1123 107.418 23.293 106.52 23.293C105.875 23.293 105.284 23.1807 104.747 22.9561C104.21 22.7314 103.746 22.3848 103.355 21.916C102.965 21.4473 102.662 20.8369 102.447 20.085C102.232 19.333 102.125 18.4346 102.125 17.3896V7.15039H105.538V17.4189C105.538 17.9854 105.587 18.459 105.685 18.8398C105.782 19.2109 105.919 19.5137 106.095 19.748C106.271 19.9727 106.466 20.1338 106.681 20.2314C106.905 20.3193 107.145 20.3633 107.398 20.3633C108.17 20.3633 108.78 20.1729 109.229 19.792C109.688 19.4014 110.016 18.874 110.211 18.21C110.406 17.5459 110.504 16.7939 110.504 15.9541ZM120.465 0.5V23H117.052V0.5H120.465ZM130.514 7.15039V9.78711H122.735V7.15039H130.514ZM124.859 3.26855H128.258V18.5762C128.258 19.0645 128.312 19.4355 128.419 19.6895C128.526 19.9434 128.678 20.1143 128.873 20.2021C129.068 20.29 129.298 20.334 129.562 20.334C129.757 20.334 129.947 20.3193 130.133 20.29C130.328 20.251 130.47 20.2168 130.558 20.1875V22.9414C130.304 23.0391 130.011 23.1221 129.679 23.1904C129.347 23.2588 128.946 23.293 128.478 23.293C127.784 23.293 127.164 23.1514 126.617 22.8682C126.07 22.5752 125.641 22.1016 125.328 21.4473C125.016 20.7832 124.859 19.9043 124.859 18.8105V3.26855ZM143.639 20.1289V23H133.795V20.1289H143.639ZM143.448 9.37695L134.938 23H132.726V20.6855L141.207 7.15039H143.448V9.37695ZM142.159 7.15039V10.0361H132.828V7.15039H142.159ZM166.505 15.3682C166.476 16.3154 166.354 17.2627 166.139 18.21C165.934 19.1475 165.616 20.002 165.187 20.7734C164.767 21.5449 164.225 22.1602 163.561 22.6191C162.906 23.0781 162.105 23.3076 161.158 23.3076C160.592 23.3076 160.089 23.1953 159.649 22.9707C159.22 22.7363 158.863 22.4043 158.58 21.9746C158.297 21.5449 158.092 21.0273 157.965 20.4219C157.838 19.8164 157.804 19.1328 157.862 18.3711L158.492 10.0654H160.953L160.309 18.3711C160.27 18.9668 160.274 19.4502 160.323 19.8213C160.382 20.1924 160.475 20.4805 160.602 20.6855C160.729 20.8906 160.875 21.0322 161.041 21.1104C161.207 21.1885 161.388 21.2275 161.583 21.2275C161.993 21.2275 162.364 21.0811 162.696 20.7881C163.028 20.4854 163.312 20.0703 163.546 19.543C163.79 19.0059 163.98 18.3906 164.117 17.6973C164.254 16.9941 164.332 16.2373 164.352 15.4268C164.4 14.0596 164.342 12.8047 164.176 11.6621C164.02 10.5098 163.751 9.47949 163.37 8.57129C162.999 7.66309 162.511 6.89648 161.905 6.27148C161.3 5.63672 160.577 5.15332 159.737 4.82129C158.907 4.48926 157.96 4.32324 156.896 4.32324C155.88 4.32324 154.957 4.51367 154.127 4.89453C153.297 5.26562 152.555 5.80273 151.9 6.50586C151.246 7.19922 150.685 8.0293 150.216 8.99609C149.757 9.96289 149.396 11.0469 149.132 12.248C148.878 13.4492 148.727 14.7383 148.678 16.1152C148.619 17.5508 148.683 18.8643 148.868 20.0557C149.054 21.2373 149.347 22.2871 149.747 23.2051C150.157 24.123 150.665 24.8945 151.271 25.5195C151.886 26.1445 152.599 26.6133 153.409 26.9258C154.229 27.248 155.133 27.4092 156.119 27.4092C156.842 27.4092 157.574 27.3115 158.316 27.1162C159.059 26.9209 159.688 26.667 160.206 26.3545L160.704 28.332C160.118 28.7715 159.391 29.0986 158.521 29.3135C157.662 29.5283 156.847 29.6357 156.075 29.6357C154.796 29.6357 153.629 29.4404 152.574 29.0498C151.52 28.6689 150.587 28.0977 149.776 27.3359C148.966 26.584 148.292 25.6611 147.755 24.5674C147.218 23.4736 146.822 22.2188 146.568 20.8027C146.314 19.3867 146.217 17.8242 146.275 16.1152C146.334 14.5137 146.539 13.0049 146.891 11.5889C147.242 10.1729 147.721 8.88867 148.326 7.73633C148.941 6.58398 149.679 5.59277 150.538 4.7627C151.397 3.92285 152.364 3.27832 153.438 2.8291C154.513 2.37988 155.68 2.15527 156.939 2.15527C158.199 2.15527 159.342 2.35547 160.367 2.75586C161.402 3.15625 162.311 3.7373 163.092 4.49902C163.883 5.26074 164.542 6.18359 165.069 7.26758C165.597 8.3418 165.982 9.5625 166.227 10.9297C166.471 12.2871 166.563 13.7666 166.505 15.3682ZM154.303 16.7744C154.254 17.4385 154.254 18.0293 154.303 18.5469C154.352 19.0547 154.444 19.4844 154.581 19.8359C154.728 20.1777 154.913 20.4414 155.138 20.627C155.362 20.8027 155.626 20.8906 155.929 20.8906C156.104 20.8906 156.29 20.832 156.485 20.7148C156.681 20.5879 156.876 20.3926 157.071 20.1289C157.276 19.8652 157.467 19.5088 157.643 19.0596C157.818 18.6006 157.965 18.0391 158.082 17.375L159.137 18.6787C158.951 19.4307 158.717 20.0947 158.434 20.6709C158.15 21.2471 157.828 21.7305 157.467 22.1211C157.115 22.502 156.734 22.7949 156.324 23C155.924 23.1953 155.509 23.293 155.079 23.293C154.474 23.293 153.937 23.1367 153.468 22.8242C152.999 22.5117 152.608 22.0723 152.296 21.5059C151.993 20.9297 151.778 20.2461 151.651 19.4551C151.534 18.6543 151.515 17.7607 151.593 16.7744C151.681 15.7686 151.842 14.8359 152.076 13.9766C152.311 13.1172 152.604 12.3506 152.955 11.6768C153.307 11.0029 153.702 10.4316 154.142 9.96289C154.591 9.48438 155.069 9.12305 155.577 8.87891C156.085 8.625 156.612 8.49805 157.159 8.49805C158.116 8.49805 158.863 8.6543 159.4 8.9668C159.947 9.2793 160.465 9.64551 160.953 10.0654L159.693 11.8672C159.449 11.6035 159.137 11.3545 158.756 11.1201C158.385 10.876 157.94 10.7539 157.423 10.7539C156.983 10.7539 156.583 10.8857 156.222 11.1494C155.87 11.4033 155.562 11.7842 155.299 12.292C155.035 12.7998 154.82 13.4297 154.654 14.1816C154.488 14.9238 154.371 15.7881 154.303 16.7744ZM173.009 10.373V23H169.596V7.15039H172.804L173.009 10.373ZM172.452 14.5039H171.295C171.275 13.4004 171.373 12.3848 171.588 11.457C171.812 10.5293 172.145 9.71875 172.584 9.02539C173.033 8.33203 173.595 7.7998 174.269 7.42871C174.952 7.04785 175.738 6.85742 176.627 6.85742C177.223 6.85742 177.77 6.96484 178.268 7.17969C178.775 7.38477 179.215 7.71191 179.586 8.16113C179.967 8.61035 180.26 9.18652 180.465 9.88965C180.67 10.5928 180.772 11.4424 180.772 12.4385V23H177.359V12.7607C177.359 11.999 177.271 11.4033 177.096 10.9736C176.93 10.5342 176.686 10.2217 176.363 10.0361C176.041 9.85059 175.65 9.75781 175.191 9.75781C174.693 9.75781 174.269 9.88477 173.917 10.1387C173.565 10.3828 173.282 10.7246 173.067 11.1641C172.853 11.5938 172.696 12.0967 172.599 12.6729C172.501 13.2393 172.452 13.8496 172.452 14.5039ZM180.553 13.5957L178.956 13.9619C178.937 12.9951 179.034 12.082 179.249 11.2227C179.464 10.3633 179.786 9.61133 180.216 8.9668C180.655 8.3125 181.202 7.7998 181.856 7.42871C182.521 7.04785 183.287 6.85742 184.156 6.85742C184.84 6.85742 185.45 6.96973 185.987 7.19434C186.524 7.40918 186.983 7.75098 187.364 8.21973C187.745 8.68848 188.033 9.29883 188.229 10.0508C188.434 10.793 188.536 11.6963 188.536 12.7607V23H185.108V12.7461C185.108 11.9551 185.021 11.3447 184.845 10.915C184.679 10.4854 184.435 10.1875 184.112 10.0215C183.79 9.8457 183.404 9.75781 182.955 9.75781C182.564 9.75781 182.218 9.86035 181.915 10.0654C181.622 10.2607 181.373 10.5342 181.168 10.8857C180.963 11.2373 180.807 11.6475 180.699 12.1162C180.602 12.5752 180.553 13.0684 180.553 13.5957ZM199.347 19.7773V11.8818C199.347 11.335 199.269 10.8955 199.112 10.5635C198.966 10.2314 198.746 9.99219 198.453 9.8457C198.17 9.68945 197.813 9.61133 197.384 9.61133C196.935 9.61133 196.554 9.7041 196.241 9.88965C195.938 10.0752 195.709 10.3291 195.553 10.6514C195.396 10.9639 195.318 11.3252 195.318 11.7354H191.905C191.905 11.1006 192.032 10.4902 192.286 9.9043C192.55 9.31836 192.926 8.7959 193.414 8.33691C193.902 7.87793 194.493 7.5166 195.187 7.25293C195.88 6.98926 196.651 6.85742 197.501 6.85742C198.517 6.85742 199.42 7.02832 200.211 7.37012C201.002 7.70215 201.622 8.24414 202.071 8.99609C202.53 9.73828 202.76 10.7148 202.76 11.9258V19.3232C202.76 20.0557 202.804 20.71 202.892 21.2861C202.989 21.8525 203.121 22.3457 203.287 22.7656V23H199.815C199.659 22.6191 199.542 22.1309 199.464 21.5352C199.386 20.9395 199.347 20.3535 199.347 19.7773ZM199.801 13.3467L199.815 15.5586H198.175C197.687 15.5586 197.247 15.627 196.856 15.7637C196.466 15.8906 196.134 16.0762 195.86 16.3203C195.597 16.5547 195.392 16.8428 195.245 17.1846C195.108 17.5264 195.04 17.9023 195.04 18.3125C195.04 18.8105 195.108 19.2158 195.245 19.5283C195.392 19.8408 195.602 20.0752 195.875 20.2314C196.158 20.3779 196.5 20.4512 196.9 20.4512C197.447 20.4512 197.921 20.334 198.321 20.0996C198.731 19.8555 199.044 19.5625 199.259 19.2207C199.483 18.8789 199.571 18.5664 199.522 18.2832L200.299 19.7041C200.221 20.0752 200.074 20.4658 199.859 20.876C199.654 21.2861 199.386 21.6768 199.054 22.0479C198.722 22.4189 198.321 22.7217 197.853 22.9561C197.384 23.1807 196.842 23.293 196.227 23.293C195.338 23.293 194.547 23.1074 193.854 22.7363C193.16 22.3652 192.613 21.833 192.213 21.1396C191.822 20.4365 191.627 19.5967 191.627 18.6201C191.627 17.8291 191.759 17.1113 192.022 16.4668C192.286 15.8223 192.677 15.2705 193.194 14.8115C193.712 14.3428 194.361 13.9814 195.143 13.7275C195.934 13.4736 196.856 13.3467 197.911 13.3467H199.801ZM209.879 7.15039V23H206.466V7.15039H209.879ZM206.29 2.99023C206.29 2.44336 206.456 1.98926 206.788 1.62793C207.12 1.2666 207.584 1.08594 208.18 1.08594C208.775 1.08594 209.239 1.2666 209.571 1.62793C209.903 1.98926 210.069 2.44336 210.069 2.99023C210.069 3.52734 209.903 3.97656 209.571 4.33789C209.239 4.69922 208.775 4.87988 208.18 4.87988C207.584 4.87988 207.12 4.69922 206.788 4.33789C206.456 3.97656 206.29 3.52734 206.29 2.99023ZM217.145 0.5V23H213.731V0.5H217.145ZM221.056 21.2129C221.056 20.6465 221.236 20.1729 221.598 19.792C221.969 19.4111 222.477 19.2207 223.121 19.2207C223.766 19.2207 224.269 19.4111 224.63 19.792C225.001 20.1729 225.187 20.6465 225.187 21.2129C225.187 21.7598 225.001 22.2236 224.63 22.6045C224.269 22.9854 223.766 23.1758 223.121 23.1758C222.477 23.1758 221.969 22.9854 221.598 22.6045C221.236 22.2236 221.056 21.7598 221.056 21.2129ZM232.555 10.2119V23H229.142V7.15039H232.394L232.555 10.2119ZM236.378 7.04785L236.363 10.417C236.168 10.3682 235.958 10.3389 235.733 10.3291C235.519 10.3096 235.304 10.2998 235.089 10.2998C234.62 10.2998 234.215 10.3828 233.873 10.5488C233.531 10.7148 233.243 10.9541 233.009 11.2666C232.774 11.5791 232.589 11.9551 232.452 12.3945C232.325 12.834 232.247 13.332 232.218 13.8887L231.485 13.918C231.485 12.9219 231.563 11.999 231.72 11.1494C231.876 10.29 232.11 9.54297 232.423 8.9082C232.745 8.26367 233.146 7.76074 233.624 7.39941C234.103 7.03809 234.659 6.85742 235.294 6.85742C235.47 6.85742 235.67 6.87695 235.895 6.91602C236.119 6.95508 236.28 6.99902 236.378 7.04785ZM246.544 19.2646V7.15039H249.957V23H246.749L246.544 19.2646ZM247.027 15.9541L248.111 15.9248C248.111 16.9893 248.014 17.9707 247.818 18.8691C247.623 19.7676 247.32 20.5488 246.91 21.2129C246.51 21.8672 245.987 22.3799 245.343 22.751C244.708 23.1123 243.941 23.293 243.043 23.293C242.398 23.293 241.808 23.1807 241.271 22.9561C240.733 22.7314 240.27 22.3848 239.879 21.916C239.488 21.4473 239.186 20.8369 238.971 20.085C238.756 19.333 238.648 18.4346 238.648 17.3896V7.15039H242.062V17.4189C242.062 17.9854 242.11 18.459 242.208 18.8398C242.306 19.2109 242.442 19.5137 242.618 19.748C242.794 19.9727 242.989 20.1338 243.204 20.2314C243.429 20.3193 243.668 20.3633 243.922 20.3633C244.693 20.3633 245.304 20.1729 245.753 19.792C246.212 19.4014 246.539 18.874 246.734 18.21C246.93 17.5459 247.027 16.7939 247.027 15.9541Z" fill="#80536F"/>
</svg>
