<svg width="110" height="41" viewBox="0 0 110 41" fill="none" xmlns="http://www.w3.org/2000/svg">
<path d="M11.3677 28.0352V5.75H15.7427V32L11.7778 32.0171L11.3677 28.0352ZM1.59229 23.4551V22.1221C1.59229 20.6068 1.72331 19.2909 1.98535 18.1743C2.25879 17.0464 2.65186 16.1121 3.16455 15.3716C3.68864 14.631 4.32666 14.0785 5.07861 13.7139C5.83057 13.3493 6.68506 13.167 7.64209 13.167C8.54215 13.167 9.32829 13.3835 10.0005 13.8164C10.6727 14.238 11.2367 14.8361 11.6924 15.6108C12.1595 16.3856 12.5355 17.3084 12.8203 18.3794C13.1051 19.439 13.3045 20.6068 13.4185 21.8828V23.7969C13.2817 25.016 13.071 26.1496 12.7861 27.1978C12.5127 28.2459 12.1424 29.1517 11.6753 29.915C11.2082 30.6784 10.6385 31.2765 9.96631 31.7095C9.3055 32.131 8.52507 32.3418 7.625 32.3418C6.66797 32.3418 5.81348 32.1538 5.06152 31.7778C4.32096 31.3905 3.68864 30.8265 3.16455 30.0859C2.65186 29.334 2.25879 28.4054 1.98535 27.3003C1.72331 26.1838 1.59229 24.902 1.59229 23.4551ZM5.98438 22.1221V23.4551C5.98438 24.3551 6.03564 25.1356 6.13818 25.7964C6.24072 26.4458 6.40023 26.9813 6.6167 27.4028C6.84456 27.813 7.14079 28.1206 7.50537 28.3257C7.88135 28.5194 8.33708 28.6162 8.87256 28.6162C9.55615 28.6162 10.1087 28.4453 10.5303 28.1035C10.9632 27.7617 11.2936 27.2946 11.5215 26.7021C11.7493 26.0983 11.8975 25.4147 11.9658 24.6514V21.0454C11.9316 20.4302 11.8405 19.8662 11.6924 19.3535C11.5443 18.8408 11.3449 18.4022 11.0942 18.0376C10.8436 17.6616 10.536 17.3711 10.1714 17.166C9.8068 16.9609 9.37956 16.8584 8.88965 16.8584C8.35417 16.8584 7.89844 16.9666 7.52246 17.1831C7.15788 17.3882 6.86165 17.7015 6.63379 18.123C6.41732 18.5446 6.25212 19.0915 6.13818 19.7637C6.03564 20.4245 5.98438 21.2106 5.98438 22.1221ZM26.8511 32.3418C25.6206 32.3418 24.5269 32.1538 23.5698 31.7778C22.6242 31.4019 21.821 30.855 21.1602 30.1372C20.4993 29.4194 19.9924 28.5365 19.6392 27.4883C19.2974 26.4401 19.1265 25.2381 19.1265 23.8823V22.2246C19.1265 20.6865 19.3031 19.3535 19.6562 18.2256C20.0094 17.0863 20.4993 16.1463 21.126 15.4058C21.764 14.6538 22.5273 14.0955 23.416 13.731C24.3161 13.355 25.3073 13.167 26.3896 13.167C27.5518 13.167 28.5658 13.3607 29.4316 13.748C30.3089 14.124 31.0324 14.688 31.6021 15.4399C32.1717 16.1919 32.5933 17.1261 32.8667 18.2427C33.1515 19.3478 33.2939 20.6296 33.2939 22.0879V24.1899H21.0918V20.9941H28.9873V20.5669C28.9645 19.7694 28.8677 19.0915 28.6968 18.5332C28.5259 17.9749 28.2524 17.5534 27.8765 17.2686C27.5119 16.9723 27.0106 16.8242 26.3726 16.8242C25.8713 16.8242 25.4383 16.9268 25.0737 17.1318C24.7091 17.3255 24.4129 17.6331 24.1851 18.0547C23.9686 18.4648 23.8034 19.0174 23.6895 19.7124C23.5755 20.396 23.5186 21.2334 23.5186 22.2246V23.8823C23.5186 24.7596 23.5983 25.5059 23.7578 26.1211C23.9173 26.7249 24.1509 27.2205 24.4585 27.6079C24.7661 27.9839 25.1421 28.2573 25.5864 28.4282C26.0308 28.5991 26.5492 28.6846 27.1416 28.6846C28.0303 28.6846 28.8107 28.5251 29.4829 28.2061C30.1551 27.8757 30.7362 27.437 31.2261 26.8901L33.0547 29.5732C32.7243 30.0176 32.2743 30.4562 31.7046 30.8892C31.1349 31.3107 30.4456 31.6582 29.6367 31.9316C28.8392 32.2051 27.9106 32.3418 26.8511 32.3418ZM44.6587 27.061C44.6587 26.7078 44.5448 26.3945 44.3169 26.1211C44.1004 25.8477 43.7529 25.5685 43.2744 25.2837C42.7959 24.9989 42.1636 24.6912 41.3774 24.3608C40.5229 24.019 39.7653 23.6715 39.1045 23.3184C38.4551 22.9538 37.9025 22.555 37.4468 22.1221C36.991 21.6777 36.6493 21.1764 36.4214 20.6182C36.1935 20.0485 36.0796 19.3934 36.0796 18.6528C36.0796 17.8895 36.222 17.1774 36.5068 16.5166C36.7917 15.8558 37.2018 15.2747 37.7373 14.7734C38.2842 14.2721 38.945 13.8791 39.7197 13.5942C40.4945 13.3094 41.366 13.167 42.3345 13.167C43.6903 13.167 44.8524 13.4119 45.8208 13.9019C46.8006 14.3804 47.5469 15.0526 48.0596 15.9185C48.5837 16.7843 48.8457 17.7812 48.8457 18.9092H44.4707C44.4707 18.4762 44.3966 18.0832 44.2485 17.73C44.1004 17.3768 43.8669 17.0977 43.5479 16.8926C43.2288 16.6761 42.8187 16.5679 42.3174 16.5679C41.8958 16.5679 41.5312 16.6533 41.2236 16.8242C40.9274 16.9951 40.6995 17.223 40.54 17.5078C40.3805 17.7812 40.3008 18.0946 40.3008 18.4478C40.3008 18.7212 40.3521 18.9604 40.4546 19.1655C40.5685 19.3706 40.7451 19.57 40.9844 19.7637C41.2236 19.946 41.5426 20.1396 41.9414 20.3447C42.3516 20.5384 42.8586 20.7663 43.4624 21.0283C44.6929 21.4954 45.7126 21.991 46.5215 22.5151C47.3304 23.0278 47.9342 23.6317 48.333 24.3267C48.7318 25.0103 48.9312 25.8647 48.9312 26.8901C48.9312 27.6991 48.7773 28.4396 48.4697 29.1118C48.1621 29.784 47.7178 30.3651 47.1367 30.855C46.5671 31.3335 45.8778 31.7038 45.0688 31.9658C44.2599 32.2165 43.3542 32.3418 42.3516 32.3418C40.8818 32.3418 39.64 32.0513 38.626 31.4702C37.6234 30.8892 36.86 30.1372 36.3359 29.2144C35.8232 28.2915 35.5669 27.3288 35.5669 26.3262H39.771C39.7938 26.987 39.9248 27.5111 40.1641 27.8984C40.4147 28.2744 40.7394 28.5365 41.1382 28.6846C41.5369 28.8327 41.9642 28.9067 42.4199 28.9067C42.9212 28.9067 43.3371 28.8384 43.6675 28.7017C43.9979 28.5535 44.2428 28.3428 44.4023 28.0693C44.5732 27.7845 44.6587 27.4484 44.6587 27.061ZM56.8267 13.5088V32H52.4346V13.5088H56.8267ZM52.2124 8.68945C52.2124 7.99447 52.4289 7.4248 52.8618 6.98047C53.2948 6.52474 53.8872 6.29688 54.6392 6.29688C55.3911 6.29688 55.9779 6.52474 56.3994 6.98047C56.821 7.4248 57.0317 7.99447 57.0317 8.68945C57.0317 9.37305 56.821 9.94271 56.3994 10.3984C55.9779 10.8428 55.3911 11.0649 54.6392 11.0649C53.8872 11.0649 53.2948 10.8428 52.8618 10.3984C52.4289 9.94271 52.2124 9.37305 52.2124 8.68945ZM70.6353 13.5088H74.6172V32.0342C74.6172 33.709 74.3039 35.0819 73.6772 36.1528C73.0506 37.2238 72.179 38.0099 71.0625 38.5112C69.9574 39.0239 68.6642 39.2803 67.1831 39.2803C66.6248 39.2803 65.9868 39.2005 65.269 39.041C64.5513 38.8815 63.8506 38.6366 63.167 38.3062C62.4948 37.9757 61.9365 37.577 61.4922 37.1099L63.0303 34.0679C63.5202 34.5578 64.124 34.9565 64.8418 35.2642C65.571 35.5718 66.2773 35.7256 66.9609 35.7256C67.6559 35.7256 68.2427 35.6117 68.7212 35.3838C69.2111 35.1559 69.5814 34.7743 69.832 34.2388C70.0827 33.7147 70.208 32.9969 70.208 32.0854V17.7471L70.6353 13.5088ZM60.2617 23.4551V22.1221C60.2617 20.6068 60.3984 19.2909 60.6719 18.1743C60.9567 17.0464 61.3669 16.1121 61.9023 15.3716C62.4492 14.631 63.11 14.0785 63.8848 13.7139C64.6595 13.3493 65.5311 13.167 66.4995 13.167C67.5021 13.167 68.3452 13.3835 69.0288 13.8164C69.7124 14.238 70.2707 14.8361 70.7036 15.6108C71.1366 16.3856 71.4727 17.3084 71.7119 18.3794C71.9512 19.439 72.1335 20.6068 72.2588 21.8828V23.7969C72.1449 25.016 71.9455 26.1496 71.6606 27.1978C71.3872 28.2459 71.0169 29.1517 70.5498 29.915C70.0941 30.6784 69.5301 31.2765 68.8579 31.7095C68.1971 32.131 67.3996 32.3418 66.4653 32.3418C65.5083 32.3418 64.6424 32.1538 63.8677 31.7778C63.1043 31.3905 62.4492 30.8265 61.9023 30.0859C61.3669 29.334 60.9567 28.4054 60.6719 27.3003C60.3984 26.1838 60.2617 24.902 60.2617 23.4551ZM64.6538 22.1221V23.4551C64.6538 24.3551 64.7108 25.1356 64.8247 25.7964C64.95 26.4458 65.1323 26.9813 65.3716 27.4028C65.6222 27.813 65.9412 28.1206 66.3286 28.3257C66.716 28.5194 67.1774 28.6162 67.7129 28.6162C68.4421 28.6162 69.0288 28.4453 69.4731 28.1035C69.9175 27.7617 70.2536 27.2946 70.4814 26.7021C70.7093 26.0983 70.8574 25.4147 70.9258 24.6514V21.0454C70.8802 20.4302 70.7834 19.8662 70.6353 19.3535C70.4985 18.8408 70.2992 18.4022 70.0371 18.0376C69.7865 17.6616 69.4674 17.3711 69.0801 17.166C68.7041 16.9609 68.2598 16.8584 67.7471 16.8584C67.223 16.8584 66.7616 16.9666 66.3628 17.1831C65.9754 17.3882 65.6564 17.7015 65.4058 18.123C65.1551 18.5446 64.9671 19.0915 64.8418 19.7637C64.7165 20.4245 64.6538 21.2106 64.6538 22.1221ZM82.7007 17.4565V32H78.3086V13.5088H82.4102L82.7007 17.4565ZM81.9829 22.105L80.7183 22.1221C80.6955 20.7663 80.8265 19.5415 81.1113 18.4478C81.4076 17.3426 81.8291 16.397 82.376 15.6108C82.9229 14.8247 83.578 14.2209 84.3413 13.7993C85.1047 13.3778 85.9591 13.167 86.9048 13.167C87.634 13.167 88.2948 13.2923 88.8872 13.543C89.491 13.7936 90.0094 14.1924 90.4424 14.7393C90.8753 15.2861 91.2114 16.0039 91.4507 16.8926C91.6899 17.7812 91.8096 18.8693 91.8096 20.1567V32H87.4175V20.1226C87.4175 19.2909 87.3263 18.6414 87.144 18.1743C86.9731 17.6958 86.7168 17.3597 86.375 17.166C86.0446 16.9609 85.6174 16.8584 85.0933 16.8584C84.6034 16.8584 84.1647 16.9951 83.7773 17.2686C83.39 17.5306 83.0596 17.9066 82.7861 18.3965C82.5241 18.875 82.3247 19.4333 82.188 20.0713C82.0513 20.6979 81.9829 21.3758 81.9829 22.105Z" fill="black"/>
<g clip-path="url(#clip0_2020_25)">
<path d="M103.887 9.88658C103.514 10.2592 103.038 10.5129 102.521 10.6156C102.004 10.7182 101.468 10.6652 100.981 10.4633C100.494 10.2614 100.077 9.9196 99.7846 9.48113C99.4917 9.04266 99.3353 8.52721 99.3353 7.99992C99.3353 7.47263 99.4917 6.95717 99.7846 6.51871C100.077 6.08024 100.494 5.73844 100.981 5.53652C101.468 5.3346 102.004 5.28162 102.521 5.38427C103.038 5.48693 103.514 5.74061 103.887 6.11325M108.667 7.99992C108.667 11.6818 105.682 14.6666 102 14.6666C98.318 14.6666 95.3333 11.6818 95.3333 7.99992C95.3333 4.31802 98.318 1.33325 102 1.33325C105.682 1.33325 108.667 4.31802 108.667 7.99992Z" stroke="black" stroke-width="2" stroke-linecap="round" stroke-linejoin="round"/>
</g>
<defs>
<clipPath id="clip0_2020_25">
<rect width="16" height="16" fill="white" transform="translate(94)"/>
</clipPath>
</defs>
</svg>
