<?xml version="1.0" encoding="UTF-8"?>
<svg id="Layer_1" data-name="Layer 1" xmlns="http://www.w3.org/2000/svg" xmlns:xlink="http://www.w3.org/1999/xlink" viewBox="0 0 909.76 601.95">
  <defs>
    <style>
      .cls-1 {
        stroke-width: 0px;
      }
    </style>
  </defs>
  <image width="635" height="635" transform="translate(519.28) scale(.61)" xlink:href="картинка обложка про.png"/>
  <image width="672" height="688" transform="translate(0 76.72) scale(.76)" xlink:href="картика обложка.png"/>
  <path class="cls-1" d="m206.88,243.72c-11.15,0-19.33-6.23-24.54-18.68-5.07-12.6-7.6-32.58-7.6-59.94,0-18.1,1.52-32.29,4.56-42.57,3.04-10.42,8.61-18.17,16.72-23.24,8.25-5.07,20.12-7.6,35.62-7.6h11.51c13.32,0,23.96,2.61,31.92,7.82,8.11,5.21,13.83,11.73,17.16,19.55,3.33,7.67,4.99,15.64,4.99,23.89,0,20.99-4.92,36.05-14.77,45.17-9.7,8.98-21.5,13.46-35.4,13.46-3.47,0-6.88-.22-10.21-.65-2.03,14.48-5.5,25.26-10.42,32.36-4.78,6.95-11.29,10.42-19.55,10.42Zm27.36-91.21c0,1.01.29,1.88.87,2.61.58.58,1.3.87,2.17.87s1.59-.29,2.17-.87c.72-.72,1.09-1.59,1.09-2.61l-.65-5.21.65-5.43c0-1.01-.36-1.81-1.09-2.39-.58-.58-1.3-.87-2.17-.87s-1.59.29-2.17.87c-.58.58-.87,1.38-.87,2.39l.65,5.43-.65,5.21Zm119.32,91.21c-19.55,0-33.81-2.03-42.78-6.08-8.98-4.05-13.46-10.57-13.46-19.55,0-7.82,3.33-13.75,9.99-17.81,6.8-4.05,17.37-6.52,31.71-7.38-12.45-2.17-22.51-7.6-30.19-16.29-7.67-8.83-11.51-20.7-11.51-35.62,0-11,2.46-20.2,7.38-27.58,4.92-7.38,11.44-12.81,19.55-16.29,8.25-3.62,17.45-5.43,27.58-5.43s19.26,1.81,27.36,5.43c8.25,3.47,14.77,8.9,19.55,16.29,4.92,7.38,7.38,16.58,7.38,27.58,0,14.77-3.76,26.49-11.29,35.18-7.38,8.69-17.23,14.19-29.54,16.5,14.19.87,24.54,3.33,31.06,7.38,6.52,4.05,9.77,10.06,9.77,18.03,0,8.83-4.2,15.35-12.6,19.55-8.4,4.05-21.72,6.08-39.96,6.08Zm-4.99-110.97c0,.87.14,2.24.43,4.13.29,1.74.43,3.55.43,5.43s-.14,3.76-.43,5.65c-.29,1.74-.43,3.04-.43,3.91,0,1.59.29,2.82.87,3.69.72.72,1.52,1.09,2.39,1.09,1.01,0,1.81-.36,2.39-1.09.72-.87,1.09-2.1,1.09-3.69,0-.87-.14-2.17-.43-3.91-.29-1.88-.43-3.76-.43-5.65s.14-3.69.43-5.43c.29-1.88.43-3.26.43-4.13,0-1.45-.36-2.53-1.09-3.26-.58-.87-1.38-1.3-2.39-1.3-.87,0-1.66.43-2.39,1.3-.58.72-.87,1.81-.87,3.26Zm151.14,110.97c-18.97,0-28.45-18.1-28.45-54.29,0-1.88.22-3.69.65-5.43.29-2.32.43-3.98.43-4.99,0-1.45-.36-2.53-1.09-3.26-.58-.72-1.3-1.09-2.17-1.09s-1.59.36-2.17,1.09c-.58.72-.87,1.81-.87,3.26,0,2.17.07,3.84.22,4.99.29,2.32.43,4.13.43,5.43,0,17.66-2.24,31.13-6.73,40.39-4.49,9.27-11.58,13.9-21.28,13.9-11.15,0-19.33-6.23-24.54-18.68-5.07-12.6-7.6-32.58-7.6-59.94,0-18.24,1.59-32.5,4.78-42.78,3.33-10.28,9.48-17.95,18.46-23.02,8.98-5.07,22.22-7.6,39.74-7.6s30.91,3.11,42.35,9.34c11.44,6.08,17.16,15.85,17.16,29.32,0,9.99-3.26,17.88-9.77,23.67-6.52,5.79-14.48,8.69-23.89,8.69-1.3,0-2.32.22-3.04.65-.72.43-1.09.94-1.09,1.52,0,.72.36,1.3,1.09,1.74.72.43,1.74.65,3.04.65,12.74,0,21.93,2.82,27.58,8.47,5.65,5.5,8.47,15.06,8.47,28.67,0,7.24-1.38,13.9-4.13,19.98-2.75,5.94-6.59,10.64-11.51,14.12-4.78,3.47-10.14,5.21-16.07,5.21Zm-33.66-102.07c0,1.01.29,1.88.87,2.61.58.58,1.3.87,2.17.87s1.59-.29,2.17-.87c.72-.72,1.09-1.59,1.09-2.61l-.65-5.21.65-5.43c0-1.01-.36-1.81-1.09-2.39-.58-.58-1.3-.87-2.17-.87s-1.59.29-2.17.87c-.58.58-.87,1.38-.87,2.39l.65,5.43-.65,5.21Zm127.12,102.07c-9.85,0-17.66-3.69-23.45-11.08-5.79-7.38-8.69-17.45-8.69-30.19,0-7.67,1.16-14.12,3.47-19.33-11.73-2.75-20.41-7.75-26.06-14.98-5.5-7.38-8.25-17.23-8.25-29.54,0-16.36,4.99-28.3,14.98-35.83,10.13-7.53,26.13-11.29,47.99-11.29s37.79,3.76,47.78,11.29c10.13,7.53,15.2,19.47,15.2,35.83,0,12.31-2.82,22.15-8.47,29.54-5.5,7.24-14.12,12.23-25.84,14.98,2.32,5.21,3.47,11.65,3.47,19.33,0,12.74-2.9,22.8-8.69,30.19-5.79,7.38-13.61,11.08-23.45,11.08Z"/>
  <path class="cls-1" d="m561.74,298.36c3.28,2.6,4.92,6.39,4.92,11.37,0,7.8-2.94,13.86-8.82,18.15-5.77,4.19-14.03,6.28-24.77,6.28-2.04,0-3.51.51-4.41,1.53-.79,1.02-1.19,2.49-1.19,4.41,0,1.13.06,2.32.17,3.56.23,1.24.45,2.54.68,3.9.79,3.73,1.19,7.01,1.19,9.84,0,4.64-1.53,8.37-4.58,11.2-2.94,2.71-8.37,4.07-16.29,4.07-4.75,0-9.33-1.3-13.74-3.9-4.41-2.71-7.97-6.33-10.69-10.86-2.71-4.52-4.07-9.44-4.07-14.76,0-9.61,2.83-17.02,8.48-22.23,5.77-5.2,13.35-7.8,22.73-7.8,2.71,0,5.77.23,9.16.68,1.92.34,3.51.51,4.75.51,1.58,0,2.77-.28,3.56-.85.79-.68,1.19-1.47,1.19-2.38s-.4-1.64-1.19-2.21c-.79-.68-1.98-1.02-3.56-1.02-1.24,0-2.83.17-4.75.51-3.39.45-6.45.68-9.16.68-9.84,0-17.53-1.75-23.07-5.26-5.43-3.51-8.14-9.33-8.14-17.48,0-10.52,3.62-18.49,10.86-23.92,7.35-5.54,19.29-8.31,35.8-8.31,14.03,0,24.94,1.98,32.75,5.94,7.92,3.85,11.88,9.33,11.88,16.46,0,4.3-2.26,7.75-6.79,10.35-4.52,2.49-9.84,3.73-15.95,3.73-1.81,0-4.86-.28-9.16-.85-1.81-.34-3.39-.51-4.75-.51-1.47,0-2.66.34-3.56,1.02-.79.68-1.19,1.41-1.19,2.21s.4,1.53,1.19,2.21c.9.68,2.09,1.02,3.56,1.02,1.36,0,2.94-.17,4.75-.51,4.3-.57,7.35-.85,9.16-.85,5.43,0,9.78,1.36,13.06,4.07Zm50.48,74.31c-15.27,0-26.41-1.58-33.42-4.75-7.01-3.17-10.52-8.26-10.52-15.27,0-6.11,2.6-10.75,7.8-13.91,5.32-3.17,13.57-5.09,24.77-5.77-9.73-1.7-17.59-5.94-23.58-12.72-6-6.9-8.99-16.17-8.99-27.82,0-8.6,1.92-15.78,5.77-21.55,3.85-5.77,8.94-10.01,15.27-12.72,6.45-2.83,13.63-4.24,21.55-4.24s15.04,1.41,21.38,4.24c6.45,2.71,11.54,6.96,15.27,12.72,3.85,5.77,5.77,12.95,5.77,21.55,0,11.54-2.94,20.7-8.82,27.49-5.77,6.79-13.46,11.08-23.07,12.89,11.08.68,19.17,2.6,24.26,5.77,5.09,3.17,7.63,7.86,7.63,14.08,0,6.9-3.28,11.99-9.84,15.27-6.56,3.17-16.97,4.75-31.22,4.75Zm-3.9-86.7c0,.68.11,1.75.34,3.22.23,1.36.34,2.77.34,4.24s-.11,2.94-.34,4.41c-.23,1.36-.34,2.38-.34,3.05,0,1.24.23,2.21.68,2.88.57.57,1.19.85,1.87.85.79,0,1.41-.28,1.87-.85.57-.68.85-1.64.85-2.88,0-.68-.11-1.7-.34-3.05-.23-1.47-.34-2.94-.34-4.41s.11-2.88.34-4.24c.23-1.47.34-2.54.34-3.22,0-1.13-.28-1.98-.85-2.54-.45-.68-1.07-1.02-1.87-1.02-.68,0-1.3.34-1.87,1.02-.45.57-.68,1.41-.68,2.54Zm77.86,86.53c-4.86,0-9.73-1.19-14.59-3.56-4.86-2.49-8.37-5.99-10.52-10.52-2.6-4.3-4.52-10.24-5.77-17.81-1.13-7.69-1.7-17.48-1.7-29.35,0-19.91,1.98-34.44,5.94-43.6,4.07-9.16,10.46-13.74,19.17-13.74s15.04,4.58,19,13.74c4.07,9.16,6.11,23.7,6.11,43.6,0,5.2-.85,11.2-2.54,17.98,3.96,1.92,7.13,4.58,9.5,7.97,2.49,3.28,3.73,7.24,3.73,11.88,0,5.09-1.47,9.39-4.41,12.89-2.94,3.51-6.62,6.16-11.03,7.97-4.3,1.7-8.6,2.54-12.89,2.54Zm52.19.17c-8.6,0-14.99-3.96-19.17-11.88-4.19-7.92-6.28-19.23-6.28-33.93,0-7.92,1.19-14.59,3.56-20.02s5.94-9.28,10.69-11.54c-3.73-1.92-6.73-4.75-8.99-8.48-2.26-3.73-3.39-7.86-3.39-12.39,0-4.07,1.02-7.8,3.05-11.2,2.15-3.39,5.03-6.05,8.65-7.97,3.62-1.92,7.58-2.88,11.88-2.88s8.26.96,11.88,2.88c3.62,1.92,6.45,4.58,8.48,7.97,2.15,3.39,3.22,7.13,3.22,11.2,0,4.52-1.13,8.65-3.39,12.39-2.26,3.73-5.26,6.56-8.99,8.48,4.75,2.26,8.31,6.11,10.69,11.54s3.56,12.1,3.56,20.02c0,14.7-2.09,26.01-6.28,33.93-4.19,7.92-10.58,11.88-19.17,11.88Zm68.03,0c-15.27,0-26.41-1.58-33.42-4.75-7.01-3.17-10.52-8.26-10.52-15.27,0-6.11,2.6-10.75,7.8-13.91,5.32-3.17,13.57-5.09,24.77-5.77-9.73-1.7-17.59-5.94-23.58-12.72-6-6.9-8.99-16.17-8.99-27.82,0-8.6,1.92-15.78,5.77-21.55,3.85-5.77,8.94-10.01,15.27-12.72,6.45-2.83,13.63-4.24,21.55-4.24s15.04,1.41,21.38,4.24c6.45,2.71,11.54,6.96,15.27,12.72,3.85,5.77,5.77,12.95,5.77,21.55,0,11.54-2.94,20.7-8.82,27.49-5.77,6.79-13.46,11.08-23.07,12.89,11.08.68,19.17,2.6,24.26,5.77,5.09,3.17,7.63,7.86,7.63,14.08,0,6.9-3.28,11.99-9.84,15.27-6.56,3.17-16.97,4.75-31.22,4.75Zm-3.9-86.7c0,.68.11,1.75.34,3.22.23,1.36.34,2.77.34,4.24s-.11,2.94-.34,4.41c-.23,1.36-.34,2.38-.34,3.05,0,1.24.23,2.21.68,2.88.57.57,1.19.85,1.87.85.79,0,1.41-.28,1.87-.85.57-.68.85-1.64.85-2.88,0-.68-.11-1.7-.34-3.05-.23-1.47-.34-2.94-.34-4.41s.11-2.88.34-4.24c.23-1.47.34-2.54.34-3.22,0-1.13-.28-1.98-.85-2.54-.45-.68-1.07-1.02-1.87-1.02-.68,0-1.3.34-1.87,1.02-.45.57-.68,1.41-.68,2.54Z"/>
</svg>