<svg width="86" height="86" viewBox="0 0 86 86" fill="none" xmlns="http://www.w3.org/2000/svg">
<path d="M25.4091 0C11.395 0 0 11.395 0 25.4091V60.5909C0 74.605 11.395 86 25.4091 86H60.5909C74.605 86 86 74.605 86 60.5909V25.4091C86 11.395 74.605 0 60.5909 0H25.4091ZM66.4545 15.6364C68.6045 15.6364 70.3636 17.3955 70.3636 19.5455C70.3636 21.6955 68.6045 23.4545 66.4545 23.4545C64.3046 23.4545 62.5455 21.6955 62.5455 19.5455C62.5455 17.3955 64.3046 15.6364 66.4545 15.6364ZM43 21.5C54.8641 21.5 64.5 31.1359 64.5 43C64.5 54.8641 54.8641 64.5 43 64.5C31.1359 64.5 21.5 54.8641 21.5 43C21.5 31.1359 31.1359 21.5 43 21.5ZM43 25.4091C33.3055 25.4091 25.4091 33.3055 25.4091 43C25.4091 52.6945 33.3055 60.5909 43 60.5909C52.6945 60.5909 60.5909 52.6945 60.5909 43C60.5909 33.3055 52.6945 25.4091 43 25.4091Z" fill="#80536F"/>
</svg>
