<svg width="1202" height="634" viewBox="0 0 1202 634" fill="none" xmlns="http://www.w3.org/2000/svg">
<rect x="1" y="489" width="1200" height="145" fill="#80536F"/>
<path d="M308.5 482C318.528 484.228 338.891 488.878 350.682 489.879L356.5 490C354.988 490.131 353.001 490.076 350.682 489.879L308.5 489V482Z" fill="#80536F" stroke="#80536F"/>
<path d="M55.5 211.5C49.9 116.7 16.5 112 0.5 121.5V489.5H329C312 482 267.3 467.8 224.5 471C171 475 188 358.5 137 369.5C86 380.5 62.5 330 55.5 211.5Z" fill="#80536F" stroke="#80536F"/>
<path d="M1144 14.9999C1159.2 -25.4001 1188 31.8332 1200.5 65.4999V343C1174.67 316.5 1124.9 247.3 1132.5 182.5C1142 101.5 1158 171 1179 133C1200 95 1125 65.4999 1144 14.9999Z" fill="#80536F" stroke="#80536F"/>
<path d="M823.5 412.5C745.9 380.9 706.833 452.333 697 492H1201V425C1199.83 439.333 1187.3 470.3 1146.5 479.5C1095.5 491 1056.5 439.5 993 412.5C929.5 385.499 920.5 452 823.5 412.5Z" fill="#80536F" stroke="#80536F"/>
</svg>
