<svg width="1028" height="839" viewBox="0 0 1028 839" fill="none" xmlns="http://www.w3.org/2000/svg">
<path d="M270.528 298.6C289.768 294.44 287.168 266.36 267.928 273.64C254.408 279.36 258.568 294.44 270.528 298.6ZM64.608 254.4C44.848 177.96 75.008 98.92 134.288 73.44C301.728 0.119991 363.608 180.56 363.608 234.12C363.608 414.56 117.128 443.68 64.608 254.4ZM490.187 256.48C537.507 254.4 525.027 228.92 492.787 235.16C492.267 235.16 490.707 256.48 490.187 256.48ZM385.667 288.2C352.907 167.56 386.187 55.24 556.747 89.04C590.547 95.8 644.107 119.2 624.867 155.6C602.507 197.72 467.307 148.84 467.307 148.84C471.987 157.16 470.427 175.36 466.267 180.04C469.387 176.4 544.267 162.36 600.947 197.72C643.587 224.24 664.387 267.4 646.187 318.36C600.427 432.24 416.347 399.48 385.667 288.2ZM875.333 298.6C894.573 294.44 891.973 266.36 872.733 273.64C859.213 279.36 863.373 294.44 875.333 298.6ZM669.413 254.4C649.653 177.96 679.813 98.92 739.093 73.44C906.533 0.119991 968.413 180.56 968.413 234.12C968.413 414.56 721.933 443.68 669.413 254.4ZM236.18 764.64C219.54 778.16 196.14 779.72 175.86 772.44C122.82 754.76 161.82 658.04 163.38 645.04L158.18 643.48C157.66 666.88 116.58 784.4 58.8595 776.6C57.8195 776.08 51.5795 777.64 50.5395 777.64C0.619531 767.24 16.7395 702.24 26.0995 667.4C35.9795 625.28 112.94 483.84 196.66 504.12C221.62 509.84 231.5 560.28 226.82 573.28C226.82 572.76 232.02 573.8 232.02 573.8C248.14 516.08 279.34 482.8 309.5 475.52C411.42 466.68 455.62 588.88 464.98 677.28C477.46 800 281.94 838.48 271.02 694.44L265.3 696.52C265.3 696.52 271.02 738.12 236.18 764.64ZM605.514 577.44C620.074 569.64 634.114 570.68 648.674 576.92C650.234 577.44 662.714 507.76 690.794 494.24C757.874 487.48 728.234 715.76 700.674 745.92C686.114 763.6 660.114 751.12 652.834 735.52C638.274 704.84 643.994 629.96 643.994 612.28C627.874 612.28 616.954 613.32 616.954 613.32C623.194 626.84 634.114 660.12 635.674 671.04C651.274 786.48 600.834 792.2 571.194 785.44C536.354 778.68 512.434 750.6 498.914 719.4C472.394 656.48 456.274 584.2 471.354 516.6C484.354 473.96 523.874 461.48 557.674 491.64C581.074 516.08 592.514 546.24 605.514 577.44ZM875.524 636.72C907.244 625.28 907.764 600.32 869.804 615.92C870.324 615.92 875.004 636.72 875.524 636.72ZM743.964 602.4C762.684 477.08 931.164 426.64 992.004 532.72C1017.48 580.56 994.604 644 948.844 663.76C895.804 686.64 863.564 676.24 859.924 673.12C864.604 677.28 874.484 716.28 871.364 725.12C871.364 725.12 984.724 645.04 1006.04 679.88C1027.88 715.24 971.724 756.32 941.564 772.96C841.204 824.44 725.764 725.64 743.964 602.4Z" fill="#BC5D99" fill-opacity="0.1"/>
</svg>
