<svg width="86" height="86" viewBox="0 0 86 86" fill="none" xmlns="http://www.w3.org/2000/svg">
<path d="M43 0C66.7491 0 86 19.2509 86 43C86 66.7491 66.7491 86 43 86C19.2509 86 0 66.7491 0 43C0 19.2509 19.2509 0 43 0ZM57.8331 60.5272C58.624 58.1005 62.3294 33.9158 62.7875 29.1503C62.9258 27.707 62.4697 26.7479 61.576 26.3197C60.4954 25.8 58.895 26.0599 57.0386 26.7292C54.4922 27.6471 21.9393 41.4688 20.0586 42.269C18.275 43.0262 16.5887 43.8525 16.5887 45.049C16.5887 45.8904 17.0878 46.3633 18.4638 46.855C19.8959 47.3654 23.5023 48.4591 25.6317 49.0462C27.6827 49.6127 30.0177 49.121 31.3264 48.3077C32.7137 47.4458 48.7227 36.7332 49.8725 35.7947C51.0204 34.8562 51.9365 36.0583 50.998 36.9987C50.0595 37.9372 39.0702 48.6031 37.6213 50.08C35.862 51.873 37.1109 53.7313 38.2906 54.4754C39.6385 55.3242 49.3322 61.8265 50.7923 62.8697C52.2525 63.913 53.7332 64.386 55.0886 64.386C56.444 64.386 57.1582 62.6005 57.8331 60.5272Z" fill="#80536F"/>
</svg>
